<svg width="246" height="39" viewBox="0 0 246 39" fill="none" xmlns="http://www.w3.org/2000/svg">
<path d="M223.145 36.5508V0H218.797V36.5508H223.145Z" fill="white"/>
<path d="M30.6066 19.454V33.1017C28.8479 34.392 26.9671 35.3597 24.9641 36.0049C23.8292 36.364 22.6305 36.6205 21.3681 36.7745L20.6649 32.907C21.3603 32.8161 22.0117 32.6825 22.6191 32.5062C23.8893 32.1257 25.1269 31.6046 26.332 30.9429V23.1265H20.8848C20.5754 23.1265 20.323 23.0355 20.1276 22.8536C19.9485 22.6716 19.8589 22.4482 19.8589 22.1836V19.454H30.6066Z" fill="white"/>
<path d="M3.32132 29.9436C2.50504 28.801 1.82947 27.5378 1.29462 26.1538C0.431549 23.9205 0 21.464 0 18.7841C0 16.0711 0.415253 13.598 1.24576 11.3647C2.09256 9.13147 3.28946 7.22083 4.83649 5.63275C6.38351 4.02814 8.26437 2.78741 10.479 1.91064C12.6937 1.03394 15.169 0.59552 17.9048 0.59552C19.2889 0.59552 20.5754 0.703064 21.7642 0.918091C22.9529 1.11664 24.0521 1.41437 25.0618 1.8114C26.0714 2.19189 27.0078 2.66333 27.8708 3.22583C28.7339 3.77173 29.54 4.39203 30.2891 5.08685L28.9456 7.27045C28.7339 7.60132 28.4571 7.81635 28.1151 7.91559C27.7894 7.99835 27.423 7.91559 27.0159 7.66748C26.6251 7.43585 26.1773 7.15466 25.6725 6.82379C25.1676 6.49298 24.5488 6.17865 23.816 5.88086C23.0995 5.56659 22.2446 5.30188 21.2512 5.08685C20.2742 4.87177 19.1098 4.76428 17.7582 4.76428C15.7878 4.76428 14.0046 5.09509 12.4088 5.75684C10.8129 6.40198 9.45312 7.33661 8.3295 8.56079C7.20587 9.76837 6.34277 11.2407 5.74026 12.9777C5.13776 14.6981 4.83649 16.6335 4.83649 18.7841C4.83649 19.2084 4.84766 19.6245 4.87 20.032L3.32132 29.9436Z" fill="white"/>
<path d="M56.752 11.4144V36.5508H54.1627C53.5439 36.5508 53.1531 36.2448 52.9903 35.6327L52.6483 32.928C51.5735 34.1356 50.3685 35.1116 49.0331 35.856C47.6978 36.5839 46.1671 36.9478 44.4409 36.9478C43.0893 36.9478 41.8924 36.7245 40.8502 36.2778C39.8243 35.8146 38.9612 35.1695 38.261 34.3423C37.5607 33.5153 37.0315 32.5144 36.6732 31.3399C36.3313 30.1653 36.1603 28.8668 36.1603 27.4441V11.4144H40.5082V27.4441C40.5082 29.3465 40.9316 30.8188 41.7784 31.861C42.6415 32.9031 43.9524 33.4243 45.7111 33.4243C46.9976 33.4243 48.1945 33.1182 49.3018 32.5062C50.4255 31.8775 51.4595 31.0173 52.404 29.9255V11.4144H56.752Z" fill="white"/>
<path fill-rule="evenodd" clip-rule="evenodd" d="M83.7248 33.0272C83.1874 33.6889 82.5441 34.2679 81.795 34.7642C81.046 35.2439 80.2399 35.6409 79.3768 35.9553C78.53 36.2696 77.6507 36.5012 76.7387 36.65C75.8268 36.8155 74.923 36.8982 74.0274 36.8982C72.3175 36.8982 70.7379 36.6087 69.2886 36.0297C67.8555 35.4341 66.6098 34.574 65.5513 33.449C64.5091 32.3076 63.6949 30.9015 63.1086 29.2307C62.5224 27.5599 62.2293 25.641 62.2293 23.4739C62.2293 21.7204 62.4898 20.0827 63.0109 18.5607C63.5483 17.0388 64.3137 15.7237 65.307 14.6154C66.3004 13.4905 67.5136 12.6137 68.9466 11.9851C70.3796 11.3399 71.9918 11.0173 73.7831 11.0173C75.265 11.0173 76.6329 11.2737 77.8868 11.7866C79.157 12.2828 80.248 13.0107 81.1599 13.9702C82.0882 14.9131 82.8128 16.0876 83.3339 17.4938C83.855 18.8834 84.1156 20.4714 84.1156 22.258C84.1156 22.9528 84.0423 23.416 83.8958 23.6476C83.7492 23.8792 83.4723 23.995 83.0652 23.995H66.5284C66.5772 25.5831 66.7889 26.9644 67.1635 28.1389C67.5543 29.3134 68.0917 30.2977 68.7756 31.0917C69.4596 31.8693 70.2738 32.4565 71.2183 32.8535C72.1628 33.234 73.2213 33.4243 74.3938 33.4243C75.4848 33.4243 76.4212 33.3002 77.2028 33.0521C78.0008 32.7874 78.6847 32.5062 79.2547 32.2084C79.8246 31.9106 80.2969 31.6376 80.6714 31.3895C81.0622 31.1248 81.3961 30.9925 81.6729 30.9925C82.0312 30.9925 82.308 31.1331 82.5034 31.4143L83.7248 33.0272ZM80.2073 21.2407C80.2073 20.215 80.0608 19.2803 79.7676 18.4367C79.4908 17.5765 79.0755 16.8403 78.5219 16.2283C77.9845 15.5997 77.325 15.1199 76.5433 14.7891C75.7617 14.4417 74.8742 14.2679 73.8808 14.2679C71.7964 14.2679 70.1435 14.8883 68.9222 16.129C67.7171 17.3531 66.968 19.057 66.6749 21.2407H80.2073Z" fill="white"/>
<path d="M103.868 15.5583C103.673 15.9222 103.371 16.1042 102.964 16.1042C102.72 16.1042 102.443 16.0132 102.134 15.8312C101.824 15.6492 101.442 15.4507 100.986 15.2357C100.546 15.0041 100.017 14.7973 99.3979 14.6154C98.7791 14.4169 98.0463 14.3176 97.1995 14.3176C96.4667 14.3176 95.8072 14.4169 95.2209 14.6154C94.6347 14.7973 94.1299 15.0537 93.7065 15.3846C93.2994 15.7155 92.9818 16.1042 92.7538 16.5508C92.5421 16.981 92.4363 17.4524 92.4363 17.9652C92.4363 18.6104 92.6154 19.148 92.9737 19.5781C93.3482 20.0082 93.8368 20.3804 94.4393 20.6948C95.0418 21.009 95.7258 21.2903 96.4911 21.5384C97.2565 21.77 98.0382 22.0264 98.8361 22.3076C99.6503 22.5723 100.44 22.8701 101.205 23.2009C101.971 23.5318 102.655 23.9454 103.257 24.4417C103.86 24.9379 104.34 25.55 104.699 26.2778C105.073 26.9892 105.26 27.8494 105.26 28.8585C105.26 30.0165 105.057 31.0917 104.65 32.0843C104.243 33.0603 103.64 33.9122 102.842 34.6401C102.044 35.3514 101.067 35.9139 99.9109 36.3275C98.7547 36.741 97.4193 36.9478 95.9049 36.9478C94.1787 36.9478 92.6154 36.6666 91.215 36.1041C89.8145 35.5251 88.6257 34.789 87.6487 33.8957L88.6746 32.2084C88.8049 31.9933 88.9596 31.8279 89.1387 31.7121C89.3178 31.5963 89.5458 31.5384 89.8226 31.5384C90.1158 31.5384 90.4252 31.6542 90.7509 31.8858C91.0766 32.1174 91.4674 32.3738 91.9233 32.655C92.3956 32.9362 92.9655 33.1927 93.6332 33.4243C94.3009 33.6558 95.1314 33.7717 96.1247 33.7717C96.9715 33.7717 97.7125 33.6641 98.3476 33.449C98.9827 33.2175 99.5119 32.9114 99.9353 32.5309C100.359 32.1505 100.668 31.7121 100.863 31.2158C101.075 30.7195 101.181 30.1902 101.181 29.6277C101.181 28.9329 100.994 28.3622 100.619 27.9156C100.261 27.4524 99.7806 27.0637 99.1781 26.7493C98.5755 26.4185 97.8835 26.1373 97.1018 25.9056C96.3364 25.6575 95.5466 25.4011 94.7324 25.1364C93.9345 24.8718 93.1447 24.574 92.363 24.2431C91.5977 23.8958 90.9137 23.4656 90.3112 22.9528C89.7086 22.44 89.2201 21.8113 88.8456 21.067C88.4873 20.306 88.3082 19.3879 88.3082 18.3126C88.3082 17.3531 88.5036 16.4351 88.8944 15.5583C89.2853 14.665 89.8552 13.8875 90.6043 13.2258C91.3534 12.5475 92.2735 12.0099 93.3645 11.6129C94.4556 11.2159 95.7013 11.0173 97.1018 11.0173C98.7302 11.0173 100.188 11.282 101.474 11.8114C102.777 12.3242 103.901 13.0355 104.845 13.9454L103.868 15.5583Z" fill="white"/>
<path d="M125.003 15.5583C124.807 15.9222 124.506 16.1042 124.099 16.1042C123.855 16.1042 123.578 16.0132 123.269 15.8312C122.959 15.6492 122.576 15.4507 122.12 15.2357C121.681 15.0041 121.152 14.7973 120.533 14.6154C119.914 14.4169 119.181 14.3176 118.334 14.3176C117.602 14.3176 116.942 14.4169 116.356 14.6154C115.77 14.7973 115.265 15.0537 114.841 15.3846C114.434 15.7155 114.117 16.1042 113.889 16.5508C113.677 16.981 113.571 17.4524 113.571 17.9652C113.571 18.6104 113.75 19.148 114.108 19.5781C114.483 20.0082 114.972 20.3804 115.574 20.6948C116.177 21.009 116.861 21.2903 117.626 21.5384C118.391 21.77 119.173 22.0264 119.971 22.3076C120.785 22.5723 121.575 22.8701 122.34 23.2009C123.106 23.5318 123.79 23.9454 124.392 24.4417C124.995 24.9379 125.475 25.55 125.833 26.2778C126.208 26.9892 126.395 27.8494 126.395 28.8585C126.395 30.0165 126.192 31.0917 125.784 32.0843C125.377 33.0603 124.775 33.9122 123.977 34.6401C123.179 35.3514 122.202 35.9139 121.046 36.3275C119.889 36.741 118.554 36.9478 117.04 36.9478C115.314 36.9478 113.75 36.6666 112.35 36.1041C110.949 35.5251 109.761 34.789 108.783 33.8957L109.809 32.2084C109.94 31.9933 110.094 31.8279 110.273 31.7121C110.453 31.5963 110.681 31.5384 110.957 31.5384C111.251 31.5384 111.56 31.6542 111.886 31.8858C112.211 32.1174 112.602 32.3738 113.058 32.655C113.53 32.9362 114.1 33.1927 114.768 33.4243C115.436 33.6558 116.266 33.7717 117.26 33.7717C118.106 33.7717 118.847 33.6641 119.482 33.449C120.117 33.2175 120.647 32.9114 121.07 32.5309C121.493 32.1505 121.803 31.7121 121.998 31.2158C122.21 30.7195 122.316 30.1902 122.316 29.6277C122.316 28.9329 122.129 28.3622 121.754 27.9156C121.396 27.4524 120.915 27.0637 120.313 26.7493C119.71 26.4185 119.018 26.1373 118.237 25.9056L115.867 25.1364C115.069 24.8718 114.279 24.574 113.498 24.2431C112.732 23.8958 112.049 23.4656 111.446 22.9528C110.843 22.44 110.355 21.8113 109.98 21.067C109.622 20.306 109.443 19.3879 109.443 18.3126C109.443 17.3531 109.638 16.4351 110.029 15.5583C110.42 14.665 110.99 13.8875 111.739 13.2258C112.488 12.5475 113.408 12.0099 114.499 11.6129C115.59 11.2159 116.836 11.0173 118.237 11.0173C119.865 11.0173 121.323 11.282 122.609 11.8114C123.912 12.3242 125.035 13.0355 125.98 13.9454L125.003 15.5583Z" fill="white"/>
<path d="M160.707 33.1017C158.949 34.392 157.068 35.3597 155.065 36.0049C153.078 36.6335 150.896 36.9478 148.518 36.9478C145.701 36.9478 143.161 36.5095 140.897 35.6327C138.634 34.7394 136.696 33.4987 135.084 31.9106C133.488 30.306 132.258 28.387 131.395 26.1538C130.532 23.9205 130.101 21.464 130.101 18.7841C130.101 16.0711 130.516 13.598 131.346 11.3647C132.193 9.13147 133.39 7.22083 134.937 5.63275C136.484 4.02814 138.365 2.78741 140.58 1.91064C142.794 1.03394 145.27 0.59552 148.005 0.59552C149.39 0.59552 150.676 0.703064 151.865 0.918091C153.054 1.11664 154.153 1.41437 155.163 1.8114C156.172 2.19189 157.108 2.66333 157.972 3.22583C158.835 3.77173 159.641 4.39203 160.39 5.08685L159.046 7.27045C158.835 7.60132 158.558 7.81635 158.216 7.91559C157.89 7.99835 157.524 7.91559 157.117 7.66748C156.726 7.43585 156.278 7.15466 155.773 6.82379C155.268 6.49298 154.65 6.17865 153.917 5.88086C153.2 5.56659 152.345 5.30188 151.352 5.08685C150.375 4.87177 149.211 4.76428 147.859 4.76428C145.888 4.76428 144.105 5.09509 142.509 5.75684C140.914 6.40198 139.554 7.33661 138.43 8.56079C137.307 9.76837 136.444 11.2407 135.841 12.9777C135.238 14.6981 134.937 16.6335 134.937 18.7841C134.937 21.0173 135.247 23.019 135.865 24.789C136.501 26.5425 137.396 28.0397 138.552 29.2803C139.725 30.5045 141.142 31.4391 142.803 32.0843C144.464 32.7295 146.328 33.0521 148.396 33.0521C150.025 33.0521 151.466 32.8701 152.72 32.5062C153.99 32.1257 155.228 31.6046 156.433 30.9429V23.1265H150.986C150.676 23.1265 150.424 23.0355 150.228 22.8536C150.049 22.6716 149.96 22.4482 149.96 22.1836V19.454H160.707V33.1017Z" fill="white"/>
<path fill-rule="evenodd" clip-rule="evenodd" d="M177.079 11.0173C178.886 11.0173 180.515 11.3234 181.964 11.9355C183.413 12.5475 184.651 13.416 185.677 14.5409C186.703 15.6658 187.484 17.0306 188.022 18.6352C188.575 20.2233 188.852 22.0016 188.852 23.9702C188.852 25.9553 188.575 27.7419 188.022 29.33C187.484 30.918 186.703 32.2745 185.677 33.3994C184.651 34.5244 183.413 35.3928 181.964 36.0049C180.515 36.6004 178.886 36.8982 177.079 36.8982C175.255 36.8982 173.61 36.6004 172.144 36.0049C170.695 35.3928 169.457 34.5244 168.432 33.3994C167.406 32.2745 166.616 30.918 166.062 29.33C165.525 27.7419 165.256 25.9553 165.256 23.9702C165.256 22.0016 165.525 20.2233 166.062 18.6352C166.616 17.0306 167.406 15.6658 168.432 14.5409C169.457 13.416 170.695 12.5475 172.144 11.9355C173.61 11.3234 175.255 11.0173 177.079 11.0173ZM177.079 33.449C179.521 33.449 181.345 32.6219 182.55 30.9677C183.755 29.2969 184.358 26.9727 184.358 23.995C184.358 21.0008 183.755 18.6683 182.55 16.9975C181.345 15.3267 179.521 14.4913 177.079 14.4913C175.841 14.4913 174.758 14.7064 173.83 15.1365C172.918 15.5665 172.153 16.1869 171.534 16.9975C170.931 17.808 170.475 18.8089 170.166 19.9999C169.873 21.1745 169.726 22.5062 169.726 23.995C169.726 26.9727 170.329 29.2969 171.534 30.9677C172.755 32.6219 174.603 33.449 177.079 33.449Z" fill="white"/>
<path fill-rule="evenodd" clip-rule="evenodd" d="M193.732 14.9628C195.1 13.6228 196.574 12.622 198.153 11.9603C199.733 11.2986 201.483 10.9677 203.405 10.9677C204.789 10.9677 206.018 11.1993 207.093 11.6625C208.168 12.1257 209.072 12.7709 209.805 13.598C210.537 14.4251 211.091 15.426 211.466 16.6005C211.84 17.775 212.027 19.0653 212.027 20.4714V36.5508H210.098C209.674 36.5508 209.349 36.4846 209.121 36.3523C208.893 36.2034 208.714 35.9222 208.583 35.5086L208.095 33.1265C207.443 33.7386 206.808 34.2845 206.189 34.7642C205.571 35.2274 204.919 35.6244 204.235 35.9553C203.551 36.2696 202.819 36.5095 202.037 36.6749C201.272 36.8568 200.417 36.9478 199.472 36.9478C198.511 36.9478 197.608 36.8155 196.761 36.5508C195.914 36.2696 195.173 35.856 194.538 35.3101C193.919 34.7642 193.422 34.0777 193.048 33.2505C192.69 32.4069 192.511 31.4143 192.511 30.2729C192.511 29.2803 192.779 28.3292 193.317 27.4193C193.854 26.4929 194.725 25.6741 195.93 24.9627C197.135 24.2514 198.707 23.6724 200.645 23.2258C202.582 22.7626 204.96 22.4979 207.777 22.4317V20.4714C207.777 18.5194 207.362 17.0471 206.531 16.0546C205.701 15.0455 204.488 14.5409 202.892 14.5409C201.817 14.5409 200.913 14.6815 200.18 14.9628C199.464 15.2274 198.837 15.5334 198.3 15.8809C197.779 16.2117 197.323 16.5178 196.932 16.799C196.557 17.0637 196.183 17.196 195.808 17.196C195.515 17.196 195.263 17.1216 195.051 16.9727C194.839 16.8073 194.66 16.6088 194.514 16.3771L193.732 14.9628ZM207.777 25.2357C205.774 25.3019 204.064 25.4673 202.648 25.7319C201.247 25.9801 200.099 26.311 199.203 26.7245C198.324 27.1381 197.681 27.6261 197.274 28.1885C196.883 28.751 196.688 29.3796 196.688 30.0744C196.688 30.7361 196.793 31.3068 197.005 31.7866C197.217 32.2663 197.502 32.6633 197.86 32.9776C198.235 33.2754 198.666 33.4987 199.155 33.6476C199.659 33.7799 200.197 33.8461 200.767 33.8461C201.532 33.8461 202.232 33.7717 202.867 33.6227C203.503 33.4573 204.097 33.2257 204.651 32.928C205.221 32.6302 205.758 32.2745 206.263 31.861C206.784 31.4474 207.289 30.976 207.777 30.4466V25.2357Z" fill="white"/>
<path d="M243.704 16.1042C244.111 16.1042 244.412 15.9222 244.608 15.5583L245.585 13.9454C244.64 13.0355 243.517 12.3242 242.214 11.8114C240.927 11.282 239.47 11.0173 237.841 11.0173C236.441 11.0173 235.195 11.2159 234.104 11.6129C233.013 12.0099 232.093 12.5475 231.344 13.2258C230.595 13.8875 230.025 14.665 229.634 15.5583C229.243 16.4351 229.048 17.3531 229.048 18.3126C229.048 19.3879 229.227 20.306 229.585 21.067C229.96 21.8113 230.448 22.44 231.051 22.9528C231.653 23.4656 232.337 23.8958 233.103 24.2431C233.884 24.574 234.674 24.8718 235.472 25.1364L236.483 25.4647C236.944 25.6145 237.397 25.7615 237.841 25.9056C238.623 26.1373 239.315 26.4185 239.918 26.7493C240.52 27.0637 241.001 27.4524 241.359 27.9156C241.733 28.3622 241.921 28.9329 241.921 29.6277C241.921 30.1902 241.815 30.7195 241.603 31.2158C241.408 31.7121 241.098 32.1505 240.675 32.5309C240.252 32.9114 239.722 33.2175 239.087 33.449C238.452 33.6641 237.711 33.7717 236.864 33.7717C235.871 33.7717 235.041 33.6558 234.373 33.4243C233.705 33.1927 233.135 32.9362 232.663 32.655C232.207 32.3738 231.816 32.1174 231.491 31.8858C231.165 31.6542 230.855 31.5384 230.562 31.5384C230.286 31.5384 230.058 31.5963 229.878 31.7121C229.699 31.8279 229.545 31.9933 229.414 32.2084L228.388 33.8957C229.365 34.789 230.554 35.5251 231.955 36.1041C233.355 36.6666 234.918 36.9478 236.645 36.9478C238.159 36.9478 239.494 36.741 240.651 36.3275C241.807 35.9139 242.784 35.3514 243.582 34.6401C244.38 33.9122 244.982 33.0603 245.389 32.0843C245.796 31.0917 246 30.0165 246 28.8585C246 27.8494 245.813 26.9892 245.438 26.2778C245.08 25.55 244.6 24.9379 243.997 24.4417C243.394 23.9454 242.711 23.5318 241.945 23.2009C241.18 22.8701 240.39 22.5723 239.576 22.3076C238.778 22.0264 237.996 21.77 237.231 21.5384C236.465 21.2903 235.782 21.009 235.179 20.6948C234.576 20.3804 234.088 20.0082 233.713 19.5781C233.355 19.148 233.176 18.6104 233.176 17.9652C233.176 17.4524 233.282 16.981 233.494 16.5508C233.722 16.1042 234.039 15.7155 234.446 15.3846C234.87 15.0537 235.374 14.7973 235.961 14.6154C236.547 14.4169 237.206 14.3176 237.939 14.3176C238.786 14.3176 239.519 14.4169 240.138 14.6154C240.756 14.7973 241.286 15.0041 241.725 15.2357C242.181 15.4507 242.564 15.6492 242.873 15.8312C243.183 16.0132 243.46 16.1042 243.704 16.1042Z" fill="white"/>
<path d="M13.7297 16.6997C15.1687 16.6997 16.3352 15.2184 16.3352 13.3912C16.3352 11.564 15.1687 10.0827 13.7297 10.0827C12.2907 10.0827 11.1242 11.564 11.1242 13.3912C11.1242 15.2184 12.2907 16.6997 13.7297 16.6997Z" fill="white"/>
<path d="M24.8031 13.3912C24.8031 15.2184 23.6366 16.6997 22.1976 16.6997C20.7587 16.6997 19.5921 15.2184 19.5921 13.3912C19.5921 11.564 20.7587 10.0827 22.1976 10.0827C23.6366 10.0827 24.8031 11.564 24.8031 13.3912Z" fill="white"/>
<path d="M7.1427 22.8005C6.95859 23.2119 5.98505 31.6243 5.95544 32.3155C5.8367 35.0856 6.66782 38.6989 11.7137 39C14.9906 38.8073 16.9407 38.1684 17.7322 37.7267C18.2831 37.4194 18.7458 36.4536 17.9469 35.6879C18.4218 34.905 18.495 33.9071 17.4127 33.279C18.1844 32.7972 18.5999 31.4122 17.1158 30.5691C17.9707 30.0873 19.7888 29.4404 21.2493 28.9207C21.6144 28.7908 21.9571 28.6689 22.2569 28.5594C23.0152 28.2826 23.6882 27.4564 23.5004 26.7769C23.3043 26.0672 22.4993 25.6389 21.9837 25.6912C20.084 25.8839 15.7307 27.2569 13.7915 27.9194C12.4459 28.361 9.79034 28.6541 9.9328 26.2934V23.5834C9.9328 21.9387 7.97659 20.9379 7.1427 22.8005Z" fill="white"/>
</svg>
