<svg width="31" height="39" viewBox="0 0 31 39" fill="none" xmlns="http://www.w3.org/2000/svg">
<path fill-rule="evenodd" clip-rule="evenodd" d="M30.6066 32.5062V18.8585H19.8589V21.5881C19.8589 21.8527 19.9485 22.076 20.1276 22.2581C20.323 22.44 20.5754 22.531 20.8848 22.531H26.332V30.3474C25.1269 31.009 23.8893 31.5302 22.6191 31.9106C22.0117 32.087 21.3603 32.2206 20.6649 32.3115L21.3681 36.179C22.6305 36.025 23.8292 35.7685 24.9641 35.4094C26.9671 34.7642 28.8479 33.7964 30.6066 32.5062ZM3.32132 29.3481C2.50504 28.2055 1.82947 26.9423 1.29462 25.5583C0.431549 23.325 0 20.8685 0 18.1885C0 15.4756 0.415253 13.0024 1.24576 10.7692C2.09256 8.53595 3.28946 6.62531 4.83649 5.03723C6.38351 3.43262 8.26437 2.19189 10.479 1.31512C12.6937 0.438416 15.169 0 17.9048 0C19.2889 0 20.5754 0.107544 21.7642 0.322571C22.9529 0.521118 24.0521 0.818848 25.0618 1.21588C26.0714 1.59637 27.0078 2.06781 27.8708 2.63031C28.7339 3.17621 29.54 3.79651 30.2891 4.49133L28.9456 6.67493C28.7339 7.0058 28.4571 7.22083 28.1151 7.32007C27.7894 7.40283 27.423 7.32007 27.0159 7.07196C26.6251 6.84033 26.1773 6.55914 25.6725 6.22827C25.1676 5.89746 24.5488 5.58313 23.816 5.28534C23.0995 4.97107 22.2446 4.70636 21.2512 4.49133C20.2742 4.27625 19.1098 4.16876 17.7582 4.16876C15.7878 4.16876 14.0046 4.49957 12.4088 5.16132C10.8129 5.80646 9.45312 6.74109 8.3295 7.96527C7.20587 9.17285 6.34277 10.6451 5.74026 12.3821C5.13776 14.1025 4.83649 16.038 4.83649 18.1885C4.83649 18.6129 4.84766 19.0289 4.87 19.4365L3.32132 29.3481ZM16.3352 12.7957C16.3352 14.6229 15.1687 16.1042 13.7297 16.1042C12.2907 16.1042 11.1242 14.6229 11.1242 12.7957C11.1242 10.9684 12.2907 9.48718 13.7297 9.48718C15.1687 9.48718 16.3352 10.9684 16.3352 12.7957ZM24.8031 12.7957C24.8031 14.6229 23.6366 16.1042 22.1976 16.1042C20.7587 16.1042 19.5921 14.6229 19.5921 12.7957C19.5921 10.9684 20.7587 9.48718 22.1976 9.48718C23.6366 9.48718 24.8031 10.9684 24.8031 12.7957ZM5.95544 31.72C5.98505 31.0287 6.95859 22.6163 7.1427 22.205C7.97659 20.3423 9.9328 21.3431 9.9328 22.9879V25.6979C9.79034 28.0585 12.4459 27.7654 13.7915 27.3239C15.7307 26.6614 20.084 25.2884 21.9837 25.0956C22.4993 25.0433 23.3043 25.4717 23.5004 26.1814C23.6882 26.8609 23.0152 27.6871 22.2569 27.9639C22.1062 28.0189 21.9447 28.0771 21.775 28.1378C21.607 28.1979 21.4309 28.2606 21.2493 28.3252L21.2491 28.3253C19.7887 28.8449 17.9707 29.4918 17.1158 29.9736C18.5999 30.8167 18.1844 32.2017 17.4127 32.6835C18.495 33.3116 18.4218 34.3094 17.9469 35.0923C18.7458 35.858 18.2831 36.8239 17.7322 37.1312C16.9407 37.5729 14.9906 38.2118 11.7137 38.4045C6.66782 38.1034 5.8367 34.4901 5.95544 31.72Z" fill="white"/>
</svg>
