<?xml version="1.0" encoding="UTF-8"?>
<svg width="81px" height="81px" viewBox="0 0 81 81" version="1.1" xmlns="http://www.w3.org/2000/svg" xmlns:xlink="http://www.w3.org/1999/xlink">
    <!-- Generator: Sketch 54.1 (76490) - https://sketchapp.com -->
    <title>Icons / Teams / Draw / 80</title>
    <desc>Created with Sketch.</desc>
    <g id="Icons" stroke="none" stroke-width="1" fill="none" fill-rule="evenodd">
        <g id="Icons-/-Teams-/-Draw-/-80" transform="translate(0.890301, 0.500000)" fill="#858585">
            <path d="M40,80 C17.90861,80 0,62.09139 0,40 C0,17.90861 17.90861,0 40,0 C62.09139,0 80,17.90861 80,40 C80,62.09139 62.09139,80 40,80 Z M24.2120672,36.7933884 C25.110173,37.0513439 25.6296839,37.1992008 25.7705999,37.2369591 C26.8610187,37.5286455 27.9298163,37.8150289 28.9769927,38.0961095 C29.8134783,38.3161561 30.5334499,38.0748293 30.9965777,37.5981452 C31.3941262,37.1889601 31.5957205,36.5832846 31.5957205,36.2102861 C31.5957205,35.4027594 31.289161,34.917837 30.9965777,34.5081923 L31.896679,34.6281972 C33.0919972,34.9484817 34.431938,34.4719163 34.7436376,33.1677409 C35.0553373,31.8635655 34.3788259,30.9929635 33.5916938,30.3354619 C34.5931133,30.3495012 35.5156975,29.4854132 35.6978684,28.6903204 C35.8800392,27.8952276 35.7309291,26.7708439 34.4585936,25.983779 C35.5138365,25.7033849 36.3294196,25.0786531 36.5077169,24.2146506 L36.5226982,24.2309233 L42.0768074,21.2932009 C41.5006811,21.401316 40.9399433,21.538133 40.3945939,21.7036519 C39.9039499,21.8525673 38.5468394,22.2634995 36.3232625,22.9364485 C36.2930335,22.7733303 36.2868782,22.7702879 36.3047967,22.9273212 L35.547183,23.1713153 C35.6266827,22.8943454 35.6302316,22.8932714 35.5578296,23.1680934 L35.547183,23.1713153 L35.5547994,23.1795882 C35.5330816,23.2619249 35.5049078,23.3677132 35.4702781,23.4969529 L35.4273206,23.6572726 C35.1667617,24.6296918 34.3050356,25.2804907 33.3491458,25.3169508 C34.4635668,25.6896774 35.1089576,26.8708882 34.8007223,28.0212382 L34.7577647,28.1815579 C34.4867126,29.1931382 33.5650981,29.8566722 32.5636786,29.8426329 C33.4524854,30.3258699 33.92924,31.3704026 33.6558629,32.3906599 L33.6129054,32.5509795 C33.2926208,33.7462978 32.063982,34.4556527 30.8686638,34.1353682 L29.423867,33.748236 C30.2818966,34.1819019 30.7486303,35.1708157 30.4899419,36.1362539 C30.1933822,37.2430301 29.0557536,37.8998402 27.9489775,37.6032804 L24.3505471,36.6302703 C24.357391,36.6221291 24.3642427,36.6139671 24.3711022,36.6057841 C23.4943293,36.1800469 23.0139235,35.1795995 23.2755582,34.2031656 C23.542141,33.2082651 24.4883517,32.5769609 25.4808505,32.6749118 C24.4436097,32.2584748 23.857504,31.1231985 24.1540467,30.016486 L24.1970042,29.8561663 C24.4554591,28.8915995 25.3054114,28.2434797 26.2520409,28.1974914 C25.2479621,27.7641592 24.6868159,26.6488586 24.9782667,25.5611493 L25.0212243,25.4008297 C25.2854034,24.4148997 26.1675709,23.7595893 27.1392954,23.7399883 C26.0993444,23.324982 25.5111853,22.18808 25.8081423,21.0798215 L25.8510998,20.9195019 C26.1713843,19.7241836 27.4000232,19.0148287 28.5953414,19.3351132 L30.38536,19.8147473 C30.6059064,19.545354 30.8888384,19.320008 31.2253854,19.1628482 C31.2306974,19.1603677 31.2360184,19.1579066 31.2413484,19.1554651 L37.4622352,16.3058526 C38.4708191,15.8438489 39.608388,15.9962115 40.4469013,16.6129526 C41.252206,15.8299878 42.187506,15.7295042 43.2528013,16.3115018 L49.143411,19.0681104 C50.0049233,18.8403614 50.8454492,18.5907628 51.6649887,18.3193147 C52.7977194,17.9441321 54.0303958,18.4887594 54.5157335,19.5788457 C55.000422,20.6674738 54.5108322,21.9428988 53.4222042,22.4275872 L53.2102905,22.5219372 C54.0471462,22.577275 54.8186647,23.0857984 55.178767,23.8946014 C55.6634554,24.9832295 55.1738656,26.2586545 54.0852376,26.7433429 L53.8742242,26.8372921 C54.7110671,26.8926411 55.4825699,27.4011618 55.8426674,28.2099541 C56.3273558,29.2985822 55.8377661,30.5740072 54.749138,31.0586956 L54.6299615,31.1117564 C55.4410274,31.1193831 56.1987153,31.6177438 56.5021704,32.4170598 C56.7089032,32.9616042 56.6799375,33.5410296 56.4623442,34.0392183 L54.8276052,39.9970853 C54.6201455,40.6438847 53.7562901,41.1884478 52.2360389,41.6307747 C49.9556622,42.2942649 40.1426604,45.1479563 40.1426604,45.1479563 C36.7149819,47.0083515 33.5220558,49.3704919 30.5638823,52.2343774 C27.6080558,55.0959908 22.1575613,60.1740144 14.2123988,67.4684483 C20.9526659,73.7987464 30.0235017,77.6763485 40,77.6763485 C50.1320619,77.6763485 59.3299971,73.6768766 66.101199,67.1705395 C66.0800142,67.1275447 66.0703971,67.1109768 66.0269367,67.0711325 C59.5232758,61.0021948 55.2073236,56.929554 53.0790801,54.85321 C49.8867149,51.738694 47.4887802,49.5124024 45.8969918,48.4202565 C44.8357995,47.6921593 43.8272719,47.0189535 42.871409,46.4006391 C48.4611612,44.7390319 51.9355168,43.7164725 53.2944758,43.332961 C55.3329144,42.7576938 55.6552863,42.5051051 56.0867994,40.9362357 C56.3744747,39.8903228 56.6944183,38.7208718 57.04663,37.4278827 C58.6376744,38.8464063 60.8215144,40.4689186 63.59815,42.2954195 C66.3747857,44.1219204 70.5915003,46.7097621 76.2482941,50.0589446 C76.2869257,50.0824915 76.309602,50.0824915 76.3223988,50.0453173 C77.2048958,46.8472643 77.6763485,43.478689 77.6763485,40 C77.6763485,19.1919273 60.8080727,2.32365145 40,2.32365145 C19.1919273,2.32365145 2.32365145,19.1919273 2.32365145,40 C2.32365145,43.5643731 2.8186151,47.0131413 3.74355916,50.2813213 C3.8111717,50.2600039 3.8111717,50.2600039 3.88856658,50.2262221 C15.0522386,44.0525421 21.8267388,39.5749309 24.2120672,36.7933884 Z" id="Combined-Shape"></path>
        </g>
    </g>
</svg>