<?xml version="1.0" encoding="UTF-8"?>
<svg width="24px" height="22px" viewBox="0 0 24 22" version="1.1" xmlns="http://www.w3.org/2000/svg" xmlns:xlink="http://www.w3.org/1999/xlink">
    <!-- Generator: Sketch 54.1 (76490) - https://sketchapp.com -->
    <title>Path</title>
    <desc>Created with Sketch.</desc>
    <g id="Icons" stroke="none" stroke-width="1" fill="none" fill-rule="evenodd">
        <path d="M11.9937263,0 L15.3192203,0 L19.5016094,2.18974436 C20.3944796,2.51468344 21.2110072,3.49195025 21.951192,5.12154478 C22.6913768,6.75113931 23.3553302,8.16746262 23.9430521,9.3705147 C24.144668,9.84881736 23.8109398,10.3266408 22.9418676,10.8039849 C22.0727954,11.281329 21.1794803,11.6335328 20.2619225,11.8605961 L18.468064,9.904144 L18.468064,20.4390518 C16.3698038,21.4777216 14.2158737,21.9980377 12.0062737,21.9999999 C9.79228025,22.0002816 7.63416768,21.4799637 5.53193596,20.4393279 L5.53193596,9.90442011 L3.73807752,11.8608722 C2.82051965,11.6338089 1.92720462,11.2816052 1.05813241,10.804261 C0.189060213,10.3269169 -0.144667961,9.84909347 0.0569478933,9.37079081 C0.644669786,8.16773873 1.30862316,6.75141542 2.048808,5.12182089 C2.78899285,3.49222636 3.60552038,2.51495955 4.49839059,2.19002046 L8.68077971,0.000276107814 L11.9937263,0.000276107814 L11.9937263,0 Z" id="Path" fill="#FF7E00"></path>
    </g>
</svg>