<?xml version="1.0" encoding="UTF-8"?>
<svg width="62px" height="42px" viewBox="0 0 62 42" version="1.1" xmlns="http://www.w3.org/2000/svg" xmlns:xlink="http://www.w3.org/1999/xlink">
    <!-- Generator: Sketch 54.1 (76490) - https://sketchapp.com -->
    <title>Combined Shape</title>
    <desc>Created with Sketch.</desc>
    <defs>
        <linearGradient x1="-21.2663528%" y1="81.6747067%" x2="115.899607%" y2="22.1246115%" id="linearGradient-1">
            <stop stop-color="#FF9900" offset="0%"></stop>
            <stop stop-color="#F05A22" offset="100%"></stop>
        </linearGradient>
    </defs>
    <g id="Icons" stroke="none" stroke-width="1" fill="none" fill-rule="evenodd">
        <path d="M15.5610262,40.7968069 C15.237002,41.1113448 14.7600889,41.2712701 14.3324842,41.2470158 C13.7746105,41.2698579 13.2973105,41.1098508 12.9081309,40.7248649 L0.841668695,27.1286095 C0.133320364,26.429871 0.116529001,25.3396783 0.809719854,24.6577621 C1.49469556,23.9837643 2.60616301,23.9837492 3.32372118,24.691959 L12.551224,35.0858649 L12.551224,11.0474734 C12.551224,10.0823705 13.3335945,9.3 14.2986973,9.3 C15.2638002,9.3 16.0461707,10.0823705 16.0461707,11.0474734 L16.0461707,35.0246303 L25.2842406,24.6219994 C25.945637,23.9751702 27.0559012,23.9929247 27.7317223,24.6577273 C28.4106275,25.3256975 28.4160431,26.4022029 27.7479821,27.0752373 L15.5610262,40.7968069 Z M14.2,0 C15.3045695,0 16.2,0.8954305 16.2,2 C16.2,3.1045695 15.3045695,4 14.2,4 C13.0954305,4 12.2,3.1045695 12.2,2 C12.2,0.8954305 13.0954305,0 14.2,0 Z M48.5610262,1.20319312 L60.7479821,14.9247627 C61.4160431,15.5977971 61.4106275,16.6743025 60.7317223,17.3422727 C60.0559012,18.0070753 58.945637,18.0248298 58.2842406,17.3780006 L49.0461707,6.97536965 L49.0461707,30.9525266 C49.0461707,31.9176295 48.2638002,32.7 47.2986973,32.7 C46.3335945,32.7 45.551224,31.9176295 45.551224,30.9525266 L45.551224,6.91413514 L36.3237212,17.308041 C35.606163,18.0162508 34.4946956,18.0162357 33.8097199,17.3422379 C33.116529,16.6603217 33.1333204,15.570129 33.8416687,14.8713905 L45.9081309,1.2751351 C46.2973105,0.890149163 46.7746105,0.730142144 47.3324842,0.752984235 C47.7600889,0.728729868 48.237002,0.888655156 48.5610262,1.20319312 Z M47.2,42 C46.0954305,42 45.2,41.1045695 45.2,40 C45.2,38.8954305 46.0954305,38 47.2,38 C48.3045695,38 49.2,38.8954305 49.2,40 C49.2,41.1045695 48.3045695,42 47.2,42 Z" id="Combined-Shape" fill="url(#linearGradient-1)"></path>
    </g>
</svg>