<?xml version="1.0" encoding="UTF-8"?>
<svg width="45px" height="42px" viewBox="0 0 45 42" version="1.1" xmlns="http://www.w3.org/2000/svg" xmlns:xlink="http://www.w3.org/1999/xlink">
    <!-- Generator: Sketch 54.1 (76490) - https://sketchapp.com -->
    <title>Path</title>
    <desc>Created with Sketch.</desc>
    <defs>
        <linearGradient x1="50%" y1="0%" x2="50%" y2="100%" id="linearGradient-1">
            <stop stop-color="#FF9900" offset="0%"></stop>
            <stop stop-color="#F05A22" offset="100%"></stop>
        </linearGradient>
    </defs>
    <g id="Icons" stroke="none" stroke-width="1" fill="none" fill-rule="evenodd">
        <path d="M28.723538,0 L36.5655176,4.18042104 C38.2396493,4.80075929 39.7706384,6.66645047 41.158485,9.77749458 C42.5463316,12.8885387 43.7912442,15.5924286 44.8932227,17.8891644 C45.2712524,18.8022877 44.6455121,19.714496 43.0160017,20.6257894 C42.0525673,21.164584 40.6261641,21.7543926 38.7367923,22.3952153 L38.7367912,22.3952121 C38.2864806,22.5479449 37.7884748,22.4179419 37.4702757,22.0645918 L34.6276201,18.9079113 C34.6276201,21.3921662 34.6276201,23.2553573 34.6276201,24.4974848 C34.6276201,27.7247121 34.6276201,32.5655532 34.6276201,39.0200079 C30.6933822,41.0029231 26.6547632,41.9962537 22.5117631,41.9999998 C18.3605255,42.0005375 14.3140644,41.0072034 10.3723799,39.0205351 L10.3723799,18.9084384 L7.52973133,22.0651193 C7.21152991,22.418472 6.7135203,22.548476 6.26320637,22.395742 C4.3738352,21.7549195 2.9474325,21.165111 1.98399828,20.6263165 C0.354487899,19.7150231 -0.271252427,18.8028148 0.1067773,17.8896915 C1.20875585,15.5929558 2.45366842,12.8890658 3.841515,9.7780217 C5.22936159,6.66697759 6.76035071,4.80128641 8.43448236,4.18094816 L16.276462,0.000527114917 L22.4882369,0.000527114917 L28.723538,0 Z M22.4882369,2.76052711 L16.9491797,2.76052711 L9.5411555,6.70961419 L9.36987045,6.77308271 C8.53065792,7.08404728 7.43877652,8.41463382 6.32339251,10.9149165 C5.12797778,13.5945988 4.03662524,15.9770188 3.04882177,18.0630603 C3.12433915,18.1092906 3.20806871,18.1584508 3.30004284,18.2098867 C4.23608402,18.7333618 5.18478483,19.1648598 6.14738891,19.5055772 L8.94748211,16.3961609 C9.8270754,15.4194 11.3319478,15.34063 12.3087088,16.2202233 C12.8099008,16.671557 13.0960641,17.314346 13.0960641,17.9888055 L13.0960641,37.2550035 C16.179681,38.5821548 19.3116458,39.2404144 22.5093328,39.2400009 C25.7017987,39.2371143 28.8271407,38.5786848 31.9039359,37.2544752 L31.9039359,17.9882784 C31.9039359,16.6738407 32.9694981,15.6082785 34.2839357,15.6082785 C34.9583952,15.6082785 35.6011842,15.8944418 36.0525179,16.3956338 L38.8526111,19.5050501 C39.8152152,19.1643326 40.763916,18.7328347 41.6999572,18.2093596 C41.7919313,18.1579236 41.8756608,18.1087635 41.9511782,18.0625332 C40.9633748,15.9764917 39.8720222,13.5940717 38.6766075,10.9143894 C37.5612235,8.41410671 36.4693421,7.08352017 35.6301295,6.7725556 L35.4588445,6.70908707 L28.050927,2.76005687 L22.4882369,2.76052711 Z" id="Path" fill="url(#linearGradient-1)" fill-rule="nonzero"></path>
    </g>
</svg>