<?xml version="1.0" encoding="UTF-8"?>
<svg width="68px" height="37px" viewBox="0 0 68 37" version="1.1" xmlns="http://www.w3.org/2000/svg" xmlns:xlink="http://www.w3.org/1999/xlink">
    <!-- Generator: Sketch 54.1 (76490) - https://sketchapp.com -->
    <title>Group 3</title>
    <desc>Created with Sketch.</desc>
    <defs>
        <linearGradient x1="50%" y1="0%" x2="50%" y2="100%" id="linearGradient-1">
            <stop stop-color="#FF9900" offset="0%"></stop>
            <stop stop-color="#F05A22" offset="100%"></stop>
        </linearGradient>
    </defs>
    <g id="Icons" stroke="none" stroke-width="1" fill="none" fill-rule="evenodd">
        <g id="Group-3" transform="translate(2.000000, 2.000000)">
            <path d="M46.715,23 L46.715,21.308 L49.271,21.308 L49.271,13.784 L47.165,13.784 L47.165,12.488 C47.7410029,12.3799995 48.2359979,12.2510008 48.65,12.101 C49.0640021,11.9509992 49.4509982,11.7680011 49.811,11.552 L51.359,11.552 L51.359,21.308 L53.609,21.308 L53.609,23 L46.715,23 Z" id="1" fill="#FF7E00" fill-rule="nonzero"></path>
            <path d="M10.067,23 L10.067,21.794 C10.859004,21.0259962 11.5759968,20.3180032 12.218,19.67 C12.8600032,19.0219968 13.4059978,18.4220028 13.856,17.87 C14.3060023,17.3179972 14.6509988,16.8020024 14.891,16.322 C15.1310012,15.8419976 15.251,15.3860022 15.251,14.954 C15.251,14.3419969 15.0890016,13.8590018 14.765,13.505 C14.4409984,13.1509982 13.9730031,12.974 13.361,12.974 C12.9169978,12.974 12.5120018,13.0999987 12.146,13.352 C11.7799982,13.6040013 11.4410016,13.9039983 11.129,14.252 L9.977,13.1 C10.5050026,12.5359972 11.0479972,12.1010015 11.606,11.795 C12.1640028,11.4889985 12.838996,11.336 13.631,11.336 C14.1830028,11.336 14.6809978,11.4199992 15.125,11.588 C15.5690022,11.7560008 15.9469984,11.9929985 16.259,12.299 C16.5710016,12.6050015 16.8139991,12.9739978 16.988,13.406 C17.1620009,13.8380022 17.249,14.3179974 17.249,14.846 C17.249,15.3500025 17.1380011,15.8629974 16.916,16.385 C16.6939989,16.9070026 16.3940019,17.4349973 16.016,17.969 C15.6379981,18.5030027 15.1970025,19.0519972 14.693,19.616 C14.1889975,20.1800028 13.6550028,20.761997 13.091,21.362 C13.3910015,21.3379999 13.7149983,21.3110001 14.063,21.281 C14.4110017,21.2509998 14.7229986,21.236 14.999,21.236 L17.807,21.236 L17.807,23 L10.067,23 Z" id="2" fill="#FF7E00" fill-rule="nonzero"></path>
            <rect id="Rectangle" stroke="url(#linearGradient-1)" stroke-width="2.5" x="0" y="0" width="28" height="33" rx="1"></rect>
            <rect id="Rectangle-Copy" stroke="url(#linearGradient-1)" stroke-width="2.5" x="36" y="0" width="28" height="33" rx="1"></rect>
        </g>
    </g>
</svg>