<?xml version="1.0" encoding="UTF-8"?>
<svg width="43px" height="21px" viewBox="0 0 43 21" version="1.1" xmlns="http://www.w3.org/2000/svg" xmlns:xlink="http://www.w3.org/1999/xlink">
    <!-- Generator: Sketch 54.1 (76490) - https://sketchapp.com -->
    <title>shape</title>
    <desc>Created with Sketch.</desc>
    <defs>
        <linearGradient x1="60.7156448%" y1="-22.2374174%" x2="60.7156448%" y2="104.826723%" id="linearGradient-1">
            <stop stop-color="#FF9900" offset="0%"></stop>
            <stop stop-color="#F05A22" offset="100%"></stop>
        </linearGradient>
    </defs>
    <g id="Icons" stroke="none" stroke-width="1" fill="none" fill-rule="evenodd">
        <path d="M32.8422279,20.6163998 C27.2322453,20.6163998 22.6844558,16.1416514 22.6844558,10.6217695 C22.6844558,5.10188764 27.2322453,0.627139261 32.8422279,0.627139261 C38.4522105,0.627139261 43,5.10188764 43,10.6217695 C43,16.1416514 38.4522105,20.6163998 32.8422279,20.6163998 Z M36.8968315,17.1241727 C36.9651603,17.0236041 37.0625279,16.9454695 37.1763906,16.899835 L39.9153418,15.8021026 C40.4845375,14.6785722 40.8534187,13.8201977 41.0199577,13.2399053 C41.1861447,12.6608389 41.3278593,11.8021143 41.4411587,10.6720623 L40.0532121,8.84317239 C39.9815128,8.74869455 39.9393966,8.63568062 39.9320294,8.51799243 L39.7452062,5.53357533 C38.8641887,4.6387431 38.1709535,4.01879181 37.6778644,3.68018132 C37.1890437,3.34450198 36.4323695,2.9462546 35.4144961,2.49192284 L33.280173,3.25619585 C33.1622911,3.29840779 33.0341165,3.30417824 32.9128095,3.27273463 L30.0636293,2.53420727 C28.9558784,3.10220174 28.1626679,3.57511475 27.6934397,3.94337788 C27.224245,4.31161472 26.612067,4.9203767 25.8653387,5.76502319 L25.92511,8.07131665 C25.9281566,8.18887243 25.8963612,8.30475905 25.8336035,8.40483559 L24.2499706,10.9301752 C24.442985,12.1814122 24.6439811,13.0978207 24.8469908,13.6674294 C25.0485459,14.2329566 25.4314461,15.008995 25.9941212,15.9866587 L28.6755773,16.7897359 C28.793723,16.8251197 28.8983219,16.8946485 28.9757828,16.989288 L30.5860659,18.9566853 C31.7856802,19.1511871 32.682102,19.2380499 33.2615497,19.2194476 C33.8385311,19.2009246 34.6640397,19.076119 35.7285218,18.8437304 L36.8968315,17.1241727 Z M36.8150865,12.469389 C36.8277683,13.656751 36.0414336,14.6740833 34.9436555,15.0398867 L34.9556601,16.166009 L33.481121,16.1808495 L33.4705938,15.1911388 L32.5719081,15.2001643 L32.5824352,16.1898144 L31.1078961,16.2046549 L31.0973689,15.2149442 L29.863292,15.2273012 L29.7641152,5.90800508 L30.9981921,5.89561173 L30.987665,4.9059071 L32.4622041,4.89110899 L32.4727313,5.88081362 L33.3714171,5.87179423 L33.3608899,4.88208354 L34.835429,4.86728543 L34.8474337,5.99343796 C35.9527224,6.33713815 36.7605423,7.33846684 36.7731626,8.52581075 C36.7814119,9.30430158 36.4460208,10.0096802 35.9048885,10.5065042 C36.4564863,10.9923643 36.8068371,11.6908981 36.8150865,12.469389 Z M31.3031715,11.2550136 L31.3298896,13.7663916 L34.0686096,13.7388912 C34.7814389,13.7317435 35.3553223,13.1625948 35.3479964,12.4702395 C35.3406089,11.7778842 34.7547209,11.2203655 34.04183,11.2275738 L31.3031715,11.2550136 Z M34.04183,7.29029418 L31.3031715,7.31779456 L31.3298896,9.82911199 L34.068548,9.80161161 C34.7813774,9.79446394 35.3553223,9.22537575 35.3479348,8.53295988 C35.3406089,7.84060458 34.7546594,7.28314045 34.04183,7.29029418 Z M18.3627484,20.6163998 C15.6650806,20.1030217 11.1309969,18.9555782 8.1276867,16.2759523 C13.4529312,17.2406844 15.7436612,16.0215234 15.0910015,13.8759438 C14.4383419,11.7303641 10.0759686,14.0562349 7.16105493,14.0562349 C4.24614129,14.0562349 1.48219738,12.5224562 2.27373675e-13,9.22415287 C4.82540415,10.8899475 14.5923618,8.32061251 16.2533568,6.13347627 C17.9117375,3.94978238 13.8961286,2.88934225 5.83060558,6.13347627 C8.68030001,1.46550986 13.0028869,-0.953508182 27.7922571,0.351251305 C25.458884,1.35290986 23.4508898,3.12657943 22.2049168,5.5326647 C19.3493255,11.0470671 21.5776862,17.7951083 27.1820999,20.6048366 C25.0386704,21.1297778 21.0604163,21.1297778 18.3627484,20.6163998 Z" id="shape" fill="url(#linearGradient-1)"></path>
    </g>
</svg>