<?xml version="1.0" encoding="UTF-8"?>
<svg width="179px" height="21px" viewBox="0 0 179 21" version="1.1" xmlns="http://www.w3.org/2000/svg" xmlns:xlink="http://www.w3.org/1999/xlink">
    <!-- Generator: Sketch 54.1 (76490) - https://sketchapp.com -->
    <title>dark-full</title>
    <desc>Created with Sketch.</desc>
    <defs>
        <linearGradient x1="60.7156448%" y1="-22.2374174%" x2="60.7156448%" y2="104.826723%" id="linearGradient-1">
            <stop stop-color="#FF9900" offset="0%"></stop>
            <stop stop-color="#F05A22" offset="100%"></stop>
        </linearGradient>
    </defs>
    <g id="Icons" stroke="none" stroke-width="1" fill="none" fill-rule="evenodd">
        <g id="dark-full">
            <g id="GUESSGOALS" transform="translate(46.911371, 3.997993)" fill-rule="nonzero">
                <path d="M6.19464883,15.2548495 C4.18594313,15.2548495 2.6513431,14.801844 1.59080268,13.8958194 C0.530262256,12.9897948 -5.68434189e-14,11.6518483 -5.68434189e-14,9.8819398 L-5.68434189e-14,5.3729097 C-5.68434189e-14,3.60300118 0.530262256,2.2650547 1.59080268,1.3590301 C2.6513431,0.453005503 4.18594313,1.17239551e-13 6.19464883,1.17239551e-13 C7.64147881,1.17239551e-13 8.82491179,0.231770258 9.74498328,0.695317726 C10.6650548,1.15886519 11.3919706,1.84715263 11.9257525,2.76020067 L9.67123746,4.29832776 C9.23578378,3.59598311 8.77224326,3.09030255 8.28060201,2.7812709 C7.78896075,2.47223926 7.09364998,2.31772575 6.19464883,2.31772575 C5.07089739,2.31772575 4.25267815,2.5740777 3.73996656,3.0867893 C3.22725496,3.59950089 2.97090301,4.3615334 2.97090301,5.3729097 L2.97090301,9.8819398 C2.97090301,10.8933161 3.22725496,11.6553486 3.73996656,12.1680602 C4.25267815,12.6807718 5.07089739,12.9371237 6.19464883,12.9371237 C7.17793134,12.9371237 7.92591717,12.7720752 8.43862876,12.4419732 C8.95134036,12.1118713 9.20769231,11.6307724 9.20769231,10.9986622 L9.20769231,10.3454849 C9.20769231,9.47457759 8.80736186,9.03913043 8.00668896,9.03913043 L5.60468227,9.03913043 L5.60468227,6.72140468 L8.84949833,6.72140468 C9.97324977,6.72140468 10.802004,6.9812683 11.335786,7.50100334 C11.8695679,8.02073838 12.1364548,8.82842262 12.1364548,9.92408027 L12.1364548,11.2093645 C12.1364548,12.4735849 11.6026809,13.463876 10.5351171,14.1802676 C9.46755319,14.8966591 8.02074492,15.2548495 6.19464883,15.2548495 Z M20.1431438,15.2759197 C18.2187195,15.2759197 16.7648879,14.8650543 15.7816054,14.043311 C14.7983228,13.2215678 14.306689,12.0802749 14.306689,10.619398 L14.306689,0.252842809 L17.277592,0.252842809 L17.277592,10.619398 C17.277592,12.1786031 18.2327664,12.958194 20.1431438,12.958194 C22.0535213,12.958194 23.0086957,12.1786031 23.0086957,10.619398 L23.0086957,0.252842809 L25.9795987,0.252842809 L25.9795987,10.619398 C25.9795987,12.0802749 25.4879648,13.2215678 24.5046823,14.043311 C23.5213998,14.8650543 22.0675682,15.2759197 20.1431438,15.2759197 Z M33.6070234,15.0020067 C31.7387866,15.0020067 30.3973285,14.6086996 29.5826087,13.8220736 C28.7678889,13.0354476 28.3605351,11.8976663 28.3605351,10.4086957 L28.3605351,4.84615385 C28.3605351,3.35718319 28.7678889,2.21940193 29.5826087,1.43277592 C30.3973285,0.646149913 31.7387866,0.252842809 33.6070234,0.252842809 L38.5374582,0.252842809 L38.5374582,2.57056856 L33.6070234,2.57056856 C32.8344443,2.57056856 32.262042,2.75317543 31.8897993,3.11839465 C31.5175567,3.48361387 31.3314381,4.05952784 31.3314381,4.84615385 L31.3314381,6.46856187 L37.6103679,6.46856187 L37.6103679,8.78628763 L31.3314381,8.78628763 L31.3314381,10.4086957 C31.3314381,11.1812748 31.5175567,11.7536771 31.8897993,12.1259197 C32.262042,12.4981624 32.8344443,12.6842809 33.6070234,12.6842809 L38.5795987,12.6842809 L38.5795987,15.0020067 L33.6070234,15.0020067 Z M45.7434783,15.2548495 C44.732102,15.2548495 43.8857894,15.142476 43.2045151,14.9177258 C42.5232407,14.6929755 41.9508384,14.3839485 41.487291,13.9906355 C41.0237435,13.5973224 40.5461563,13.0705719 40.0545151,12.4103679 L42.0561873,10.7458194 C42.6321099,11.5464923 43.1904655,12.1118713 43.7312709,12.4419732 C44.2720763,12.7720752 44.9428054,12.9371237 45.7434783,12.9371237 C46.8531828,12.9371237 47.660867,12.7755869 48.1665552,12.4525084 C48.6722433,12.1294298 48.9250836,11.6097026 48.9250836,10.893311 C48.9250836,10.5280918 48.8056868,10.2295998 48.5668896,9.99782609 C48.3280925,9.76605235 47.917227,9.55184045 47.3342809,9.35518395 C46.7513349,9.15852744 45.8839522,8.94080387 44.732107,8.70200669 C43.3836053,8.42106883 42.3827792,7.91889994 41.7295987,7.19548495 C41.0764181,6.47206996 40.7498328,5.50636056 40.7498328,4.29832776 C40.7498328,3.42742039 40.971068,2.66889955 41.4135452,2.02274247 C41.8560223,1.3765854 42.4846113,0.877928177 43.2993311,0.526755853 C44.1140509,0.175583528 45.0622019,1.17239551e-13 46.1438127,1.17239551e-13 C47.548502,1.17239551e-13 48.6652132,0.207188564 49.4939799,0.621571906 C50.3227466,1.03595525 50.9969874,1.64347426 51.5167224,2.44414716 L49.5571906,4.04548495 C49.121737,3.61003127 48.7600349,3.27642256 48.4720736,3.04464883 C48.1841123,2.8128751 47.8575269,2.6337799 47.4923077,2.50735786 C47.1270885,2.38093582 46.6775946,2.31772575 46.1438127,2.31772575 C45.3431398,2.31772575 44.7391325,2.49330928 44.3317726,2.84448161 C43.9244127,3.19565393 43.7207358,3.70133449 43.7207358,4.36153846 C43.7207358,4.97960175 43.9805994,5.43260726 44.5003344,5.72056856 C45.0200695,6.00852987 45.6872869,6.2438118 46.5020067,6.4264214 C47.7100395,6.67926548 48.6722372,6.9391291 49.3886288,7.20602007 C50.1050203,7.47291103 50.7020043,7.90133484 51.1795987,8.49130435 C51.657193,9.08127385 51.8959866,9.88895808 51.8959866,10.9143813 C51.8959866,12.3752581 51.3867944,13.463876 50.3683946,14.1802676 C49.3499949,14.8966591 47.8083715,15.2548495 45.7434783,15.2548495 Z M59.1020067,15.2548495 C58.0906304,15.2548495 57.2443178,15.142476 56.5630435,14.9177258 C55.8817692,14.6929755 55.3093669,14.3839485 54.8458194,13.9906355 C54.3822719,13.5973224 53.9046847,13.0705719 53.4130435,12.4103679 L55.4147157,10.7458194 C55.9906383,11.5464923 56.548994,12.1118713 57.0897993,12.4419732 C57.6306047,12.7720752 58.3013338,12.9371237 59.1020067,12.9371237 C60.2117112,12.9371237 61.0193955,12.7755869 61.5250836,12.4525084 C62.0307718,12.1294298 62.283612,11.6097026 62.283612,10.893311 C62.283612,10.5280918 62.1642152,10.2295998 61.9254181,9.99782609 C61.6866209,9.76605235 61.2757554,9.55184045 60.6928094,9.35518395 C60.1098633,9.15852744 59.2424807,8.94080387 58.0906355,8.70200669 C56.7421337,8.42106883 55.7413076,7.91889994 55.0881271,7.19548495 C54.4349466,6.47206996 54.1083612,5.50636056 54.1083612,4.29832776 C54.1083612,3.42742039 54.3295964,2.66889955 54.7720736,2.02274247 C55.2145507,1.3765854 55.8431397,0.877928177 56.6578595,0.526755853 C57.4725793,0.175583528 58.4207304,1.17239551e-13 59.5023411,1.17239551e-13 C60.9070304,1.17239551e-13 62.0237417,0.207188564 62.8525084,0.621571906 C63.681275,1.03595525 64.3555158,1.64347426 64.8752508,2.44414716 L62.9157191,4.04548495 C62.4802654,3.61003127 62.1185633,3.27642256 61.830602,3.04464883 C61.5426407,2.8128751 61.2160553,2.6337799 60.8508361,2.50735786 C60.4856169,2.38093582 60.0361231,2.31772575 59.5023411,2.31772575 C58.7016682,2.31772575 58.0976609,2.49330928 57.690301,2.84448161 C57.2829411,3.19565393 57.0792642,3.70133449 57.0792642,4.36153846 C57.0792642,4.97960175 57.3391278,5.43260726 57.8588629,5.72056856 C58.3785979,6.00852987 59.0458153,6.2438118 59.8605351,6.4264214 C61.0685679,6.67926548 62.0307656,6.9391291 62.7471572,7.20602007 C63.4635487,7.47291103 64.0605327,7.90133484 64.5381271,8.49130435 C65.0157215,9.08127385 65.2545151,9.88895808 65.2545151,10.9143813 C65.2545151,12.3752581 64.7453228,13.463876 63.7269231,14.1802676 C62.7085233,14.8966591 61.1669,15.2548495 59.1020067,15.2548495 Z" id="GUESS" fill="#FFFFFF"></path>
                <path d="M73.1769231,15.2548495 C71.1682174,15.2548495 69.6336173,14.801844 68.5730769,13.8958194 C67.5125365,12.9897948 66.9822742,11.6518483 66.9822742,9.8819398 L66.9822742,5.3729097 C66.9822742,3.60300118 67.5125365,2.2650547 68.5730769,1.3590301 C69.6336173,0.453005503 71.1682174,1.11910481e-13 73.1769231,1.11910481e-13 C74.6237531,1.11910481e-13 75.807186,0.231770258 76.7272575,0.695317726 C77.647329,1.15886519 78.3742448,1.84715263 78.9080268,2.76020067 L76.6535117,4.29832776 C76.218058,3.59598311 75.7545175,3.09030255 75.2628763,2.7812709 C74.771235,2.47223926 74.0759242,2.31772575 73.1769231,2.31772575 C72.0531716,2.31772575 71.2349524,2.5740777 70.7222408,3.0867893 C70.2095292,3.59950089 69.9531773,4.3615334 69.9531773,5.3729097 L69.9531773,9.8819398 C69.9531773,10.8933161 70.2095292,11.6553486 70.7222408,12.1680602 C71.2349524,12.6807718 72.0531716,12.9371237 73.1769231,12.9371237 C74.1602056,12.9371237 74.9081914,12.7720752 75.420903,12.4419732 C75.9336146,12.1118713 76.1899666,11.6307724 76.1899666,10.9986622 L76.1899666,10.3454849 C76.1899666,9.47457759 75.7896361,9.03913043 74.9889632,9.03913043 L72.5869565,9.03913043 L72.5869565,6.72140468 L75.8317726,6.72140468 C76.955524,6.72140468 77.7842783,6.9812683 78.3180602,7.50100334 C78.8518421,8.02073838 79.1187291,8.82842262 79.1187291,9.92408027 L79.1187291,11.2093645 C79.1187291,12.4735849 78.5849552,13.463876 77.5173913,14.1802676 C76.4498274,14.8966591 75.0030192,15.2548495 73.1769231,15.2548495 Z M87.209699,15.2548495 C85.2571809,15.2548495 83.7647209,14.801844 82.7322742,13.8958194 C81.6998276,12.9897948 81.183612,11.6518483 81.183612,9.8819398 L81.183612,5.3729097 C81.183612,3.60300118 81.6998276,2.2650547 82.7322742,1.3590301 C83.7647209,0.453005503 85.2571809,1.11910481e-13 87.209699,1.11910481e-13 C89.1622171,1.11910481e-13 90.6546771,0.453005503 91.6871237,1.3590301 C92.7195704,2.2650547 93.235786,3.60300118 93.235786,5.3729097 L93.235786,9.8819398 C93.235786,11.6518483 92.7195704,12.9897948 91.6871237,13.8958194 C90.6546771,14.801844 89.1622171,15.2548495 87.209699,15.2548495 Z M87.209699,12.9371237 C88.1929815,12.9371237 88.9479907,12.6737485 89.4747492,12.14699 C90.0015077,11.6202315 90.2648829,10.8652223 90.2648829,9.8819398 L90.2648829,5.3729097 C90.2648829,4.38962719 90.0015077,3.63461802 89.4747492,3.10785953 C88.9479907,2.58110105 88.1929815,2.31772575 87.209699,2.31772575 C86.2264165,2.31772575 85.4714073,2.58110105 84.9446488,3.10785953 C84.4178903,3.63461802 84.1545151,4.38962719 84.1545151,5.3729097 L84.1545151,9.8819398 C84.1545151,10.8652223 84.4178903,11.6202315 84.9446488,12.14699 C85.4714073,12.6737485 86.2264165,12.9371237 87.209699,12.9371237 Z M103.813043,11.5675585 L98.0397993,11.5675585 L97.0494983,15.0020067 L94.0785953,15.0020067 L97.6816054,3.24481605 C97.9344494,2.40200247 98.2013364,1.74883175 98.4822742,1.28528428 C98.7632121,0.821736813 99.0968208,0.491639779 99.4831104,0.294983278 C99.8693999,0.0983267759 100.350499,1.11910481e-13 100.926421,1.11910481e-13 C101.502344,1.11910481e-13 101.979931,0.0983267759 102.359197,0.294983278 C102.738463,0.491639779 103.072072,0.821736813 103.360033,1.28528428 C103.647995,1.74883175 103.918393,2.40200247 104.171237,3.24481605 L107.774247,15.0020067 L104.803344,15.0020067 L103.813043,11.5675585 Z M103.159866,9.35518395 L101.389967,3.28695652 C101.291638,2.9217373 101.137125,2.73913043 100.926421,2.73913043 C100.715718,2.73913043 100.561205,2.9217373 100.462876,3.28695652 L98.6929766,9.35518395 L103.159866,9.35518395 Z M114.074247,15.0020067 C112.276245,15.0020067 110.987462,14.6086996 110.20786,13.8220736 C109.428257,13.0354476 109.038462,11.8976663 109.038462,10.4086957 L109.038462,0.252842809 L112.009365,0.252842809 L112.009365,10.4086957 C112.009365,11.1812748 112.177925,11.7536771 112.51505,12.1259197 C112.852176,12.4981624 113.371903,12.6842809 114.074247,12.6842809 L118.79398,12.6842809 L118.79398,15.0020067 L114.074247,15.0020067 Z M125.747157,15.2548495 C124.735781,15.2548495 123.889468,15.142476 123.208194,14.9177258 C122.52692,14.6929755 121.954517,14.3839485 121.49097,13.9906355 C121.027422,13.5973224 120.549835,13.0705719 120.058194,12.4103679 L122.059866,10.7458194 C122.635789,11.5464923 123.194144,12.1118713 123.73495,12.4419732 C124.275755,12.7720752 124.946484,12.9371237 125.747157,12.9371237 C126.856862,12.9371237 127.664546,12.7755869 128.170234,12.4525084 C128.675922,12.1294298 128.928763,11.6097026 128.928763,10.893311 C128.928763,10.5280918 128.809366,10.2295998 128.570569,9.99782609 C128.331771,9.76605235 127.920906,9.55184045 127.33796,9.35518395 C126.755014,9.15852744 125.887631,8.94080387 124.735786,8.70200669 C123.387284,8.42106883 122.386458,7.91889994 121.733278,7.19548495 C121.080097,6.47206996 120.753512,5.50636056 120.753512,4.29832776 C120.753512,3.42742039 120.974747,2.66889955 121.417224,2.02274247 C121.859701,1.3765854 122.48829,0.877928177 123.30301,0.526755853 C124.11773,0.175583528 125.065881,1.11910481e-13 126.147492,1.11910481e-13 C127.552181,1.11910481e-13 128.668892,0.207188564 129.497659,0.621571906 C130.326426,1.03595525 131.000666,1.64347426 131.520401,2.44414716 L129.56087,4.04548495 C129.125416,3.61003127 128.763714,3.27642256 128.475753,3.04464883 C128.187791,2.8128751 127.861206,2.6337799 127.495987,2.50735786 C127.130767,2.38093582 126.681274,2.31772575 126.147492,2.31772575 C125.346819,2.31772575 124.742811,2.49330928 124.335452,2.84448161 C123.928092,3.19565393 123.724415,3.70133449 123.724415,4.36153846 C123.724415,4.97960175 123.984278,5.43260726 124.504013,5.72056856 C125.023748,6.00852987 125.690966,6.2438118 126.505686,6.4264214 C127.713718,6.67926548 128.675916,6.9391291 129.392308,7.20602007 C130.108699,7.47291103 130.705683,7.90133484 131.183278,8.49130435 C131.660872,9.08127385 131.899666,9.88895808 131.899666,10.9143813 C131.899666,12.3752581 131.390473,13.463876 130.372074,14.1802676 C129.353674,14.8966591 127.81205,15.2548495 125.747157,15.2548495 Z" id="GOALS" fill="#FF7E00"></path>
            </g>
            <path d="M32.8422279,20.6163998 C27.2322453,20.6163998 22.6844558,16.1416514 22.6844558,10.6217695 C22.6844558,5.10188764 27.2322453,0.627139261 32.8422279,0.627139261 C38.4522105,0.627139261 43,5.10188764 43,10.6217695 C43,16.1416514 38.4522105,20.6163998 32.8422279,20.6163998 Z M36.8968315,17.1241727 C36.9651603,17.0236041 37.0625279,16.9454695 37.1763906,16.899835 L39.9153418,15.8021026 C40.4845375,14.6785722 40.8534187,13.8201977 41.0199577,13.2399053 C41.1861447,12.6608389 41.3278593,11.8021143 41.4411587,10.6720623 L40.0532121,8.84317239 C39.9815128,8.74869455 39.9393966,8.63568062 39.9320294,8.51799243 L39.7452062,5.53357533 C38.8641887,4.6387431 38.1709535,4.01879181 37.6778644,3.68018132 C37.1890437,3.34450198 36.4323695,2.9462546 35.4144961,2.49192284 L33.280173,3.25619585 C33.1622911,3.29840779 33.0341165,3.30417824 32.9128095,3.27273463 L30.0636293,2.53420727 C28.9558784,3.10220174 28.1626679,3.57511475 27.6934397,3.94337788 C27.224245,4.31161472 26.612067,4.9203767 25.8653387,5.76502319 L25.92511,8.07131665 C25.9281566,8.18887243 25.8963612,8.30475905 25.8336035,8.40483559 L24.2499706,10.9301752 C24.442985,12.1814122 24.6439811,13.0978207 24.8469908,13.6674294 C25.0485459,14.2329566 25.4314461,15.008995 25.9941212,15.9866587 L28.6755773,16.7897359 C28.793723,16.8251197 28.8983219,16.8946485 28.9757828,16.989288 L30.5860659,18.9566853 C31.7856802,19.1511871 32.682102,19.2380499 33.2615497,19.2194476 C33.8385311,19.2009246 34.6640397,19.076119 35.7285218,18.8437304 L36.8968315,17.1241727 Z M36.8150865,12.469389 C36.8277683,13.656751 36.0414336,14.6740833 34.9436555,15.0398867 L34.9556601,16.166009 L33.481121,16.1808495 L33.4705938,15.1911388 L32.5719081,15.2001643 L32.5824352,16.1898144 L31.1078961,16.2046549 L31.0973689,15.2149442 L29.863292,15.2273012 L29.7641152,5.90800508 L30.9981921,5.89561173 L30.987665,4.9059071 L32.4622041,4.89110899 L32.4727313,5.88081362 L33.3714171,5.87179423 L33.3608899,4.88208354 L34.835429,4.86728543 L34.8474337,5.99343796 C35.9527224,6.33713815 36.7605423,7.33846684 36.7731626,8.52581075 C36.7814119,9.30430158 36.4460208,10.0096802 35.9048885,10.5065042 C36.4564863,10.9923643 36.8068371,11.6908981 36.8150865,12.469389 Z M31.3031715,11.2550136 L31.3298896,13.7663916 L34.0686096,13.7388912 C34.7814389,13.7317435 35.3553223,13.1625948 35.3479964,12.4702395 C35.3406089,11.7778842 34.7547209,11.2203655 34.04183,11.2275738 L31.3031715,11.2550136 Z M34.04183,7.29029418 L31.3031715,7.31779456 L31.3298896,9.82911199 L34.068548,9.80161161 C34.7813774,9.79446394 35.3553223,9.22537575 35.3479348,8.53295988 C35.3406089,7.84060458 34.7546594,7.28314045 34.04183,7.29029418 Z M18.3627484,20.6163998 C15.6650806,20.1030217 11.1309969,18.9555782 8.1276867,16.2759523 C13.4529312,17.2406844 15.7436612,16.0215234 15.0910015,13.8759438 C14.4383419,11.7303641 10.0759686,14.0562349 7.16105493,14.0562349 C4.24614129,14.0562349 1.48219738,12.5224562 2.27373675e-13,9.22415287 C4.82540415,10.8899475 14.5923618,8.32061251 16.2533568,6.13347627 C17.9117375,3.94978238 13.8961286,2.88934225 5.83060558,6.13347627 C8.68030001,1.46550986 13.0028869,-0.953508182 27.7922571,0.351251305 C25.458884,1.35290986 23.4508898,3.12657943 22.2049168,5.5326647 C19.3493255,11.0470671 21.5776862,17.7951083 27.1820999,20.6048366 C25.0386704,21.1297778 21.0604163,21.1297778 18.3627484,20.6163998 Z" id="Shape-Copy-6" fill="url(#linearGradient-1)"></path>
        </g>
    </g>
</svg>