<?xml version="1.0" encoding="UTF-8"?>
<svg width="144px" height="144px" viewBox="0 0 144 144" version="1.1" xmlns="http://www.w3.org/2000/svg" xmlns:xlink="http://www.w3.org/1999/xlink">
    <!-- Generator: Sketch 54.1 (76490) - https://sketchapp.com -->
    <title>EmptyNotifs</title>
    <desc>Created with Sketch.</desc>
    <g id="Icons" stroke="none" stroke-width="1" fill="none" fill-rule="evenodd">
        <g id="notifs">
            <g id="EmptyNotifs">
                <circle id="Oval" fill="#E2E6E9" cx="72" cy="72" r="72"></circle>
                <g id="Group-4" transform="translate(30.000000, 23.000000)">
                    <ellipse id="Oval" stroke="#9FA8B3" stroke-width="3.4" fill="#FFFFFF" cx="42.3221594" cy="81.8086957" rx="16.1212121" ry="16.1913043"></ellipse>
                    <ellipse id="Oval" stroke="#9FA8B3" stroke-width="3.4" fill="#FFFFFF" cx="41.4736745" cy="6.8173913" rx="7.63636364" ry="6.8173913"></ellipse>
                    <path d="M41.8979169,8.52173913 L41.8979169,8.52173913 C57.7311304,8.52173913 70.5664859,21.3570947 70.5664859,37.1903081 C70.5664859,37.2885673 70.5659807,37.3868259 70.5649704,37.4850799 C70.429825,50.6275633 70.6317184,58.8049768 71.1706442,62.0173204 C71.9219606,66.4956484 75.1765823,72.3412137 80.9345094,79.5540163 L80.934509,79.5540166 C81.8131369,80.6546504 81.6331655,82.2591591 80.5325317,83.1377869 C80.20934,83.3957884 79.8282491,83.571316 79.4221138,83.6492369 C62.9408995,86.8113163 50.4062015,88.392356 41.8180199,88.392356 C33.2324068,88.392356 20.7026375,86.8122618 4.22871205,83.6520736 L4.22870982,83.6520852 C2.8455956,83.3867628 1.93944629,82.0504409 2.20476869,80.6673267 C2.28326774,80.2581145 2.46084723,79.8743723 2.72197179,79.5496714 C8.57468587,72.2719893 11.8757585,66.4278723 12.6251897,62.0173204 C13.1629357,58.8525777 13.363916,50.6762141 13.2281306,37.4882297 L13.2281342,37.4882296 C13.0651063,21.6543459 25.768845,8.68628668 41.6027287,8.52325874 C41.7011215,8.52224567 41.7995189,8.52173913 41.8979169,8.52173913 Z" id="Rectangle" stroke="#9FA8B3" stroke-width="3.4" fill="#FFFFFF"></path>
                    <ellipse id="Oval" fill="#9FA8B3" cx="41.5736985" cy="58.2904044" rx="2.96969697" ry="2.9826087"></ellipse>
                    <path d="M24.3937826,41.9069715 C26.3255671,42.9561148 28.4304506,43.3880603 30.7084331,43.2028082 C33.005191,43.0160292 35.0041135,42.2403673 36.7052006,40.8758225 L36.70523,40.8758591 C36.8110429,40.7909801 36.9656292,40.8079505 37.0505082,40.9137634 C37.1034942,40.9798175 37.1187177,41.0685072 37.0907918,41.1484498 C35.0408548,43.7583119 33.1274891,44.7104314 31.0450455,44.8797817 C28.962602,45.0491321 26.9107968,44.3773511 24.88963,42.8644388 L24.2179415,42.1321263 C24.1638794,42.0731847 24.167835,41.9815772 24.2267765,41.9275151 C24.2723494,41.8857149 24.3394364,41.877465 24.3937789,41.9069782 Z" id="Rectangle" stroke="#9FA8B3" stroke-width="0.85" fill="#9FA8B3"></path>
                    <path d="M47.3028735,41.9069715 C49.234658,42.9561148 51.3395415,43.3880603 53.617524,43.2028082 C55.9142819,43.0160292 57.9132044,42.2403673 59.6142916,40.8758225 L59.6143209,40.8758591 C59.7201338,40.7909801 59.8747201,40.8079505 59.9595991,40.9137634 C60.0125851,40.9798175 60.0278086,41.0685072 59.9998827,41.1484498 C57.9499457,43.7583119 56.03658,44.7104314 53.9541364,44.8797817 C51.8716929,45.0491321 49.8198877,44.3773511 47.7987209,42.8644388 L47.1270324,42.1321263 C47.0729703,42.0731847 47.0769259,41.9815772 47.1358674,41.9275151 C47.1814403,41.8857149 47.2485273,41.877465 47.3028698,41.9069782 Z" id="Rectangle-Copy-2" stroke="#9FA8B3" stroke-width="0.85" fill="#9FA8B3" transform="translate(53.551277, 42.863097) scale(-1, 1) translate(-53.551277, -42.863097) "></path>
                </g>
            </g>
        </g>
    </g>
</svg>