<?xml version="1.0" encoding="UTF-8"?>
<svg width="144px" height="144px" viewBox="0 0 144 144" version="1.1" xmlns="http://www.w3.org/2000/svg" xmlns:xlink="http://www.w3.org/1999/xlink">
    <!-- Generator: Sketch 54.1 (76490) - https://sketchapp.com -->
    <title>Group 5</title>
    <desc>Created with Sketch.</desc>
    <g id="Icons" stroke="none" stroke-width="1" fill="none" fill-rule="evenodd">
        <g id="Group-5">
            <g id="wallet-copy" fill="#2F3942">
                <circle id="Oval" cx="72" cy="72" r="72"></circle>
            </g>
            <path d="M119.945625,69.703125 C119.94,69.583125 119.934375,69.46125 119.926875,69.34125 C119.925,69.27 119.919375,69.19875 119.915625,69.125625 C119.8875,68.6475 119.851875,68.169375 119.810625,67.69125 C119.761875,67.14375 119.70375,66.598125 119.638125,66.054375 C119.61375,65.859375 119.589375,65.6625 119.56125,65.4675 C119.535,65.2725 119.50875,65.0775 119.47875,64.884375 C119.41875,64.4775 119.355,64.070625 119.28375,63.6675 C119.25375,63.49125 119.221875,63.315 119.188125,63.140625 C119.1525,62.9475 119.116875,62.754375 119.0775,62.563125 C119.04,62.37 119.000625,62.17875 118.959375,61.9875 C118.884375,61.629375 118.805625,61.273125 118.72125,60.91875 C118.6725,60.71625 118.62375,60.51375 118.575,60.31125 C118.2375,58.9575 117.841875,57.6225 117.388125,56.308125 C117.324375,56.120625 117.25875,55.935 117.19125,55.749375 C117.001875,55.216875 116.80125,54.68625 116.589375,54.16125 C116.518125,53.98125 116.445,53.80125 116.37,53.62125 C116.30625,53.465625 116.240625,53.311875 116.175,53.15625 C116.101875,52.98375 116.026875,52.81125 115.95,52.640625 C115.8825,52.486875 115.815,52.335 115.745625,52.183125 C115.69125,52.06125 115.635,51.94125 115.57875,51.819375 C115.56,51.774375 115.5375,51.73125 115.516875,51.68625 C115.456875,51.55875 115.396875,51.429375 115.335,51.301875 C115.19625,51.0075 115.051875,50.716875 114.905625,50.428125 C114.82125,50.2575 114.733125,50.08875 114.645,49.918125 C114.444375,49.53 114.23625,49.14375 114.0225,48.76125 C113.968125,48.66 113.91375,48.560625 113.855625,48.46125 C113.810625,48.37875 113.76375,48.298125 113.716875,48.2175 C113.649375,48.10125 113.585625,47.985 113.518125,47.870625 C113.415,47.69625 113.31375,47.52375 113.210625,47.353125 C112.84875,46.749375 112.471875,46.153125 112.081875,45.564375 C111.88125,45.2625 111.680625,44.964375 111.4725,44.66625 C111.335625,44.4675 111.196875,44.2725 111.05625,44.0775 C110.94,43.914375 110.821875,43.75125 110.701875,43.59 C110.65125,43.51875 110.59875,43.449375 110.54625,43.38 C110.353125,43.119375 110.15625,42.8625 109.9575,42.6075 C109.715625,42.29625 109.468125,41.986875 109.216875,41.679375 C109.153125,41.6025 109.089375,41.52375 109.02375,41.445 C108.4425,40.741875 107.840625,40.055625 107.21625,39.3825 C107.128125,39.28875 107.04,39.193125 106.95,39.0975 L106.933125,39.080625 C106.8075,38.9475 106.681875,38.814375 106.5525,38.683125 C106.351875,38.473125 106.1475,38.265 105.94125,38.05875 C105.793125,37.910625 105.645,37.764375 105.495,37.62 C105.406875,37.531875 105.316875,37.445625 105.226875,37.359375 C105.091875,37.228125 104.955,37.09875 104.81625,36.969375 C104.65125,36.81375 104.484375,36.66 104.3175,36.508125 C104.13375,36.339375 103.948125,36.174375 103.7625,36.009375 C103.56375,35.833125 103.365,35.65875 103.1625,35.488125 C103.033125,35.37375 102.9,35.263125 102.766875,35.1525 C102.61125,35.02125 102.45375,34.891875 102.29625,34.7625 C102.13875,34.633125 101.98125,34.505625 101.821875,34.38 C101.6925,34.276875 101.56125,34.17375 101.43,34.070625 C101.29125,33.96375 101.1525,33.855 101.011875,33.75 C100.921875,33.680625 100.831875,33.613125 100.741875,33.545625 C100.633125,33.463125 100.524375,33.380625 100.41375,33.3 C100.359375,33.260625 100.305,33.22125 100.250625,33.18 C100.141875,33.103125 100.035,33.024375 99.924375,32.945625 C99.74625,32.81625 99.568125,32.690625 99.38625,32.565 C99.05625,32.3325 98.7225,32.1075 98.385,31.884375 C98.191875,31.756875 97.99875,31.63125 97.80375,31.5075 C97.6275,31.395 97.45125,31.2825 97.275,31.17375 C97.23,31.14375 97.18125,31.11375 97.134375,31.085625 C96.99,30.995625 96.84375,30.909375 96.699375,30.82125 C96.64125,30.785625 96.583125,30.751875 96.525,30.71625 C96.346875,30.609375 96.16875,30.504375 95.98875,30.40125 C95.79,30.285 95.59125,30.1725 95.38875,30.06 C95.296875,30.0075 95.205,29.956875 95.11125,29.90625 C94.58625,29.615625 94.055625,29.33625 93.5175,29.068125 C93.39,29.0025 93.2625,28.93875 93.133125,28.876875 C93.005625,28.813125 92.878125,28.75125 92.74875,28.689375 C92.619375,28.6275 92.491875,28.565625 92.3625,28.505625 C92.233125,28.44375 92.10375,28.38375 91.974375,28.325625 C91.269375,28.003125 90.556875,27.6975 89.83875,27.410625 C89.65875,27.3375 89.476875,27.26625 89.295,27.196875 C89.113125,27.1275 88.93125,27.058125 88.749375,26.990625 C88.610625,26.938125 88.471875,26.8875 88.33125,26.836875 C88.08375,26.746875 87.83625,26.660625 87.586875,26.57625 C87.42375,26.52 87.260625,26.465625 87.0975,26.41125 C86.045625,26.0625 84.980625,25.753125 83.904375,25.479375 C83.761875,25.44375 83.6175,25.408125 83.473125,25.3725 C83.31,25.333125 83.14875,25.29375 82.98375,25.25625 C82.846875,25.2225 82.71,25.1925 82.57125,25.160625 C82.385625,25.119375 82.2,25.08 82.0125,25.040625 C81.883125,25.0125 81.75375,24.98625 81.6225,24.96 C81.523125,24.939375 81.425625,24.920625 81.32625,24.901875 C80.31375,24.70125 79.29375,24.53625 78.264375,24.403125 C78.125625,24.384375 77.985,24.3675 77.844375,24.350625 C77.398125,24.29625 76.951875,24.249375 76.50375,24.208125 C76.340625,24.19125 76.183125,24.178125 76.025625,24.166875 C75.6225,24.13125 75.2175,24.103125 74.8125,24.0825 C74.716875,24.075 74.619375,24.069375 74.52375,24.065625 C74.428125,24.06 74.3325,24.05625 74.235,24.0525 C74.199375,24.050625 74.165625,24.04875 74.13,24.04875 C73.90875,24.0375 73.6875,24.03 73.46625,24.0225 C73.43625,24.020625 73.404375,24.020625 73.3725,24.020625 C73.1475,24.013125 72.9225,24.0075 72.695625,24.005625 C72.465,24.001875 72.2325,24 72,24 C71.05875,24 70.12125,24.02625 69.1875,24.0825 C62.51625,24.463125 56.101875,26.206875 50.266875,29.176875 C50.101875,29.26125 49.93875,29.345625 49.775625,29.431875 C49.284375,29.686875 48.795,29.953125 48.313125,30.22875 C47.326875,30.789375 46.359375,31.385625 45.4125,32.0175 C44.95125,32.326875 44.495625,32.64375 44.04375,32.968125 C41.934375,34.485 39.931875,36.185625 38.05875,38.05875 C36.10875,40.00875 34.34625,42.099375 32.7825,44.304375 C32.439375,44.78625 32.1075,45.27375 31.783125,45.766875 C30.751875,47.341875 29.818125,48.969375 28.985625,50.645625 C26.105625,56.431875 24.42375,62.776875 24.07125,69.369375 C24.024375,70.243125 24,71.11875 24,72 C24,73.003125 24.03,74.000625 24.091875,74.994375 C24.121875,75.504375 24.16125,76.0125 24.21,76.520625 C24.710625,81.931875 26.113125,87.151875 28.340625,92.008125 C28.599375,92.570625 28.8675,93.1275 29.14875,93.67875 C29.994375,95.3475 30.94125,96.969375 31.98375,98.536875 C33.73875,101.17125 35.769375,103.651875 38.05875,105.94125 C40.42125,108.30375 42.988125,110.390625 45.71625,112.18125 C47.289375,113.21625 48.916875,114.15375 50.593125,114.988125 C51.065625,115.224375 51.541875,115.453125 52.021875,115.6725 C56.900625,117.9075 62.14875,119.308125 67.58625,119.799375 C68.158125,119.85375 68.731875,119.895 69.3075,119.925 C70.2,119.975625 71.098125,120 72,120 C72.298125,120 72.594375,119.998125 72.890625,119.990625 C73.04625,119.98875 73.201875,119.985 73.355625,119.979375 C73.370625,119.98125 73.385625,119.98125 73.400625,119.979375 C73.45875,119.9775 73.516875,119.9775 73.575,119.97375 C73.584375,119.97375 73.595625,119.97375 73.605,119.971875 C73.80375,119.96625 74.0025,119.95875 74.20125,119.949375 C74.416875,119.94 74.6325,119.92875 74.84625,119.915625 C74.874375,119.915625 74.9025,119.91375 74.9325,119.911875 C75.15,119.89875 75.3675,119.885625 75.583125,119.86875 C75.97875,119.83875 76.374375,119.805 76.768125,119.7675 C76.974375,119.746875 77.1825,119.72625 77.38875,119.701875 C77.593125,119.679375 77.7975,119.655 78,119.630625 C78.178125,119.61 78.354375,119.585625 78.5325,119.56125 C78.654375,119.54625 78.774375,119.529375 78.89625,119.510625 C78.980625,119.499375 79.065,119.48625 79.149375,119.473125 C79.333125,119.446875 79.516875,119.41875 79.69875,119.38875 C79.8375,119.368125 79.974375,119.345625 80.11125,119.32125 C80.214375,119.304375 80.319375,119.285625 80.4225,119.266875 C80.44125,119.265 80.46,119.26125 80.47875,119.2575 C80.585625,119.23875 80.6925,119.22 80.7975,119.199375 C80.836875,119.19375 80.87625,119.18625 80.915625,119.176875 C81.020625,119.158125 81.12375,119.139375 81.226875,119.116875 C81.249375,119.115 81.271875,119.11125 81.294375,119.10375 C81.376875,119.08875 81.459375,119.07375 81.54,119.056875 C81.699375,119.025 81.855,118.993125 82.0125,118.959375 C82.509375,118.85625 83.0025,118.74375 83.49375,118.621875 C83.6625,118.5825 83.829375,118.539375 83.99625,118.49625 C84.095625,118.471875 84.195,118.445625 84.294375,118.419375 C84.425625,118.385625 84.555,118.35 84.68625,118.314375 C84.69,118.314375 84.691875,118.3125 84.695625,118.3125 C84.853125,118.269375 85.0125,118.22625 85.17,118.179375 C85.30875,118.14 85.449375,118.100625 85.588125,118.059375 C85.854375,117.980625 86.1225,117.9 86.386875,117.8175 C86.563125,117.763125 86.7375,117.706875 86.911875,117.64875 C87.103125,117.586875 87.294375,117.523125 87.485625,117.4575 C87.58125,117.425625 87.676875,117.39375 87.7725,117.36 C87.868125,117.328125 87.96375,117.294375 88.059375,117.25875 C88.24875,117.19125 88.44,117.12375 88.629375,117.0525 C88.81875,116.983125 89.00625,116.91375 89.195625,116.840625 C89.383125,116.7675 89.5725,116.694375 89.76,116.619375 C89.9475,116.544375 90.135,116.469375 90.320625,116.3925 C90.508125,116.315625 90.69375,116.236875 90.879375,116.158125 C90.890625,116.154375 90.90375,116.14875 90.916875,116.143125 C91.141875,116.045625 91.366875,115.948125 91.591875,115.846875 C91.599375,115.845 91.606875,115.84125 91.614375,115.8375 C91.8375,115.73625 92.05875,115.635 92.28,115.531875 C92.731875,115.32 93.18,115.1025 93.624375,114.8775 C93.8325,114.7725 94.040625,114.665625 94.24875,114.556875 C94.41,114.4725 94.57125,114.38625 94.730625,114.3 C95.203125,114.04875 95.668125,113.78625 96.129375,113.518125 C96.320625,113.405625 96.51,113.293125 96.699375,113.17875 C97.1325,112.92 97.56,112.651875 97.98375,112.378125 C98.1525,112.269375 98.319375,112.15875 98.48625,112.048125 C98.92875,111.755625 99.3675,111.45375 99.800625,111.1425 C100.0725,110.949375 100.340625,110.7525 100.60875,110.55375 C100.876875,110.355 101.14125,110.154375 101.40375,109.948125 L101.71875,109.700625 C101.87625,109.576875 102.03375,109.45125 102.189375,109.32375 C102.320625,109.21875 102.45,109.111875 102.5775,109.005 C102.729375,108.879375 102.879375,108.75375 103.029375,108.62625 C104.030625,107.776875 105.001875,106.880625 105.94125,105.94125 C106.160625,105.721875 106.378125,105.500625 106.591875,105.2775 C106.72125,105.144375 106.84875,105.009375 106.974375,104.874375 C107.221875,104.61375 107.461875,104.35125 107.701875,104.086875 C107.92875,103.83375 108.15375,103.580625 108.375,103.32375 C108.3975,103.2975 108.42,103.27125 108.4425,103.245 C108.575625,103.09125 108.706875,102.935625 108.83625,102.78 C109.035,102.54375 109.231875,102.305625 109.425,102.065625 C109.505625,101.964375 109.58625,101.863125 109.666875,101.761875 C109.78125,101.6175 109.89375,101.475 110.00625,101.32875 C110.11875,101.184375 110.23125,101.038125 110.341875,100.89 C110.5275,100.64625 110.709375,100.400625 110.8875,100.155 C110.979375,100.0275 111.07125,99.901875 111.16125,99.774375 C111.16875,99.766875 111.174375,99.7575 111.181875,99.74625 C111.37875,99.470625 111.57375,99.189375 111.765,98.908125 C111.890625,98.72625 112.0125,98.5425 112.1325,98.35875 C112.138125,98.35125 112.14375,98.34375 112.149375,98.334375 C112.155,98.325 112.1625,98.315625 112.16625,98.30625 C112.243125,98.191875 112.318125,98.079375 112.39125,97.963125 C112.4175,97.921875 112.445625,97.880625 112.471875,97.8375 C112.62,97.605 112.768125,97.370625 112.914375,97.134375 C113.03625,96.935625 113.15625,96.736875 113.27625,96.53625 C113.323125,96.4575 113.37,96.376875 113.416875,96.29625 C113.488125,96.17625 113.559375,96.05625 113.62875,95.93625 C113.983125,95.325 114.320625,94.70625 114.645,94.081875 C114.751875,93.875625 114.856875,93.669375 114.96,93.46125 C115.12125,93.140625 115.27875,92.82 115.430625,92.495625 C115.554375,92.23125 115.678125,91.966875 115.798125,91.700625 C115.86375,91.55625 115.925625,91.41375 115.989375,91.269375 C116.06625,91.096875 116.139375,90.9225 116.2125,90.75 C116.5425,89.979375 116.848125,89.1975 117.133125,88.41 C117.18375,88.275 117.2325,88.138125 117.279375,88.00125 C117.463125,87.485625 117.635625,86.964375 117.79875,86.44125 C117.855,86.266875 117.9075,86.0925 117.96,85.918125 C118.010625,85.753125 118.059375,85.588125 118.108125,85.423125 C118.17375,85.198125 118.2375,84.97125 118.299375,84.744375 C118.30875,84.710625 118.318125,84.676875 118.325625,84.643125 C118.37625,84.459375 118.425,84.275625 118.471875,84.09 C118.485,84.043125 118.498125,83.99625 118.5075,83.949375 C118.546875,83.799375 118.58625,83.6475 118.621875,83.495625 C118.64625,83.39625 118.670625,83.295 118.695,83.195625 C118.90875,82.295625 119.098125,81.38625 119.2575,80.47125 C119.281875,80.3325 119.308125,80.191875 119.330625,80.05125 C119.35125,79.933125 119.37,79.816875 119.38875,79.69875 C119.420625,79.505625 119.450625,79.310625 119.47875,79.115625 C119.50875,78.9225 119.535,78.7275 119.56125,78.5325 C119.600625,78.2475 119.63625,77.964375 119.668125,77.679375 C119.686875,77.52375 119.70375,77.36625 119.720625,77.20875 C119.743125,77.00625 119.76375,76.801875 119.7825,76.5975 C119.79375,76.494375 119.803125,76.39125 119.810625,76.29 C119.82,76.18875 119.8275,76.085625 119.836875,75.9825 C119.851875,75.800625 119.865,75.61875 119.878125,75.436875 C119.885625,75.358125 119.89125,75.2775 119.895,75.19875 C119.904375,75.04875 119.91375,74.900625 119.92125,74.750625 C119.934375,74.521875 119.945625,74.293125 119.955,74.064375 C119.975625,73.606875 119.98875,73.149375 119.994375,72.69 C119.998125,72.459375 120,72.230625 120,72 L120,71.949375 C120,71.1975 119.98125,70.449375 119.945625,69.703125 Z" id="Path" fill="#4C5660" fill-rule="nonzero"></path>
            <path d="M119.945625,69.703125 C119.94,69.583125 119.934375,69.46125 119.926875,69.34125 C119.925,69.27 119.919375,69.19875 119.915625,69.125625 C119.8875,68.6475 119.851875,68.169375 119.810625,67.69125 C119.761875,67.14375 119.70375,66.598125 119.638125,66.054375 C119.61375,65.859375 119.589375,65.6625 119.56125,65.4675 C119.535,65.2725 119.50875,65.0775 119.47875,64.884375 C119.41875,64.4775 119.355,64.070625 119.28375,63.6675 C119.25375,63.49125 119.221875,63.315 119.188125,63.140625 C119.1525,62.9475 119.116875,62.754375 119.0775,62.563125 C119.04,62.37 119.000625,62.17875 118.959375,61.9875 C118.884375,61.629375 118.805625,61.273125 118.72125,60.91875 C118.6725,60.71625 118.62375,60.51375 118.575,60.31125 C118.2375,58.9575 117.841875,57.6225 117.388125,56.308125 C117.324375,56.120625 117.25875,55.935 117.19125,55.749375 C117.001875,55.216875 116.80125,54.68625 116.589375,54.16125 C116.518125,53.98125 116.445,53.80125 116.37,53.62125 C116.30625,53.465625 116.240625,53.311875 116.175,53.15625 C116.101875,52.98375 116.026875,52.81125 115.95,52.640625 C115.8825,52.486875 115.815,52.335 115.745625,52.183125 C115.69125,52.06125 115.635,51.94125 115.57875,51.819375 C115.56,51.774375 115.5375,51.73125 115.516875,51.68625 C115.456875,51.55875 115.396875,51.429375 115.335,51.301875 C115.19625,51.0075 115.051875,50.716875 114.905625,50.428125 C114.82125,50.2575 114.733125,50.08875 114.645,49.918125 C114.444375,49.53 114.23625,49.14375 114.0225,48.76125 C113.968125,48.66 113.91375,48.560625 113.855625,48.46125 C113.745,48.2625 113.6325,48.065625 113.518125,47.870625 C113.415,47.69625 113.31375,47.52375 113.210625,47.353125 C112.84875,46.749375 112.471875,46.153125 112.081875,45.564375 L99.6675,52.745625 C97.374375,49.45875 94.509375,46.5975 91.21875,44.308125 L98.385,31.884375 C98.191875,31.756875 97.99875,31.63125 97.80375,31.5075 C97.6275,31.395 97.45125,31.2825 97.275,31.17375 C97.23,31.14375 97.18125,31.11375 97.134375,31.085625 C96.931875,30.96 96.729375,30.838125 96.525,30.71625 C96.346875,30.609375 96.16875,30.504375 95.98875,30.40125 C95.79,30.285 95.59125,30.1725 95.38875,30.06 C95.296875,30.0075 95.205,29.956875 95.11125,29.90625 C94.58625,29.615625 94.055625,29.33625 93.5175,29.068125 C93.39,29.0025 93.2625,28.93875 93.133125,28.876875 C93.005625,28.813125 92.878125,28.75125 92.74875,28.689375 C92.619375,28.6275 92.491875,28.565625 92.3625,28.505625 C92.233125,28.44375 92.10375,28.38375 91.974375,28.325625 C91.269375,28.003125 90.556875,27.6975 89.83875,27.410625 C89.65875,27.3375 89.476875,27.26625 89.295,27.196875 C89.113125,27.1275 88.93125,27.058125 88.749375,26.990625 C88.610625,26.938125 88.471875,26.8875 88.33125,26.836875 C88.08375,26.746875 87.83625,26.660625 87.586875,26.57625 C87.42375,26.52 87.260625,26.465625 87.0975,26.41125 C86.045625,26.0625 84.980625,25.753125 83.904375,25.479375 C83.761875,25.44375 83.6175,25.408125 83.473125,25.3725 C83.31,25.333125 83.14875,25.29375 82.98375,25.25625 C82.846875,25.2225 82.71,25.1925 82.57125,25.160625 C82.385625,25.119375 82.2,25.08 82.0125,25.040625 C81.883125,25.0125 81.75375,24.98625 81.6225,24.96 C81.523125,24.939375 81.425625,24.920625 81.32625,24.901875 C80.31375,24.70125 79.29375,24.53625 78.264375,24.403125 C78.125625,24.384375 77.985,24.3675 77.844375,24.350625 C77.398125,24.29625 76.951875,24.249375 76.50375,24.208125 C76.5,24.20625 76.498125,24.20625 76.49625,24.208125 C76.340625,24.19125 76.183125,24.178125 76.025625,24.166875 C75.6225,24.13125 75.2175,24.103125 74.8125,24.0825 C74.716875,24.075 74.619375,24.069375 74.52375,24.065625 C74.428125,24.06 74.3325,24.05625 74.235,24.0525 C73.948125,24.039375 73.66125,24.028125 73.3725,24.020625 C73.26,24.016875 73.1475,24.013125 73.035,24.01125 C72.9225,24.009375 72.808125,24.0075 72.695625,24.005625 C72.465,24.001875 72.2325,24 72,24 C71.05875,24 70.12125,24.02625 69.1875,24.0825 L69.1875,38.39625 C65.0325,38.74125 61.0875,39.841875 57.493125,41.56125 L50.266875,29.176875 C50.101875,29.26125 49.93875,29.345625 49.775625,29.431875 C49.284375,29.68875 48.79875,29.95875 48.315,30.2325 L48.313125,30.22875 C47.326875,30.789375 46.359375,31.385625 45.4125,32.0175 C44.95125,32.326875 44.495625,32.64375 44.04375,32.968125 C41.934375,34.485 39.931875,36.185625 38.05875,38.05875 C36.10875,40.00875 34.34625,42.099375 32.7825,44.304375 C32.439375,44.78625 32.1075,45.27375 31.783125,45.766875 C30.751875,47.341875 29.818125,48.969375 28.985625,50.645625 L41.435625,57.765 C39.770625,61.32375 38.709375,65.21625 38.385,69.315 L24.07125,69.369375 C24.024375,70.243125 24,71.11875 24,72 C24,73.003125 24.03,74.000625 24.091875,74.994375 C24.121875,75.504375 24.16125,76.0125 24.21,76.520625 C24.710625,81.931875 26.113125,87.151875 28.340625,92.008125 C28.599375,92.570625 28.8675,93.1275 29.14875,93.67875 C29.994375,95.3475 30.94125,96.969375 31.98375,98.536875 L44.38125,91.32375 C46.68375,94.605 49.554375,97.45875 52.850625,99.740625 L45.71625,112.18125 C47.289375,113.21625 48.916875,114.15375 50.593125,114.988125 C51.065625,115.224375 51.541875,115.453125 52.021875,115.6725 C56.900625,117.9075 62.14875,119.308125 67.58625,119.799375 C68.158125,119.85375 68.731875,119.895 69.3075,119.925 C70.2,119.975625 71.098125,120 72,120 C72.298125,120 72.594375,119.998125 72.890625,119.990625 C73.04625,119.98875 73.201875,119.985 73.355625,119.979375 C73.370625,119.98125 73.385625,119.98125 73.400625,119.979375 C73.45875,119.9775 73.516875,119.9775 73.575,119.97375 C73.584375,119.97375 73.595625,119.97375 73.605,119.971875 C73.80375,119.96625 74.0025,119.95875 74.20125,119.949375 C74.416875,119.94 74.6325,119.92875 74.84625,119.915625 C74.874375,119.915625 74.9025,119.91375 74.9325,119.911875 L74.896875,105.59625 C78.991875,105.245625 82.880625,104.161875 86.428125,102.474375 L93.624375,114.8775 C93.8325,114.7725 94.040625,114.665625 94.24875,114.556875 C94.41,114.4725 94.57125,114.38625 94.730625,114.3 C95.203125,114.04875 95.668125,113.78625 96.129375,113.518125 C96.320625,113.405625 96.51,113.293125 96.699375,113.17875 C97.1325,112.92 97.56,112.651875 97.98375,112.378125 C98.1525,112.269375 98.319375,112.15875 98.48625,112.048125 C98.92875,111.755625 99.3675,111.45375 99.800625,111.1425 C100.0725,110.949375 100.340625,110.7525 100.60875,110.55375 C100.876875,110.355 101.14125,110.154375 101.40375,109.948125 L101.71875,109.700625 C101.87625,109.576875 102.03375,109.45125 102.189375,109.32375 C102.320625,109.21875 102.45,109.111875 102.5775,109.005 C102.729375,108.879375 102.879375,108.75375 103.029375,108.62625 C104.030625,107.776875 105.001875,106.880625 105.94125,105.94125 C106.160625,105.721875 106.378125,105.500625 106.591875,105.2775 C106.72125,105.144375 106.84875,105.009375 106.974375,104.874375 C107.221875,104.61375 107.461875,104.35125 107.701875,104.086875 C107.92875,103.83375 108.15375,103.580625 108.375,103.32375 C108.3975,103.2975 108.42,103.27125 108.4425,103.245 C108.575625,103.09125 108.706875,102.935625 108.83625,102.78 C109.035,102.54375 109.231875,102.305625 109.425,102.065625 C109.505625,101.964375 109.58625,101.863125 109.666875,101.761875 C109.78125,101.6175 109.89375,101.475 110.00625,101.32875 C110.11875,101.184375 110.23125,101.038125 110.341875,100.89 C110.5275,100.64625 110.709375,100.400625 110.8875,100.155 C110.979375,100.0275 111.07125,99.901875 111.16125,99.774375 C111.16875,99.766875 111.174375,99.7575 111.181875,99.74625 C111.37875,99.470625 111.57375,99.189375 111.765,98.908125 C111.890625,98.72625 112.0125,98.5425 112.1325,98.35875 C112.138125,98.35125 112.14375,98.34375 112.149375,98.334375 C112.155,98.325 112.1625,98.315625 112.16625,98.30625 C112.243125,98.191875 112.318125,98.079375 112.39125,97.963125 C112.4175,97.921875 112.445625,97.880625 112.471875,97.8375 C112.62,97.605 112.768125,97.370625 112.914375,97.134375 C113.03625,96.935625 113.15625,96.736875 113.27625,96.53625 C113.394375,96.3375 113.5125,96.136875 113.62875,95.93625 C113.983125,95.325 114.320625,94.70625 114.645,94.081875 C114.751875,93.875625 114.856875,93.669375 114.96,93.46125 L102.52875,86.311875 C104.20125,82.75875 105.271875,78.86625 105.6075,74.769375 L119.92125,74.750625 C119.934375,74.521875 119.945625,74.293125 119.955,74.064375 C119.975625,73.606875 119.98875,73.149375 119.994375,72.69 C119.998125,72.459375 120,72.230625 120,72 C120,71.23125 119.98125,70.46625 119.945625,69.703125 Z M72,100.096875 C56.506875,100.096875 43.903125,87.493125 43.903125,72 C43.903125,56.506875 56.506875,43.903125 72,43.903125 C87.493125,43.903125 100.096875,56.506875 100.096875,72 C100.096875,87.493125 87.493125,100.096875 72,100.096875 Z" id="Shape" fill="#262F37" fill-rule="nonzero"></path>
            <path d="M85.4480625,77.4253125 C83.337375,80.8723125 80.395125,81.6148125 78.298875,81.6305625 C77.2093125,81.639 76.118625,81.4485 75.0804375,81.0748125 C75.3084375,82.0168125 75.6009375,82.529625 75.847125,82.7025 L76.23225,82.9734375 L76.23225,85.5 L67.7675625,85.5 L67.7675625,82.97325 L68.1526875,82.7023125 C68.398875,82.5294375 68.691375,82.016625 68.919375,81.074625 C67.8811875,81.4483125 66.7910625,81.6388125 65.7009375,81.630375 C63.6046875,81.614625 60.662625,80.872125 58.55175,77.425125 C56.850375,74.6461875 56.8055625,71.3505 58.428375,68.3835 C59.6805,66.0931875 61.62075,64.267875 63.496875,62.502375 C63.8270625,62.19225 64.1383125,61.899 64.448625,61.6014375 C65.6113125,60.4846875 66.788625,59.4084375 67.926375,58.368 C69.0564375,57.3346875 70.225125,56.2663125 71.3715,55.1653125 L72,54.5625 L72.628125,55.1653125 C73.7745,56.2663125 74.9431875,57.3346875 76.07325,58.368 C77.2111875,59.408625 78.3883125,60.4846875 79.551,61.6014375 C79.861125,61.899 80.1725625,62.1920625 80.50275,62.502375 C82.378875,64.267875 84.319125,66.0931875 85.57125,68.3835 C87.19425,71.3505 87.1494375,74.646375 85.4480625,77.4253125 Z" id="Path" fill="#262F37" fill-rule="nonzero"></path>
        </g>
    </g>
</svg>