<?xml version="1.0" encoding="UTF-8"?>
<svg width="144px" height="144px" viewBox="0 0 144 144" version="1.1" xmlns="http://www.w3.org/2000/svg" xmlns:xlink="http://www.w3.org/1999/xlink">
    <!-- Generator: Sketch 54.1 (76490) - https://sketchapp.com -->
    <title>wallet</title>
    <desc>Created with Sketch.</desc>
    <g id="Icons" stroke="none" stroke-width="1" fill="none" fill-rule="evenodd">
        <g id="wallet">
            <circle id="Oval" fill="#2F3942" cx="72" cy="72" r="72"></circle>
            <path d="M38.55594,41.3936916 L62.5595184,41.3936916 L86.9689052,28.517735 L90.6757848,32.4136673 L96.2462252,42.7491224 L102.341242,40.9092781 L108.02883,44.8980179 L108.02883,66.3563101 L112.357141,67.5593725 L112.357141,84.7161283 L108.02883,84.7161283 L108.02883,104.913104 L106.538225,107.746066 L102.341242,109.517306 L37.9590361,109.517306 L32.8401411,104.913104 L32.8401411,48.6749105 C33.2244216,46.0725193 33.7354877,44.3650518 34.3733393,43.5525079 C35.011191,42.739964 36.4053912,42.0203586 38.55594,41.3936916 Z" id="Path-4" fill="#4C5660"></path>
            <polygon id="Path-5" fill="#37424C" points="87.5340953 28.517735 48.9688219 49.2296885 99.7830721 49.2296885"></polygon>
            <path d="M113.799604,66.1161672 L109.794916,66.1161672 L109.794916,47.5837612 C109.794916,43.1407881 106.201988,39.5262806 101.785541,39.5262806 L96.3616276,39.5262806 L90.8110961,29.4866507 C89.9651441,27.9523343 88.3552432,27 86.6092523,27 C85.7954535,27 84.9881351,27.2111284 84.2752823,27.6090627 L62.9734444,39.5260299 L39.1791141,39.5260299 C34.7626667,39.5260299 31.1697387,43.1405373 31.1697387,47.5835104 L31.1697387,102.911427 C31.1697387,107.3544 34.7626667,110.968907 39.1791141,110.968907 L101.785541,110.968907 C106.201988,110.968907 109.794916,107.3544 109.794916,102.911427 L109.794916,86.6625672 L113.799604,86.6625672 L113.799604,66.1161672 Z M101.785541,42.7491224 C104.25236,42.7491224 106.267541,44.6344836 106.538225,47.0469134 L100.518357,47.0469134 L98.1442583,42.7491224 L101.785541,42.7491224 Z M85.8338378,30.4259463 C86.5850751,30.0021851 87.59603,30.2985672 88.0107808,31.0513075 L96.8531471,47.045409 L56.1238258,47.045409 L85.8338378,30.4259463 Z M106.591066,102.911427 C106.591066,105.57686 104.434811,107.746066 101.785291,107.746066 L39.1791141,107.746066 C36.5295946,107.746066 34.3733393,105.57686 34.3733393,102.911427 L34.3733393,47.5837612 C34.3733393,44.9183284 36.5295946,42.7491224 39.1791141,42.7491224 L57.213045,42.7491224 L49.5304354,47.0471642 L40.1803483,47.0471642 C39.2945165,47.0471642 38.5784234,47.7690627 38.5784234,48.6587104 C38.5784234,49.5483582 39.2945165,50.2702567 40.1803483,50.2702567 L43.7685405,50.2702567 L102.299742,50.2702567 L106.591066,50.2702567 L106.591066,66.1176716 L94.8766006,66.1176716 C89.4364865,66.1176716 85.0090721,70.5719284 85.0090721,76.0444657 L85.0090721,76.7375284 C85.0090721,82.2103164 89.4367357,86.6643224 94.8766006,86.6643224 L106.591066,86.6643224 L106.591066,102.911427 Z M110.595754,83.4397254 L109.794916,83.4397254 L94.8766006,83.4397254 C91.2019189,83.4397254 88.2126727,80.4327761 88.2126727,76.7357731 L88.2126727,76.0427104 C88.2126727,72.3459582 91.2016697,69.3387582 94.8766006,69.3387582 L109.794916,69.3387582 L110.595754,69.3387582 L110.595754,83.4397254 Z M99.7830721,76.5216358 C99.7830721,78.4877373 98.2003393,80.0797254 96.2462252,80.0797254 C94.2918619,80.0797254 92.7093784,78.4874866 92.7093784,76.5216358 C92.7093784,74.5557851 94.2921111,72.9635463 96.2462252,72.9635463 C98.2005886,72.9632955 99.7830721,74.5570388 99.7830721,76.5216358 Z" id="Shape" fill="#262F37" fill-rule="nonzero"></path>
        </g>
    </g>
</svg>