<?xml version="1.0" encoding="UTF-8"?>
<svg width="144px" height="144px" viewBox="0 0 144 144" version="1.1" xmlns="http://www.w3.org/2000/svg" xmlns:xlink="http://www.w3.org/1999/xlink">
    <!-- Generator: Sketch 54.1 (76490) - https://sketchapp.com -->
    <title>not-started-yet</title>
    <desc>Created with Sketch.</desc>
    <g id="Icons" stroke="none" stroke-width="1" fill="none" fill-rule="evenodd">
        <g id="not-started-yet">
            <circle id="Oval" fill="#2F3942" cx="72" cy="72" r="72"></circle>
            <g id="football-ball" transform="translate(24.000000, 24.000000)">
                <circle id="Oval" fill="#4C5660" cx="48" cy="48" r="46"></circle>
                <polygon id="Path" fill="#262F37" fill-rule="nonzero" points="52.5280322 40.4888209 65.3698189 22.1101328 49.7428732 7.53822133 27.9195815 15.3864628 28.6460523 35.9536419"></polygon>
                <polygon id="Path" fill="#262F37" fill-rule="nonzero" points="44.2079034 77.7285151 55.9600805 89.968998 76.4878551 81.2057626 79.8403219 63.0685231 59.4628249 60.5595815"></polygon>
                <path d="M3.0385835,65.0555493 L3.29799598,65.3731026 C10.2808853,83.1881529 27.6145835,95.8093521 47.9049658,95.8093521 C74.3631066,95.8093521 95.8095453,74.3631066 95.8095453,47.9045795 C95.8093521,21.4475976 74.3629135,0 47.9047726,0 C21.4475976,0 0,21.4489497 0,47.9045795 C0,53.8283783 1.08246278,59.4991388 3.04901408,64.7374165 L3.0385835,65.0555493 Z M2.49754527,47.9045795 C2.49754527,41.854841 3.69686922,36.0824789 5.85464789,30.7976499 L17.1867042,16.7378028 L20.1238793,12.028008 C27.8100604,6.06268008 37.4463742,2.49773843 47.9065111,2.49773843 C48.158004,2.49773843 48.4054406,2.51319115 48.6584789,2.51589537 L53.7261972,4.3825835 L64.896,5.80790342 C72.0484829,8.70567404 78.3045151,13.3700765 83.1132072,19.2654809 L81.2530865,27.3650221 L88.5919678,48.0616177 L93.2803219,49.249159 C92.5604185,73.6679276 72.4927485,93.3098753 47.9063179,93.3098753 C35.6648692,93.3098753 24.5483783,88.4331911 16.3733119,80.530672 L25.1863823,72.9603863 L16.775662,51.2808048 L3.61612877,46.74833 L3.31190342,56.4153561 C2.78535211,53.6589779 2.49754527,50.8156781 2.49754527,47.9045795 Z" id="Shape" fill="#262F37" fill-rule="nonzero"></path>
            </g>
        </g>
    </g>
</svg>