<?xml version="1.0" encoding="UTF-8"?>
<svg width="409px" height="214px" viewBox="0 0 409 214" version="1.1" xmlns="http://www.w3.org/2000/svg" xmlns:xlink="http://www.w3.org/1999/xlink">
    <!-- Generator: Sketch 54.1 (76490) - https://sketchapp.com -->
    <title>Elements / Play / Pitch</title>
    <desc>Created with Sketch.</desc>
    <g id="Icons" stroke="none" stroke-width="1" fill="none" fill-rule="evenodd">
        <g id="Elements-/-Play-/-Pitch">
            <g id="Pitch">
                <rect id="Rectangle" fill="#1E262D" x="1" y="0" width="407.555932" height="213.868421"></rect>
                <path d="M1.56269275,213.104605 L205.706196,213.104605 L204.61212,136.721498 C204.599607,136.721511 204.587092,136.721518 204.574576,136.721518 C187.652914,136.721518 173.931273,123.387509 173.931273,106.934211 C173.931273,90.7460862 187.214181,77.5775155 203.758946,77.1572507 L202.664724,0.763815789 L1.56269275,0.763815789 L1.56269275,45.4501526 L53.2732669,45.4501526 L53.2732669,84.7526326 C60.3962233,87.8013481 65.5305881,96.7635491 65.5305881,107.316099 C65.5305881,117.868649 60.3962233,126.83085 53.2732669,129.879566 L53.2732669,169.563934 L1.56269275,169.563934 L1.56269275,213.104605 Z M408.352542,213.868421 L0.796610169,213.868421 L0.796610169,0 L408.352542,0 L408.352542,213.868421 Z M407.58646,0.763815789 L203.430884,0.763815789 L204.524962,77.1469386 C204.541497,77.1469157 204.558035,77.1469029 204.574576,77.1469029 C221.496238,77.1469029 235.217879,90.4809121 235.217879,106.934211 C235.217879,123.12627 221.928512,136.297308 205.378139,136.711475 L206.472357,213.104605 L407.58646,213.104605 L407.58646,168.418269 L355.875886,168.418269 L355.875886,129.115788 C348.752929,126.067073 343.618564,117.104872 343.618564,106.552322 C343.618564,95.999772 348.752929,87.037571 355.875886,83.9888554 L355.875886,44.3044869 L407.58646,44.3044869 L407.58646,0.763815789 Z M1.56269275,134.812075 L1.56269275,168.800157 L52.5071843,168.800157 L52.5071843,46.2139297 L1.56269275,46.2139297 L1.56269275,80.2020114 L21.8638811,80.2020114 L21.8638811,134.812075 L1.56269275,134.812075 Z M53.2732669,85.5902183 L53.2732669,129.04198 C59.9389226,125.996687 64.7645055,117.43279 64.7645055,107.316099 C64.7645055,97.1994081 59.9389226,88.6355109 53.2732669,85.5902183 Z M21.0977985,80.9657885 L1.56269275,80.9657885 L1.56269275,134.048298 L21.0977985,134.048298 L21.0977985,80.9657885 Z M407.58646,79.0563457 L407.58646,45.068264 L356.641968,45.068264 L356.641968,167.654491 L407.58646,167.654491 L407.58646,133.66641 L387.285271,133.66641 L387.285271,79.0563457 L407.58646,79.0563457 Z M355.875886,128.278203 L355.875886,84.8264412 C349.21023,87.8717338 344.384647,96.435631 344.384647,106.552322 C344.384647,116.669013 349.21023,125.23291 355.875886,128.278203 Z M388.051354,132.902633 L407.58646,132.902633 L407.58646,79.8201228 L388.051354,79.8201228 L388.051354,132.902633 Z M204.535901,77.9106801 L205.367197,135.947727 C221.503598,135.539524 234.451797,122.703855 234.451797,106.934211 C234.451797,90.90718 221.077477,77.9106801 204.574576,77.9106801 C204.561683,77.9106801 204.548791,77.910688 204.535901,77.9106801 Z M174.697356,106.934211 C174.697356,122.961241 188.071676,135.957741 204.574576,135.957741 C204.583445,135.957741 204.592313,135.957737 204.60118,135.957741 L203.769888,77.921002 C187.6391,78.3352967 174.697356,91.1684977 174.697356,106.934211 Z" id="Shape" fill="#37424C"></path>
            </g>
        </g>
    </g>
</svg>