<svg width="446" height="446" viewBox="0 0 446 446" fill="none" xmlns="http://www.w3.org/2000/svg">
<path fill-rule="evenodd" clip-rule="evenodd" d="M446 223C446 346.159 346.159 446 223 446C99.8406 446 0 346.159 0 223C0 99.8405 99.8406 0 223 0C346.159 0 446 99.8405 446 223ZM348.691 232.579C349.992 231.633 350.628 231.139 350.43 230.418L350.486 230.389C349.583 227.075 347.042 226.998 344.676 226.926C344.34 226.915 344.007 226.905 343.683 226.886C342.25 226.803 340.952 226.763 339.601 226.722C337.499 226.658 335.27 226.59 332.213 226.349C327.992 226.082 323.792 225.544 319.64 224.739C317.179 224.259 309.852 222.479 309.852 222.479C301.309 220.413 293.422 216.942 285.379 213.402C278.682 210.455 271.878 207.461 264.495 205.189C264.326 205.294 264.053 205.538 263.783 205.78C263.509 206.026 263.237 206.269 263.08 206.361C260.133 205.012 256.214 204.957 253.036 204.913C251.258 204.889 249.711 204.867 248.696 204.624C236.236 198.691 221.004 196.869 221.004 196.869L220.127 193.931C220.127 193.931 183.976 188.704 175.999 188.026C178.654 172.052 186.109 155.94 189.862 147.828L190.001 147.527L200.156 148.262L202.122 143.855C202.957 141.891 203.955 140.001 205.106 138.204C205.753 137.309 206.448 136.88 207.037 136.517C207.647 136.142 208.144 135.835 208.359 135.153C208.553 134.533 208.412 133.39 208.234 131.954C207.947 129.628 207.563 126.532 208.359 123.641C208.629 122.525 208.986 121.6 209.311 120.759C209.886 119.269 210.36 118.041 210.071 116.479C208.586 108.54 197.681 102 190.27 102C175.858 102 171.728 114.219 172.082 123.415C156.863 118.4 124.333 122.285 124.333 122.285L123.513 125.477C123.513 125.477 118.634 124.573 116.003 127.313C106.499 137.357 90.3752 158.39 90.3752 158.39C87.0657 158.461 84.6331 160.283 82.4832 163.306C80.7168 165.79 78.454 166.681 75.6791 167.774C75.0767 168.011 74.4501 168.258 73.7992 168.532C72.4556 168.999 72.993 171.612 74.0396 171.612C76.4298 171.852 79.4849 170.439 82.2286 169.027C81.0994 171.142 78.4987 172.9 76.4929 174.256C75.4841 174.938 74.6259 175.518 74.181 175.991C73.8275 176.372 73.7567 176.683 74.181 177.403C76.048 180.342 84.6331 178.449 88.1406 175.991C90.8419 174.14 93.6707 171.626 93.6707 171.626C93.6707 171.626 95.283 166.145 96.2446 165.439C98.7268 163.244 102.265 160.241 106.277 156.835C111.432 152.46 117.368 147.421 122.848 142.583C135.066 143.579 141.947 144.02 145.278 144.233C146.674 144.323 147.447 144.372 147.727 144.406L138.604 148.036C132.65 159.195 126.639 197.518 128.492 202.053C128.646 202.048 128.955 201.867 129.322 201.654C129.899 201.318 130.618 200.899 131.094 200.951C129.68 205.952 131.094 220.176 131.094 220.176C132.31 233.37 136.61 250.928 138.378 254.728L141.659 255.42C142.197 259.983 146.963 272.357 149.707 278.261C141.142 278.668 130.183 288.772 120.043 298.12C118.211 299.809 116.405 301.474 114.645 303.052C107.673 309.31 100.431 305.185 98.5784 304.069C96.6921 302.755 94.1768 302.789 92.327 304.154C92.2009 304.268 92.0785 304.385 91.96 304.506C91.8876 304.581 91.8165 304.656 91.7471 304.733C91.6482 304.846 91.6057 304.846 91.5067 304.846H91.3369L91.1672 304.747C90.842 304.536 90.3186 304.79 90.0074 305.298L89.2863 306.414C88.9467 306.937 88.9467 307.516 89.2863 307.728L89.6823 307.996C89.3145 308.745 88.9891 309.479 88.7062 310.157L88.3809 310.044C88.0133 309.917 87.5607 310.27 87.3485 310.849L86.9102 312.106C86.6979 312.685 86.8112 313.25 87.193 313.392L87.4901 313.505C86.5435 315.827 85.057 317.528 83.5435 319.26C82.0267 320.995 80.483 322.762 79.4282 325.215L78.9899 325.06C78.608 324.947 78.1697 325.3 77.9575 325.879L77.519 327.122C77.321 327.702 77.4342 328.281 77.7877 328.408L78.2404 328.563C77.8914 329.832 77.6407 331.126 77.4907 332.434H76.9816C76.6138 332.42 76.2461 332.9 76.2461 333.507V334.835C76.2178 335.457 76.5148 335.979 76.8966 335.979H77.321V340.556C77.4624 343.381 82.2288 344.751 83.6431 342.124C91.817 326.498 111.784 319.345 133.051 311.727C142.584 308.312 152.378 304.803 161.488 300.396C161.225 299.855 160.993 299.298 160.795 298.73C162.111 298.108 164.713 296.695 166.877 295.466C169.041 294.238 170.922 292.966 171.36 292.641C172.833 291.594 174.071 290.252 174.995 288.7C175.938 286.921 176.424 284.936 176.41 282.923C176.448 280.084 176.25 275.759 176.052 271.464L175.999 270.308C175.759 265.11 175.307 259.319 174.84 255.081C175.405 255.01 177.371 254.445 177.371 254.445L174.995 233.073L167.584 229.443L216.096 229.669C216.096 229.669 216.167 229.231 216.761 227.239C224.546 227.534 229.133 227.604 233.936 227.677C237.649 227.734 241.492 227.793 247.042 227.959C250.441 228 252.734 229.491 254.991 230.959C256.612 232.013 258.214 233.055 260.195 233.539C267.299 235.291 272.823 235.102 279.144 234.885C286.226 234.642 294.306 234.365 306.727 236.746C307.428 236.859 308.019 237.33 308.283 237.989C308.562 238.881 308.727 240.118 308.893 241.367C309.106 242.965 309.322 244.582 309.782 245.518C311.705 249.148 314.35 248.696 316.769 247.736L317.08 248.4C317.25 248.739 317.815 248.809 318.381 248.555L319.583 248.004C320.149 247.736 320.46 247.255 320.305 246.902L319.979 246.21L321.691 245.377L322.016 246.055C322.157 246.394 322.751 246.478 323.303 246.224L324.519 245.659C325.057 245.405 325.396 244.911 325.212 244.571L324.915 243.893C327.284 242.795 329.622 241.73 331.895 240.695C334.738 239.401 337.479 238.153 340.049 236.944L340.261 237.396C340.431 237.749 341.011 237.819 341.562 237.565L342.765 237C343.33 236.746 343.655 236.237 343.486 235.898L343.245 235.39L344.745 234.655L344.999 235.135C345.169 235.475 345.763 235.532 346.3 235.249L347.488 234.656C348.04 234.388 348.351 233.879 348.167 233.54L347.898 233.017L348.691 232.579ZM353.669 201.008C353.692 189.953 362.684 181.011 373.752 181.034L373.696 181.062C384.759 181.054 393.735 190 393.751 201.049V201.092C393.728 212.147 384.736 221.089 373.667 221.066C362.599 221.043 353.646 212.062 353.669 201.008Z" fill="#D20515"/>
</svg>
