<svg width="462" height="458" viewBox="0 0 462 458" fill="none" xmlns="http://www.w3.org/2000/svg">
<path d="M121.703 150.651C171.787 164.469 209.13 170.987 209.13 170.987C187.647 149.496 168.424 127.395 151.781 106.494C180.851 65.388 203.751 36.935 203.751 36.935C172.917 43.7658 143.768 52.1175 117.662 60.6951C92.859 25.0724 79.2408 0 79.2408 0C72.0015 26.7409 68.5079 53.5166 67.3347 78.6672C25.898 94.7187 0 107.833 0 107.833C22.4043 117.931 45.669 126.744 68.195 134.33C71.8451 182.694 81.622 216.265 81.622 216.265C94.1886 193.835 107.998 171.526 121.703 150.651" transform="translate(111.188 106.838)" fill="black"/>
<path d="M141.187 40.8545C134.374 51.5178 123.954 59.1221 111.77 64.4755C110.101 30.2693 104.869 0 104.869 0C94.4667 28.1054 83.4123 53.0474 72.7576 74.5739C36.0399 79.2842 0 73.8787 0 73.8787C19.7624 97.5866 35.1187 111.648 47.5462 121.138C28.957 152.476 15.4953 169.206 15.4953 169.206C41.4802 163.261 62.1377 153.389 78.5716 141.691C85.2981 146.306 91.086 151.46 96.8044 160.185C96.8044 160.185 107.407 145.15 111.04 110.327C137.294 75.9905 141.187 40.8545 141.187 40.8545" transform="translate(320.319 203.947)" fill="black"/>
<path d="M157.795 109.284C146.089 82.9604 129.229 63.1024 110.84 48.1459C95.162 15.2085 77.1116 0 77.1116 0C78.6325 7.57819 77.4766 16.1558 74.6609 25.0115C35.6141 5.65757 0 2.96349 0 2.96349C22.6824 17.8331 42.8186 36.2658 60.1129 55.2721C44.183 81.1962 23.23 103.07 23.23 103.07C51.0051 96.8132 73.3573 94.1799 91.2426 93.7019C118.687 131.497 133.47 163.244 133.47 163.244C134 137.694 131.445 115.411 127.178 96.1787C150.417 100.611 157.795 109.284 157.795 109.284" transform="translate(291.718 40.7027)" fill="black"/>
<path d="M194.217 43.6663C175.272 34.1414 157.143 27.5018 140.284 22.9392C161.749 4.78458 181.712 0.187261 181.712 0.187261C147.253 -1.17717 117.618 5.04529 92.8155 14.5876C55.7762 11.6328 32.1812 18.0551 32.1812 18.0551C37.7258 22.2353 42.4101 29.7092 47.1986 38.6431C15.8951 60.0741 0 82.4089 0 82.4089C18.8673 73.0405 38.8904 65.9403 58.6267 60.526C60.782 64.4802 63.0415 68.4258 65.5183 72.2844C78.589 92.6377 92.9372 106.838 92.9372 106.838C98.0646 82.4437 106.886 63.4461 117.027 48.7068C161.08 42.58 194.217 43.6663 194.217 43.6663" transform="translate(97.5007)" fill="black"/>
<path d="M50.8139 74.3306C62.6157 62.9199 76.9986 50.6227 94.4059 37.9344C94.4059 37.9344 78.3456 37.9344 61.3729 42.2536C72.6012 15.0695 85.0548 0 85.0548 0C85.0548 0 13.5747 50.8399 0 142.204C0 142.204 6.00517 125.683 26.3759 100.767C34.4582 118.879 43.7658 130.281 43.7658 130.281C43.8875 109.423 46.7119 90.6776 50.8139 74.3306" transform="translate(3.09482 44.4744)" fill="black"/>
<path d="M111.074 39.9159C86.2628 40.698 66.8046 42.8707 51.6482 45.643C47.3898 19.0932 46.738 0 46.738 0C34.4843 18.7021 26.5498 36.7351 21.6396 53.5253C4.3627 59.9303 0 66.1267 0 66.1267C2.69409 75.33 8.08226 84.29 14.887 92.6851C12.7578 132.462 25.6286 158.742 25.6286 158.742C28.5225 144.803 34.2931 131.228 41.541 118.54C62.7026 135.504 83.6643 146.567 83.6643 146.567C73.7918 128.864 66.5178 109.041 61.1818 89.852C84.9071 60.0693 111.074 39.9159 111.074 39.9159" transform="translate(0.12262 174.755)" fill="black"/>
<path d="M172.352 96.5351C172.352 96.5351 151.538 88.2269 121.738 71.4366C122.798 53.5253 125.562 30.7212 131.228 1.78159C131.228 1.78159 107.546 25.2201 76.877 43.3834C59.0786 31.0862 40.3678 16.6425 22.1958 0C22.1958 0 31.0428 27.3319 48.0851 57.4274C31.9119 63.4761 15.2433 66.2831 0 62.5549C0 62.5549 18.0069 85.0374 73.5485 94.5797C88.9482 112.856 107.711 127.952 129.611 133.201C129.611 133.201 123.015 125.961 121.547 98.7946C136.694 99.0032 153.563 98.334 172.352 96.5351" transform="translate(61.5912 321.322)" fill="black"/>
<path d="M106.66 42.4101C111.431 20.4316 107.85 0 107.85 0C93.7975 20.2056 79.9882 35.5879 67.2043 47.3029C32.8157 49.0844 5.97913 44.7044 5.97913 44.7044C5.97913 44.7044 21.3267 60.0346 39.0294 68.8816C15.6604 83.334 0 84.6203 0 84.6203C102.297 86.7842 163.687 19.997 163.687 19.997C146.445 31.373 126.483 38.3255 106.66 42.4101" transform="translate(227.964 373.152)" fill="black"/>
</svg>
