<svg width="446" height="449" viewBox="0 0 446 449" fill="none" xmlns="http://www.w3.org/2000/svg">
<path d="M12.29 27.12C21.32 14.23 34.65 4.46999 49.76 0.00999451C47.1 1.92999 44.78 4.27 42.59 6.7C50.65 5.75 59.04 6.49 66.5 9.88C67.18 17.05 68.03 24.2 68.96 31.34C70.22 24.24 70.82 17.03 71.59 9.86C79.03 6.5 87.41 5.74 95.46 6.72C93.3 4.24 90.95 1.93 88.28 0C103.37 4.46 116.66 14.21 125.71 27.06C123.04 25.36 120.26 23.86 117.37 22.57C120.68 29.88 122.51 37.91 121.76 45.96C115.26 49.08 108.53 51.74 102.16 55.13C109.25 54.11 116.24 52.41 123.27 51.01C128.68 57.16 132.1 64.82 133.68 72.82C134.72 70.91 135.97 69.07 136.56 66.95C136.89 66.08 137.04 64.48 138.16 64.34C137.37 72.34 136.78 80.5 133.96 88.13C131.68 95.18 127.79 101.53 123.72 107.67C124.43 104.66 124.93 101.6 125.37 98.54C119.4 103.93 112.3 108.17 104.4 109.98C99.36 104.62 94.56 99.01 89.35 93.81C92.6 100.37 96.49 106.61 100.01 113.03C95.88 120.07 89.62 125.63 82.54 129.58C85.61 130.19 88.7 130.72 91.84 130.78C77.12 135.69 60.94 135.69 46.22 130.79C49.35 130.72 52.44 130.18 55.5 129.59C48.43 125.62 42.16 120.08 38.04 113.03C41.58 106.61 45.43 100.35 48.73 93.8C43.48 98.98 38.71 104.63 33.64 109.98C25.75 108.16 18.65 103.94 12.7 98.54C13.09 101.62 13.63 104.67 14.33 107.69C10.58 102.03 6.94001 96.22 4.65001 89.78C1.61001 81.64 0.33 72.9 0 64.27C1.65 67 2.65 70.09 4.34 72.82C5.96 64.82 9.36 57.13 14.81 50.99C21.86 52.41 28.88 54.08 35.99 55.13C29.58 51.76 22.83 49.07 16.29 45.94C15.55 37.9 17.37 29.87 20.68 22.56C17.77 23.86 14.96 25.37 12.29 27.12ZM69.01 33.98C58.91 41.35 48.77 48.67 38.67 56.03C42.56 67.93 46.41 79.83 50.28 91.73C62.79 91.72 75.29 91.73 87.8 91.73C91.67 79.83 95.52 67.93 99.41 56.04C89.28 48.68 79.17 41.3 69.01 33.98Z" transform="translate(149.504 161.039)" fill="white"/>
<path d="M136.933 0.169267C138.833 -0.530733 140.503 1.04927 140.533 2.90927C145.983 32.3193 151.573 61.6993 156.903 91.1193C157.563 93.6393 154.653 94.2893 152.833 94.5393C124.313 99.8993 98.5034 118.149 84.0534 143.329C83.2634 145.109 81.3634 147.109 79.3534 145.569C53.5634 130.679 27.8533 115.669 2.09334 100.729C0.563344 100.119 -0.666651 98.3093 0.403349 96.7393C28.6733 46.4793 80.1933 10.2193 136.933 0.169267Z" transform="translate(62.2707)" fill="#931C81"/>
<path d="M15.5897 0.755035C68.5597 -3.99496 123.08 13.855 162.99 48.995C164.38 49.905 164.45 52.005 163.21 53.075C143.73 75.635 124.19 98.135 104.67 120.665C103.61 122.375 101.29 122.555 99.9897 121.005C78.0197 101.685 47.5097 92.475 18.5297 96.725C16.6597 97.015 13.6497 97.575 13.2897 94.975C8.79969 65.695 4.61969 36.365 0.20969 7.07503C-0.0203102 5.52503 -0.45031 3.25503 1.45969 2.60503C6.08969 1.54503 10.8697 1.26504 15.5897 0.755035Z" transform="translate(222.034 22.0742)" fill="#E52620"/>
<path d="M24.9174 0.327752C26.4174 -0.532248 27.9174 0.497746 29.2374 1.15775C55.2374 15.1777 81.3274 29.0277 107.297 43.0877C109.497 44.1077 108.627 46.6278 107.597 48.2078C93.8074 73.8078 91.8974 105.418 102.437 132.518C103.497 134.378 103.647 137.228 101.037 137.768C73.4474 148.448 45.8074 159.038 18.2074 169.698C16.6574 170.528 14.3074 170.568 13.7274 168.548C-6.24259 118.728 -4.25259 60.7777 18.5774 12.2478C20.6174 8.24775 22.2274 3.94775 24.9174 0.327752Z" transform="translate(4.17665 99.6515)" fill="#2D52A0"/>
<path d="M62.9786 0.885265C64.0386 -0.424735 65.9785 -0.204739 66.9985 1.04526C109.289 40.2653 132.699 98.8052 129.179 156.365C129.169 158.185 127.149 158.935 125.619 158.615C95.8885 157.175 66.1585 155.775 36.4385 154.275C33.6785 154.525 33.3485 151.395 33.6785 149.385C35.0185 120.315 23.0285 90.9753 1.77854 71.1253C0.0285406 69.9553 -0.861454 67.4053 1.15855 65.9953C21.7385 44.2753 42.3186 22.5353 62.9786 0.885265Z" transform="translate(315.526 104.634)" fill="#EF7D1B"/>
<path d="M64.8708 0.651523C79.5808 -1.30848 94.8708 1.17152 108.141 7.85152C123.721 15.5915 136.421 28.9315 143.351 44.8815C151.071 62.3615 151.621 82.8415 144.921 100.742C135.211 127.642 108.891 147.552 80.3008 149.292C64.3308 150.512 48.0108 146.422 34.5508 137.742C20.6308 128.872 9.77084 115.292 4.28085 99.7215C-2.21915 81.5615 -1.28916 60.8815 6.88084 43.4115C17.2908 20.5415 39.9108 3.77152 64.8708 0.651523ZM18.0608 35.9615C20.7308 34.2115 23.5408 32.7015 26.4508 31.4015C23.1408 38.7115 21.3208 46.7415 22.0608 54.7815C28.6008 57.9115 35.3508 60.6015 41.7608 63.9715C34.6508 62.9215 27.6308 61.2515 20.5808 59.8315C15.1308 65.9715 11.7308 73.6615 10.1108 81.6615C8.42083 78.9315 7.42084 75.8415 5.77084 73.1115C6.10084 81.7415 7.38084 90.4815 10.4208 98.6215C12.7108 105.062 16.3508 110.872 20.1008 116.532C19.4008 113.512 18.8608 110.462 18.4708 107.382C24.4208 112.782 31.5208 117.002 39.4108 118.822C44.4808 113.472 49.2508 107.822 54.5008 102.642C51.2008 109.192 47.3508 115.452 43.8108 121.872C47.9308 128.922 54.2008 134.462 61.2708 138.432C58.2108 139.022 55.1208 139.562 51.9908 139.632C66.7108 144.532 82.8908 144.532 97.6108 139.622C94.4708 139.562 91.3808 139.032 88.3108 138.422C95.3908 134.472 101.651 128.912 105.781 121.872C102.261 115.452 98.3708 109.212 95.1208 102.652C100.331 107.852 105.131 113.462 110.171 118.822C118.071 117.012 125.171 112.772 131.141 107.382C130.701 110.442 130.201 113.502 129.491 116.512C133.561 110.372 137.451 104.022 139.731 96.9715C142.551 89.3415 143.141 81.1815 143.931 73.1815C142.811 73.3215 142.661 74.9215 142.331 75.7915C141.741 77.9115 140.491 79.7515 139.451 81.6615C137.871 73.6615 134.451 66.0015 129.041 59.8515C122.011 61.2515 115.021 62.9515 107.931 63.9715C114.301 60.5815 121.031 57.9215 127.531 54.8015C128.281 46.7515 126.451 38.7215 123.141 31.4115C126.031 32.7015 128.811 34.2015 131.481 35.9015C122.431 23.0515 109.141 13.3015 94.0508 8.84153C96.7208 10.7715 99.0708 13.0815 101.231 15.5615C93.1808 14.5815 84.8008 15.3415 77.3608 18.7015C76.5908 25.8715 75.9908 33.0815 74.7308 40.1815C73.8008 33.0415 72.9508 25.8915 72.2708 18.7215C64.8108 15.3315 56.4208 14.5915 48.3608 15.5415C50.5508 13.1115 52.8708 10.7715 55.5308 8.85152C40.4208 13.3115 27.0908 23.0715 18.0608 35.9615Z" transform="translate(143.733 152.198)" fill="#000101"/>
<path d="M30.34 0C40.5 7.32 50.61 14.7 60.74 22.06C56.85 33.95 53 45.85 49.13 57.75C36.62 57.75 24.12 57.74 11.61 57.75C7.74 45.85 3.89 33.95 0 22.05C10.1 14.69 20.24 7.37 30.34 0Z" transform="translate(188.174 195.019)" fill="#000101"/>
<path d="M84.2641 0.417509C85.4741 -0.282491 87.3141 -0.172496 87.9041 1.2875C89.7141 4.8075 91.1641 8.5175 93.1941 11.9375C105.634 34.4675 127.004 51.8675 151.574 59.5175C153.004 60.0975 155.004 60.3275 155.354 62.1675C154.964 64.9375 153.904 67.5475 153.104 70.2175C144.924 96.4275 136.754 122.627 128.584 148.837C128.284 150.427 126.914 152.238 125.094 151.478C69.5341 135.068 22.3441 92.6475 0.174062 39.1375C-0.575938 37.3275 1.25406 36.1675 2.68406 35.6475C29.8841 23.9175 57.0441 12.0975 84.2641 0.417509Z" transform="translate(0 257.852)" fill="#4384C5"/>
<path d="M44.337 0.73999C44.757 0.55999 45.597 0.19 46.017 0C75.727 2.04 105.417 4.61 135.117 6.81C136.737 6.8 139.337 7.28 139.087 9.47C135.567 67.26 104.657 122.52 57.637 156.21C56.227 157.33 54.397 156.54 53.627 155.1C35.987 131.1 18.347 107.09 0.777006 83.04C-0.762994 81.54 0.187012 79.31 1.87701 78.44C25.607 61.38 41.197 33.6 43.477 4.47C43.697 3.22 43.527 1.79999 44.337 0.73999Z" transform="translate(277.017 269.449)" fill="#FFE609"/>
<path d="M113.519 0.766725C114.869 -0.533275 117.049 -0.123288 117.859 1.56671C134.479 26.2267 151.039 50.9367 167.609 75.6267C168.599 76.6967 168.949 78.6767 167.619 79.6267C119.929 112.767 57.129 122.907 1.399 106.647C-0.661 105.887 0.0290001 103.387 0.509 101.807C8.469 73.3267 16.159 44.7667 24.199 16.3167C24.959 13.5167 28.179 14.8767 30.099 15.3367C58.279 22.8767 89.489 17.2367 113.519 0.766725Z" transform="translate(133.955 333.803)" fill="#20A637"/>
</svg>
