<svg width="301" height="298" viewBox="0 0 301 298" fill="none" xmlns="http://www.w3.org/2000/svg">
<path d="M18.982 58.9948C27.3148 57.9916 32.4211 43.9909 30.5155 27.6815C28.6377 11.4277 20.2252 -0.926503 11.9193 0.054617C3.58556 1.05782 -1.61764 15.0584 0.455959 31.2949C2.34236 47.6216 10.7481 59.9759 18.982 58.9948Z" transform="translate(0.723877 140.361)" fill="#202632"/>
<path d="M69.153 33.6279C106.042 20.8791 134.807 7.52168 133.59 3.72872C132.764 1.4948 118.998 -0.812077 101.356 0.279443C104.905 0.850643 108.679 1.99592 111.175 3.56744L72.1924 21.1105L25.4586 33.3946C25.4586 33.3946 22.6621 33.145 19.6209 30.1758C7.42694 39.4033 -0.228095 47.6478 0.00518495 49.7204C0.406465 53.6727 32.218 46.323 69.153 33.6279Z" transform="translate(39.2358)" fill="#202632"/>
<path d="M28.4246 6.43776C17.6141 10.2278 8.40576 14.8406 0 19.8653C11.3731 17.6304 33.1997 12.7834 53.6381 0C47.28 0.75072 36.9898 3.46848 28.4246 6.43776Z" transform="translate(70.8096 2.1572)" fill="#202632"/>
<path d="M24.5347 0.106954C13.4208 1.34151 5.27616 15.0206 0 31.7572C10.943 25.57 25.4467 22.2618 25.4467 22.2618C25.4467 22.2618 39.9466 38.2487 53.137 73.1898C53.137 73.1898 53.137 111.508 46.7059 132.341C46.7059 132.341 28.6742 138.046 14.3146 134.093C23.5507 154.102 35.5037 159.379 48.3629 157.894C69.5242 155.587 78.5174 113.405 74.5574 74.8343C70.2749 33.1338 45.6432 -2.19993 24.5347 0.106954Z" transform="translate(2.75328 86.6829)" fill="#202632"/>
<path d="M36.4248 33.0824C56.5435 51.2149 73.0104 65.9672 73.2447 64.8219C73.4962 63.9819 62.7308 44.1147 42.0226 25.8219C29.1116 14.5563 17.3842 8.11858 12.8597 5.72338C5.02707 1.70002 0.0734649 -0.373583 0.00242493 0.0555366C-0.230855 0.949297 16.3983 15.0392 36.4248 33.0824Z" transform="translate(206.834 11.5961)" fill="#202632"/>
<path d="M69.9818 0.498395C26.4036 5.43376 -4.76376 47.0622 0.600718 93.269C5.14152 132.985 35.129 163.311 71.2125 167.854C71.2125 167.854 70.4628 159.861 69.5709 151.938C68.657 144.036 67.602 136.292 67.602 136.292L58.123 137.277C58.123 137.277 47.1636 126.904 38.6695 114.8C30.7562 103.498 25.0625 90.4802 25.0625 90.4802C25.0625 90.4802 29.203 76.229 34.5492 63.0491C39.8945 49.6917 46.6538 37.4075 46.6538 37.4075C46.6538 37.4075 59.2721 34.3682 72.5373 32.885C86.5562 31.3106 101.039 31.1493 101.039 31.1493C101.039 31.1493 110.769 40.8779 118.924 52.4997C127.325 64.2664 134.015 77.9454 134.015 77.9454C134.015 77.9454 132.116 91.0696 126.826 104.248C121.386 117.59 112.487 131.017 112.487 131.017L104.006 132.43C104.006 132.43 105.173 139.921 105.654 147.665C106.297 155.82 106.726 163.741 106.726 163.741C140.844 151.206 163.089 114.961 158.566 75.1566C153.27 29.0027 113.648 -4.52528 69.9818 0.498395Z" transform="translate(100.609 38.7436)" fill="#202632"/>
<path d="M19.5736 0.0337963C16.1963 -1.10956 9.27372 26.909 4.4094 61.0994C-0.36372 95.3599 -1.45332 123.809 2.08524 124.042C7.86156 124.362 21.4676 93.8037 25.5812 65.0508C30.5176 30.702 21.6318 0.768196 19.5736 0.0337963Z" transform="translate(273.378 106.855)" fill="#202632"/>
<path d="M70.177 1.47331C28.7309 7.73251 -4.72701 26.7741 0.549149 47.3748C2.85603 56.7636 11.5018 63.4327 28.7309 66.9012C22.6311 56.7636 21.4071 44.4765 21.4071 44.4765C21.4071 44.4765 37.1347 32.2836 73.0599 18.6928C73.0599 18.6928 106.338 21.8388 127.684 27.4365C127.684 27.4365 129.493 36.664 127.04 51.1667C141.454 41.5984 146.641 32.873 143.921 21.9108C140.452 7.82181 107.997 -4.30301 70.177 1.47331Z" transform="translate(95.3856 230.085)" fill="#202632"/>
<path d="M27.2843 0.842438C11.0565 3.4018 -1.13936 11.3919 0.0846416 18.7244C1.3096 26.0549 15.3198 29.9372 31.4651 27.3788C47.6325 24.8223 59.8254 16.7564 58.6658 9.41043C57.4283 1.98867 43.4296 -1.80524 27.2843 0.842438Z" transform="translate(143.969 269.608)" fill="#202632"/>
<path d="M54.3986 24.5876C52.6821 9.33316 39.0751 -1.61084 24.1432 0.194921C9.16145 1.84132 -1.5435 15.5213 0.182579 30.8448C1.91538 46.0071 15.4149 56.9511 30.4024 55.2346C45.4053 53.5018 56.1352 39.8218 54.3986 24.5876Z" transform="translate(155.082 94.8375)" fill="#202632"/>
</svg>
