<svg width="339" height="422" viewBox="0 0 339 422" fill="none" xmlns="http://www.w3.org/2000/svg">
<path d="M296.951 192.708C287.744 200.253 279.939 204.459 279.939 204.459L280.046 228.374C286.627 235.538 293.119 241.474 297.98 252.29C307.204 236.092 305.43 212.28 296.951 192.708H296.951ZM289.465 270.996C289.465 270.996 287.585 261.132 279.584 251.926L261.331 252.359C261.331 252.359 236.727 272.987 221.72 273.471C221.72 273.471 229.986 288.475 234.172 296.314C242.421 294.549 256.949 288.198 262.803 281.553C262.803 281.553 266.67 293.718 265.943 308.081C274.156 303.443 285.474 290.845 289.465 270.997V270.996ZM265.943 227.803L265.909 203.974C265.909 203.974 254.999 200.565 243.363 191.757C219.982 195.201 191.671 218.147 191.671 218.147C191.671 218.147 201.232 235.85 211.698 254.955C230.094 257.464 257.199 234.794 265.944 227.803H265.943ZM328.297 327.03L313.254 310.781C308.962 354.701 286.912 391.993 246.414 418.003L240.223 394.312C205.844 418.539 146.844 434.252 96.1636 406.287C102.461 374.965 108.049 343.228 96.0571 305.226C67.9939 347.623 43.1592 364.236 43.1592 364.236C24.1961 333.173 25.899 270.858 31.5578 252.515L0 262.05C0 241.111 15.4507 196.689 37.8375 171.735L18.1293 168.655H18.1098C31.5028 141.953 51.4948 118.938 75.9569 101.65L75.9911 101.63C68.6472 112.948 68.5407 140.878 90.0582 151.503C80.9226 135.877 79.8228 116.565 89.3664 106.562C98.91 96.4734 114.964 99.9344 125.217 107.756C122.166 99.0346 113.225 88.0632 99.8325 87.3191H99.813C125.109 74.6172 153.828 67.4702 184.215 67.4702C189.892 67.4702 195.551 67.7125 201.085 68.1971C209.919 71.6581 222.887 83.8062 228.936 91.3685C228.936 91.3685 229.361 82.4564 224.288 71.6927C257.194 79.5145 272.893 92.5798 279.474 98.8788C280.823 112.757 285.08 121.081 290.703 134.268C280.042 122.621 253.256 103.828 240.466 99.3288C240.466 99.3288 239.42 111.356 235.02 117.136C209.547 99.2076 197.041 94.691 197.041 94.691C169.084 98.6019 151.097 109.123 141.322 117.395L149.837 124.473C132.985 129.526 122.04 143.647 122.04 143.647C122.164 143.907 137.1 145.983 137.1 145.983C137.1 145.983 135.575 163.098 157.536 173.827C176.357 183.016 203.409 171.612 228.883 181.579C212.137 162.717 200.553 154.289 200.553 154.289C200.553 154.289 193.901 152.94 189.218 152.974C183.364 153.008 174.636 154.134 165.075 150.5C160.498 148.752 155.159 145.672 150.972 143.11C150.972 143.11 162.733 131.326 179.923 128.73C179.923 128.73 195.427 132.987 207.702 141.847C215.862 134.095 224.377 134.337 224.377 134.337C224.377 134.337 215.933 142.02 218.487 151.33C230.745 161.99 244.049 177.253 244.049 177.253C257.602 170.02 287.067 171.681 293.116 178.534C285.452 168.826 274.401 160.727 265.851 153.805C264.804 150.171 255.473 137.504 253.895 136.327C253.895 136.327 262.764 138.992 270.694 145.931C272.964 142.764 277.221 139.546 283.022 138.127C288.982 143.007 290.047 150.5 289.887 151.746C287.209 154.878 284.548 156.158 284.548 156.158L298.916 171.335L300.353 160.45C333.454 206.568 351.495 259.936 328.292 327.028L328.297 327.03ZM66.8892 35.1638C85.9765 43.6951 98.2342 54.4588 100.469 56.1028C99.4582 51.292 95.6975 28.1379 93.5333 13.7575C104.656 21.2852 130.466 38.7632 138.963 44.4392C142.422 34.0389 154.414 0.06922 154.414 0.06922C154.414 0.06922 176.091 34.2985 179.798 39.8534C184.322 35.233 210.221 7.11236 216.926 0C218.044 16.1802 219.569 39.317 219.96 42.7953C221.255 41.0821 231.171 27.515 247.792 15.0207C240.59 28.8647 237.149 47.9695 235.623 63.319C219.268 58.8716 202.008 56.4835 184.233 56.4835C150.085 56.4835 118.013 65.2399 90.2871 80.624C85.2492 65.7936 77.3552 47.3465 66.8892 35.1638" fill="#360C3A"/>
</svg>
