<svg width="337" height="178" viewBox="0 0 337 178" fill="none" xmlns="http://www.w3.org/2000/svg">
<path d="M172.071 80.568C150.327 77.683 141.617 88.582 147.236 92.549L172.071 82.048V80.568ZM162.898 98.223C174.253 98.107 183.424 93.797 183.396 89.005C183.367 87.449 182.928 86.446 181.201 85.193L157.18 96.086L157.168 97.991C159.164 98.223 160.72 98.248 162.898 98.223ZM214.806 67.789L184.8 81.999L184.841 83.912C188.618 86.091 189.32 88.1 189.333 91.234C189.38 98.211 178.214 103.962 164.415 104.128C158.431 104.171 151.703 102.613 147.393 100.894L115.727 116.448C115.727 116.448 134.477 123.447 166.448 123.447C208.324 123.447 244.484 107.18 244.214 89.791C244.076 80.613 231.634 72.95 214.806 67.789ZM140.071 93.66C140.071 93.66 139.467 92.46 139.734 91.159C142.264 77.216 169.981 77.099 176.381 80.45L211.499 65.747C197.561 61.962 179.443 60.6 164.41 60.741C122.452 61.2 84.9491 74.6 85.1881 92C85.3131 99.109 92.0011 105.841 102.619 111.384L140.055 95.789L140.071 93.66Z" fill="#988A50"/>
<path fill-rule="evenodd" clip-rule="evenodd" d="M207.443 1.214C207.443 1.214 206.756 1.13 206.818 0.547997C206.855 0.0949938 207.202 -0.000999274 207.533 7.80582e-06C207.634 7.80582e-06 207.733 0.0150072 207.814 0.0210039C276.712 5.581 330.26 36.587 335.654 75.948C336.848 84.8598 335.77 93.515 332.231 101.949C317.801 137.545 264.285 167.383 196.021 175.323C192.436 175.715 188.85 176.107 185.147 176.413C181.509 176.699 177.868 176.89 174.242 177.054C119.464 178.496 81.0541 163.894 74.3861 128.819C72.728 120.119 73.4121 108.618 76.6481 102.125C98.8991 124.621 144.561 132.451 186.02 128.4C227.622 124.341 262.574 108.978 280.239 89.49C289.149 79.665 293.67 68.772 292.408 57.745C290.156 38.4048 267.441 19.4429 236.673 8.62235C233.052 7.38648 229.375 6.23223 225.626 5.18862C225.034 5.02772 224.44 4.8698 223.843 4.71497C223.657 4.66685 223.5 4.62064 223.37 4.57641C218.214 3.21415 212.919 2.06876 207.443 1.214Z" fill="#D13A3C"/>
<path d="M108.247 175.972C71.8221 164.656 43.9691 141.04 42.3641 118.767C41.5371 107.574 46.4841 96.771 55.7251 87.202C74.0681 68.261 108.667 53.186 150.097 50.865C191.404 48.539 237.043 59.406 258.187 83.084C263.526 75.036 265.152 65.809 263.877 56.966C258.679 21.246 218.853 4.099 164.436 3.229C160.867 3.229 157.247 3.284 153.606 3.436C149.939 3.581 146.382 3.813 142.805 4.075C58.9731 10.372 -4.02893 51.248 0.201071 98.053C3.16107 130.039 36.5241 157.919 84.2681 172.279C96.4901 175.972 113.32 177.548 108.247 175.972Z" fill="#26A24C"/>
</svg>
