<svg height="511.969pt" viewBox="0 0 511.96907 511.96907" width="511.969pt" xmlns="http://www.w3.org/2000/svg"><path d="m414.722656 55.160156c-110.910156-87.667968-271.890625-68.828125-359.5625 42.085938-87.667968 110.910156-68.828125 271.894531 42.085938 359.5625 110.910156 87.667968 271.894531 68.828125 359.5625-42.085938 87.667968-110.910156 68.828125-271.890625-42.085938-359.5625zm0 0" fill="#f0a70a"/><path d="m450.78125 235.300781c5.21875 48.875-8.007812 97.582031-37.242188 137.144531-64.1875 86.871094-187.085937 105.328126-273.957031 41.140626-44.003906-32.515626-72.570312-82.382813-78.382812-136.816407-5.214844-48.875 8.011719-97.582031 37.242187-137.144531 31.09375-42.082031 76.714844-69.539062 128.460938-77.308594 51.742187-7.769531 103.414062 5.074219 145.496094 36.171875 44.003906 32.511719 72.574218 82.378907 78.382812 136.8125zm0 0" fill="#fed22b"/><path d="m340.519531 301.871094c0-20.601563-1.9375-41.570313-22.105469-55.46875 10.867188-10.335938 16.871094-26.664063 16.871094-46.863282 0-21.597656-7.109375-37.40625-21.136718-46.976562-2.195313-1.496094-4.394532-2.800781-6.675782-3.933594.066406-.613281.101563-1.238281.101563-1.871094v-24.347656c0-9.785156-7.929688-17.714844-17.714844-17.714844-9.78125 0-17.710937 7.929688-17.710937 17.714844v19.265625c-9.460938-.398437-20.957032-.40625-35.429688-.332031v-18.933594c0-9.785156-7.929688-17.714844-17.710938-17.714844s-17.714843 7.929688-17.714843 17.714844v19.113282c-2.566407.003906-5.195313.007812-7.898438.007812-12.09375 0-21.929687 9.839844-21.929687 21.933594s9.835937 21.929687 21.929687 21.929687h5.222657v141.398438h-5.214844c-12.09375 0-21.933594 9.839843-21.933594 21.929687 0 12.09375 9.839844 21.933594 21.933594 21.933594h7.890625v18.898438c0 9.78125 7.933593 17.710937 17.714843 17.710937s17.710938-7.929687 17.710938-17.710937v-18.90625l35.429688-.003907v18.910157c0 9.78125 7.929687 17.710937 17.710937 17.710937 9.785156 0 17.714844-7.929687 17.714844-17.710937v-24.351563c0-.390625-.035157-.773437-.058594-1.160156 20.886719-9.84375 33.003906-30.660157 33.003906-62.171875zm-100.882812-121.652344c34.75 0 54.628906-3.679688 54.628906 22.808594 0 30.394531-18.523437 25.710937-54.628906 25.710937zm0 151.726562v-66.253906c43.628906 0 59.859375-5.648437 59.859375 34.726563 0 21.804687-8.917969 31.53125-28.910156 31.53125h-30.949219zm0 0" fill="#e38803"/><path d="m175.898438 413.585938c29.707031 21.945312 63.625 34.230468 97.980468 37.425781-46.222656 4.277343-94.117187-7.738281-134.292968-37.425781-44.003907-32.515626-72.578126-82.382813-78.390626-136.8125-5.207031-48.882813 8.011719-97.585938 37.25-137.148438 31.085938-42.082031 76.707032-69.539062 128.453126-77.308594 15.957031-2.398437 31.914062-2.832031 47.582031-1.371094-3.746094.351563-7.511719.800782-11.269531 1.371094-51.742188 7.769532-97.363282 35.226563-128.449219 77.308594-29.242188 39.5625-42.460938 88.265625-37.25 137.148438 5.808593 54.429687 34.382812 104.296874 78.386719 136.8125zm0 0" fill="#fdc202"/></svg>