<?xml version="1.0" encoding="UTF-8"?>
<svg width="64px" height="64px" viewBox="0 0 64 64" version="1.1" xmlns="http://www.w3.org/2000/svg" xmlns:xlink="http://www.w3.org/1999/xlink">
    <!-- Generator: Sketch 54.1 (76490) - https://sketchapp.com -->
    <title>funds_declined</title>
    <desc>Created with Sketch.</desc>
    <g id="Icons" stroke="none" stroke-width="1" fill="none" fill-rule="evenodd">
        <g id="funds_declined">
            <g id="funds_received" fill-rule="nonzero">
                <path d="M51.8640351,7.00633525 C38.0272904,-3.93079916 17.9439571,-1.58040939 7.00633525,12.2568226 C-3.93079916,26.0935673 -1.58040939,46.1773879 12.2568226,57.1145224 C26.0935673,68.0516569 46.1773879,65.7012671 57.1145224,51.8640351 C68.0516569,38.0272904 65.7012671,17.9439571 51.8640351,7.00633525 Z" id="Path" fill="#F0A70A"></path>
                <path d="M56.3625731,29.4800195 C57.0136452,35.5774853 55.3635478,41.653996 51.7163742,46.5896686 C43.7085769,57.4273879 28.3762183,59.7300196 17.538499,51.7222223 C12.0487329,47.6656919 8.48489282,41.4444444 7.75974662,34.6535087 C7.10916179,28.5560429 8.75925932,22.4795322 12.4059454,17.5438596 C16.2850877,12.2938597 21.9766082,8.86842112 28.4322612,7.89912278 C34.8874269,6.92982456 41.3338206,8.53216374 46.5838207,12.4117933 C52.0735868,16.4678363 55.6379142,22.6890839 56.3625731,29.4800195 L56.3625731,29.4800195 Z" id="Path" fill="#FED22B"></path>
                <path d="M42.6067251,37.7850878 C42.6067251,35.2149122 42.3650097,32.5989278 39.8489278,30.8650098 C41.2046784,29.575536 41.9537037,27.538499 41.9537037,25.0185185 C41.9537037,22.324074 41.0667641,20.3518518 39.3167642,19.1578947 C39.042885,18.9712475 38.7685185,18.8084796 38.4839181,18.667154 C38.4922027,18.5906433 38.4965887,18.5126706 38.4965887,18.4337231 L38.4965887,15.3961988 C38.4965887,14.1754386 37.5073099,13.1861598 36.2865497,13.1861598 C35.0662768,13.1861598 34.0769981,14.1754386 34.0769981,15.3961988 L34.0769981,17.7997076 C32.8966862,17.75 31.4624756,17.7490253 29.6569201,17.7582846 L29.6569201,15.3961988 C29.6569201,14.1754386 28.6676413,13.1861598 27.4473684,13.1861598 C26.2270955,13.1861598 25.2373295,14.1754386 25.2373295,15.3961988 L25.2373295,17.7807018 C24.9171539,17.7811891 24.5891813,17.7816764 24.2519493,17.7816764 C22.7431774,17.7816764 21.5160819,19.0092593 21.5160819,20.5180312 C21.5160819,22.0268032 22.7431774,23.2538986 24.2519493,23.2538986 L24.9035088,23.2538986 L24.9035088,40.8942495 L24.252924,40.8942495 C22.7441521,40.8942495 21.5165692,42.1218323 21.5165692,43.6301169 C21.5165692,45.1388889 22.7441521,46.3664717 24.252924,46.3664717 L25.2373295,46.3664717 L25.2373295,48.7241716 C25.2373295,49.9444445 26.2270955,50.9337232 27.4473684,50.9337232 C28.6676413,50.9337232 29.6569201,49.9444445 29.6569201,48.7241716 L29.6569201,46.3654971 L34.0769981,46.3650097 L34.0769981,48.7241716 C34.0769981,49.9444445 35.0662768,50.9337232 36.2865497,50.9337232 C37.5073099,50.9337232 38.4965887,49.9444445 38.4965887,48.7241716 L38.4965887,45.6861598 C38.4965887,45.6374269 38.4922027,45.5896687 38.4892788,45.541423 C41.0950293,44.3133529 42.6067251,41.7163742 42.6067251,37.7850878 L42.6067251,37.7850878 Z M30.0209552,22.6081871 C34.3562378,22.6081871 36.8362573,22.1491227 36.8362573,25.4537037 C36.8362573,29.245614 34.5253412,28.661306 30.0209552,28.661306 L30.0209552,22.6081871 Z M30.0209552,41.537037 L30.0209552,33.2714425 C35.4639376,33.2714425 37.4887915,32.5667642 37.4887915,37.6038012 C37.4887915,40.324074 36.3762183,41.5375244 33.8820663,41.5375244 L30.0209552,41.5375244 L30.0209552,41.537037 Z" id="Shape" fill="#E38803"></path>
                <path d="M22.0692008,51.7222223 C25.7753412,54.460039 30.0068227,55.99269 34.292885,56.3913256 C28.5263158,56.9249512 22.5511696,55.425926 17.5389864,51.7222223 C12.0492202,47.6656919 8.4844054,41.4444444 7.7592592,34.6539962 C7.10964909,28.5555556 8.7587719,22.4795322 12.4064327,17.5438596 C16.2846004,12.2938597 21.9761209,8.86842112 28.4317739,7.89912278 C30.4225147,7.59990257 32.4132554,7.54580897 34.3679338,7.72807011 C33.9005848,7.77192982 33.4307992,7.82797274 32.9619884,7.89912278 C26.5068226,8.86842112 20.8153021,12.2938597 16.9371345,17.5438596 C13.2889863,22.4795322 11.6398635,28.5555556 12.289961,34.6539962 C13.0146198,41.4444444 16.5794347,47.6656919 22.0692008,51.7222223 L22.0692008,51.7222223 Z" id="Path" fill="#FDC202"></path>
            </g>
            <g id="Icons-/-Main-/-Error-Copy" transform="translate(40.000000, 40.000000)">
                <path d="M12,0 C5.38279688,0 0,5.38279688 0,12 C0,18.6172031 5.38279688,24 12,24 C18.6172031,24 24,18.6162656 24,12 C24,5.38373438 18.6172031,0 12,0 Z" id="Path" fill="#F64747"></path>
                <path d="M8.68374895,16.4214148 C8.37858713,16.7261994 7.88388389,16.7261994 7.57889598,16.4214405 C7.27370062,16.1167703 7.27370062,15.6225494 7.57889752,15.3179023 L10.90268,11.9999356 L7.57897427,8.68206478 C7.27380468,8.37729701 7.27380468,7.88313581 7.57897427,7.57849134 C7.88402747,7.27383979 8.37866777,7.27383979 8.68382214,7.57846908 L12,10.8888896 L15.316177,7.5784699 C15.6213322,7.27383979 16.1159725,7.27383979 16.4210043,7.5784699 C16.7261953,7.88313581 16.7261953,8.37729701 16.4210024,8.68208807 L13.09732,11.9999356 L16.4210997,15.3178995 C16.7262994,15.6225494 16.7262994,16.1167703 16.4211555,16.421389 C16.1161161,16.7261994 15.6214129,16.7261994 15.3162784,16.4214421 L12,13.1109723 L8.68374895,16.4214148 Z" id="Path" fill="#FFFFFF" fill-rule="nonzero"></path>
            </g>
        </g>
    </g>
</svg>