<?xml version="1.0" encoding="UTF-8"?>
<svg width="64px" height="64px" viewBox="0 0 64 64" version="1.1" xmlns="http://www.w3.org/2000/svg" xmlns:xlink="http://www.w3.org/1999/xlink">
    <!-- Generator: Sketch 54.1 (76490) - https://sketchapp.com -->
    <title>micro_funds_received</title>
    <desc>Created with Sketch.</desc>
    <g id="Icons" stroke="none" stroke-width="1" fill="none" fill-rule="evenodd">
        <g id="micro_funds_received" fill-rule="nonzero">
            <g id="Combined-Shape">
                <path d="M26.6119722,0.59258772 L32,10.5747418 L24,21.2425599 L34.6496791,40 L32.0603666,21.2425599 L40,10.5747418 L35.4924968,0.305416738 C41.2773874,0.925096436 46.9626224,3.13205623 51.8640351,7.00633525 C65.7012671,17.9439571 68.0516569,38.0272904 57.1145224,51.8640351 C46.1773879,65.7012671 26.0935673,68.0516569 12.2568226,57.1145224 C-1.58040939,46.1773879 -3.93079916,26.0935673 7.00633525,12.2568226 C12.0838837,5.83319445 19.1324014,1.88506666 26.6119722,0.59258772 Z" fill="#F0A70A"></path>
                <path d="M30.4376734,7.68029028 L32,10.5747418 L24,21.2425599 L34.6496791,40 L32.0603666,21.2425599 L40,10.5747418 L39.1638297,8.6697172 C41.7979651,9.47145854 44.3037247,10.7268547 46.5838207,12.4117933 C52.0735868,16.4678363 55.6379142,22.6890839 56.3625731,29.4800195 C57.0136452,35.5774853 55.3635478,41.653996 51.7163742,46.5896686 C43.7085769,57.4273879 28.3762183,59.7300196 17.538499,51.7222223 C12.0487329,47.6656919 8.48489282,41.4444444 7.75974662,34.6535087 C7.10916179,28.5560429 8.75925932,22.4795322 12.4059454,17.5438596 C16.2850877,12.2938597 21.9766082,8.86842112 28.4322612,7.89912278 C29.1012669,7.79866587 29.7701782,7.72583093 30.4376734,7.68029028 Z" fill="#FED22B"></path>
                <path d="M37.6852515,13.6848748 C38.1805277,14.0901305 38.4965887,14.7061871 38.4965887,15.3961988 L38.4965887,18.4337231 C38.4965887,18.5126706 38.4922027,18.5906433 38.4839181,18.667154 C38.7685185,18.8084796 39.042885,18.9712475 39.3167642,19.1578947 C41.0667641,20.3518518 41.9537037,22.324074 41.9537037,25.0185185 C41.9537037,27.538499 41.2046784,29.575536 39.8489278,30.8650098 C42.3650097,32.5989278 42.6067251,35.2149122 42.6067251,37.7850878 C42.6067251,41.7163742 41.0950293,44.3133529 38.4892788,45.541423 C38.4922027,45.5896687 38.4965887,45.6374269 38.4965887,45.6861598 L38.4965887,48.7241716 C38.4965887,49.9444445 37.5073099,50.9337232 36.2865497,50.9337232 C35.0662768,50.9337232 34.0769981,49.9444445 34.0769981,48.7241716 L34.0769981,46.3650097 L29.6569201,46.3654971 L29.6569201,48.7241716 C29.6569201,49.9444445 28.6676413,50.9337232 27.4473684,50.9337232 C26.2270955,50.9337232 25.2373295,49.9444445 25.2373295,48.7241716 L25.2373295,46.3664717 L24.252924,46.3664717 C22.7441521,46.3664717 21.5165692,45.1388889 21.5165692,43.6301169 C21.5165692,42.1218323 22.7441521,40.8942495 24.252924,40.8942495 L24.9035088,40.8942495 L24.9035088,23.2538986 L24.2519493,23.2538986 C22.7431774,23.2538986 21.5160819,22.0268032 21.5160819,20.5180312 C21.5160819,19.0092593 22.7431774,17.7816764 24.2519493,17.7816764 C24.5891813,17.7816764 24.9171539,17.7811891 25.2373295,17.7807018 L25.2373295,15.3961988 C25.2373295,14.1754386 26.2270955,13.1861598 27.4473684,13.1861598 C28.219597,13.1861598 28.8993178,13.5823435 29.2943546,14.1826583 L24,21.2425599 L30.8268555,33.2668032 C30.5669807,33.2696114 30.2984088,33.2714425 30.0209552,33.2714425 L30.0209552,41.537037 L30.0209552,41.5375244 L33.8820663,41.5375244 C36.3762183,41.5375244 37.4887915,40.324074 37.4887915,37.6038012 C37.4887915,33.9301582 36.4117379,33.3106294 33.7171227,33.2443958 L33.0887849,28.6926052 C35.5712442,28.6691698 36.8362573,28.2592244 36.8362573,25.4537037 C36.8362573,22.7645602 35.1939658,22.567737 32.2460519,22.5876967 L32.0603666,21.2425599 L37.6852515,13.6848748 Z" fill="#E38803"></path>
                <path d="M30.4376037,7.68016129 L30.7858773,8.32539189 C25.232855,9.6730452 20.3732379,12.8922962 16.9371345,17.5438596 C13.2889863,22.4795322 11.6398635,28.5555556 12.289961,34.6539962 C13.0146198,41.4444444 16.5794347,47.6656919 22.0692008,51.7222223 C25.7753412,54.460039 30.0068227,55.99269 34.292885,56.3913256 C28.5263158,56.9249512 22.5511696,55.425926 17.5389864,51.7222223 C12.0492202,47.6656919 8.4844054,41.4444444 7.7592592,34.6539962 C7.10964909,28.5555556 8.7587719,22.4795322 12.4064327,17.5438596 C16.2846004,12.2938597 21.9761209,8.86842112 28.4317739,7.89912278 C29.1008402,7.79855812 29.7699065,7.72568196 30.4376037,7.68016129 Z" fill="#FDC202"></path>
            </g>
            <polygon id="Path-2" fill="#C37400" points="22.8118533 21.1601447 35.9906598 45.0029547 33.1028241 21.5181527 41.1453237 10.7107104 36.821432 0.471533824 34.693956 0.123374194 38.8546763 10.4387731 31.0199829 20.966967 32.7452077 34.9970453 25.1881467 21.324975 33.1775085 10.6713428 27.32164 0.444076538 25.4802856 0.811416626 30.8224915 10.4781408"></polygon>
        </g>
    </g>
</svg>