<?xml version="1.0" encoding="UTF-8"?>
<svg width="75px" height="54px" viewBox="0 0 75 54" version="1.1" xmlns="http://www.w3.org/2000/svg" xmlns:xlink="http://www.w3.org/1999/xlink">
    <!-- Generator: Sketch 54.1 (76490) - https://sketchapp.com -->
    <title>payout_confirmed</title>
    <desc>Created with Sketch.</desc>
    <g id="Icons" stroke="none" stroke-width="1" fill="none" fill-rule="evenodd">
        <g id="payout_confirmed">
            <g id="delivery-truck-copy-2" transform="translate(0.000000, 12.000000)" fill-rule="nonzero">
                <g id="Group" transform="translate(0.000000, 4.666667)" fill="#FFC107">
                    <path d="M18.75,2.33333333 C18.75,1.04533333 17.7,0 16.40625,0 L2.34375,0 C1.05,0 0,1.04533333 0,2.33333333 C0,3.62133333 1.05,4.66666667 2.34375,4.66666667 L16.40625,4.66666667 C17.7,4.66666667 18.75,3.62133333 18.75,2.33333333 Z" id="Path"></path>
                    <path d="M16.40625,9.33333333 L7.03125,9.33333333 C5.7375,9.33333333 4.6875,10.3786667 4.6875,11.6666667 C4.6875,12.9546667 5.7375,14 7.03125,14 L16.40625,14 C17.7,14 18.75,12.9546667 18.75,11.6666667 C18.75,10.3786667 17.7,9.33333333 16.40625,9.33333333 Z" id="Path"></path>
                    <path d="M16.40625,18.6666667 L11.71875,18.6666667 C10.425,18.6666667 9.375,19.712 9.375,21 C9.375,22.288 10.425,23.3333333 11.71875,23.3333333 L16.40625,23.3333333 C17.7,23.3333333 18.75,22.288 18.75,21 C18.75,19.712 17.7,18.6666667 16.40625,18.6666667 Z" id="Path"></path>
                </g>
                <path d="M74.6671875,22.134 L67.6359375,10.4673333 C67.2140625,9.76266667 66.45,9.33333333 65.625,9.33333333 L49.21875,9.33333333 C47.925,9.33333333 46.875,10.3786667 46.875,11.6666667 L46.875,35 C46.875,36.288 47.925,37.3333333 49.21875,37.3333333 L72.65625,37.3333333 C73.95,37.3333333 75,36.288 75,35 L75,23.3333333 C75,22.9086667 74.8875,22.4933333 74.6671875,22.134 Z" id="Path" fill="#F44336"></path>
                <polygon id="Path" fill="#FAFAFA" points="56.25 14 64.2984375 14 69.9234375 23.3333333 56.25 23.3333333"></polygon>
                <path d="M49.21875,0 L16.40625,0 C15.1125,0 14.0625,1.04533333 14.0625,2.33333333 L14.0625,35 C14.0625,36.288 15.1125,37.3333333 16.40625,37.3333333 L51.5625,37.3333333 L51.5625,2.33333333 C51.5625,1.04533333 50.5125,0 49.21875,0 Z" id="Path" fill="#FFC107"></path>
                <ellipse id="Oval" fill="#FAFAFA" cx="63.28125" cy="35" rx="4.6875" ry="4.66666667"></ellipse>
                <path d="M63.28125,42 C59.4046875,42 56.25,38.8593333 56.25,35 C56.25,31.1406667 59.4046875,28 63.28125,28 C67.1578125,28 70.3125,31.1406667 70.3125,35 C70.3125,38.8593333 67.1578125,42 63.28125,42 Z M63.28125,32.6666667 C61.9921875,32.6666667 60.9375,33.7166667 60.9375,35 C60.9375,36.2833333 61.9921875,37.3333333 63.28125,37.3333333 C64.5703125,37.3333333 65.625,36.2833333 65.625,35 C65.625,33.7166667 64.5703125,32.6666667 63.28125,32.6666667 Z" id="Shape" fill="#455A64"></path>
                <path d="M51.5625,37.3333333 L16.40625,37.3333333 C15.1125,37.3333333 14.0625,36.288 14.0625,35 L14.0625,28 L51.5625,28 L51.5625,37.3333333 Z" id="Path" fill="#F44336"></path>
                <ellipse id="Oval" fill="#FAFAFA" cx="30.46875" cy="35" rx="4.6875" ry="4.66666667"></ellipse>
                <path d="M30.46875,42 C26.5921875,42 23.4375,38.8593333 23.4375,35 C23.4375,31.1406667 26.5921875,28 30.46875,28 C34.3453125,28 37.5,31.1406667 37.5,35 C37.5,38.8593333 34.3453125,42 30.46875,42 Z M30.46875,32.6666667 C29.175,32.6666667 28.125,33.7166667 28.125,35 C28.125,36.2833333 29.175,37.3333333 30.46875,37.3333333 C31.7625,37.3333333 32.8125,36.2833333 32.8125,35 C32.8125,33.7166667 31.7625,32.6666667 30.46875,32.6666667 Z" id="Shape" fill="#455A64"></path>
                <path d="M38.0859375,17.2669676 C38.0859375,15.7676017 37.9449161,14.2415123 36.4769854,13.2299948 C37.2679564,12.4777533 37.7049522,11.289405 37.7049522,9.81932143 C37.7049522,8.24746073 37.1874946,7.09692349 36.1665109,6.40040358 C36.0067245,6.29151902 35.8466538,6.19656491 35.6806125,6.11411965 C35.6854458,6.06948554 35.6880048,6.02399852 35.6880048,5.97794288 L35.6880048,4.20593931 C35.6880048,3.49378323 35.1108404,2.91666667 34.3986254,2.91666667 C33.6866947,2.91666667 33.1095305,3.49378323 33.1095305,4.20593931 L33.1095305,5.6080766 C32.4209137,5.57907866 31.5841677,5.57851003 30.5307718,5.58391164 L30.5307718,4.20593931 C30.5307718,3.49378323 29.9536075,2.91666667 29.2416768,2.91666667 C28.529746,2.91666667 27.9522975,3.49378323 27.9522975,4.20593931 L27.9522975,5.59698919 C27.7655009,5.59727346 27.5741554,5.59755774 27.3774077,5.59755774 C26.4971611,5.59755774 25.78125,6.31369398 25.78125,7.19386775 C25.78125,8.07404152 26.4971611,8.7898934 27.3774077,8.7898934 L27.7575401,8.7898934 L27.7575401,19.0807623 L27.3779764,19.0807623 C26.4977298,19.0807623 25.7815343,19.7968985 25.7815343,20.676788 C25.7815343,21.5569618 26.4977298,22.273098 27.3779764,22.273098 L27.9522975,22.273098 L27.9522975,23.6485117 C27.9522975,24.3603835 28.529746,24.9375 29.2416768,24.9375 C29.9536075,24.9375 30.5307718,24.3603835 30.5307718,23.6485117 L30.5307718,22.2725295 L33.1095305,22.2722451 L33.1095305,23.6485117 C33.1095305,24.3603835 33.6866947,24.9375 34.3986254,24.9375 C35.1108404,24.9375 35.6880048,24.3603835 35.6880048,23.6485117 L35.6880048,21.8762238 C35.6880048,21.8477944 35.6854458,21.8199336 35.68374,21.7917885 C37.203985,21.075368 38.0859375,19.560366 38.0859375,17.2669676 L38.0859375,17.2669676 Z M30.7431569,8.41320406 C33.2724443,8.41320406 34.7193354,8.14539922 34.7193354,10.0731959 C34.7193354,12.2852863 33.3711025,11.944418 30.7431569,11.944418 L30.7431569,8.41320406 Z M30.7431569,19.4557459 L30.7431569,14.6338379 C33.9186977,14.6338379 35.1000364,14.222749 35.1000364,17.1612102 C35.1000364,18.7481385 34.4509398,19.4560302 32.9958035,19.4560302 L30.7431569,19.4560302 L30.7431569,19.4557459 Z" id="Shape-Copy-3" fill="#E38803"></path>
            </g>
            <g id="Icons-/-Main-/-Checkmark-Copy-2" transform="translate(47.000000, 0.000000)">
                <path d="M12,0 C5.38279688,0 0,5.38279688 0,12 C0,18.6172031 5.38279688,24 12,24 C18.6172031,24 24,18.6162656 24,12 C24,5.38373438 18.6172031,0 12,0 Z" id="Path" fill="#00B16A"></path>
                <path d="M18.1620452,8.48026913 C18.4651352,8.78561883 18.4629121,9.27883739 18.1570174,9.58320947 L11.470138,16.2134804 C11.3178713,16.3646788 11.1107399,16.4460537 10.8951352,16.4394497 L10.8807947,16.4377239 C10.6719104,16.4267767 10.4772047,16.3329266 10.3379312,16.1757973 L7.09614242,12.515489 C6.81031414,12.1931035 6.84046416,11.700706 7.16314385,11.4153659 C7.48485158,11.1294021 7.97641961,11.1595035 8.26361236,11.4825823 L10.853209,14.4067165 L10.9656976,14.5192052 L11.0711174,14.4137854 L17.0601565,8.47552682 C17.3659082,8.1728161 17.859938,8.17527324 18.1620452,8.48026913 Z" id="Path" fill="#FFFFFF"></path>
            </g>
        </g>
    </g>
</svg>