<?xml version="1.0" encoding="UTF-8"?>
<svg width="64px" height="64px" viewBox="0 0 64 64" version="1.1" xmlns="http://www.w3.org/2000/svg" xmlns:xlink="http://www.w3.org/1999/xlink">
    <!-- Generator: Sketch 54.1 (76490) - https://sketchapp.com -->
    <title>play_confirmed</title>
    <desc>Created with Sketch.</desc>
    <g id="Icons" stroke="none" stroke-width="1" fill="none" fill-rule="evenodd">
        <g id="play_confirmed">
            <g fill-rule="nonzero">
                <path d="M63.96375,30.46875 C63.96,30.38875 63.95625,30.3075 63.95125,30.2275 C63.95,30.18 63.94625,30.1325 63.94375,30.08375 C63.925,29.765 63.90125,29.44625 63.87375,29.1275 C63.84125,28.7625 63.8025,28.39875 63.75875,28.03625 C63.7425,27.90625 63.72625,27.775 63.7075,27.645 C63.69,27.515 63.6725,27.385 63.6525,27.25625 C63.6125,26.985 63.57,26.71375 63.5225,26.445 C63.5025,26.3275 63.48125,26.21 63.45875,26.09375 C63.435,25.965 63.41125,25.83625 63.385,25.70875 C63.36,25.58 63.33375,25.4525 63.30625,25.325 C63.25625,25.08625 63.20375,24.84875 63.1475,24.6125 C63.115,24.4775 63.0825,24.3425 63.05,24.2075 C62.825,23.305 62.56125,22.415 62.25875,21.53875 C62.21625,21.41375 62.1725,21.29 62.1275,21.16625 C62.00125,20.81125 61.8675,20.4575 61.72625,20.1075 C61.67875,19.9875 61.63,19.8675 61.58,19.7475 C61.5375,19.64375 61.49375,19.54125 61.45,19.4375 C61.40125,19.3225 61.35125,19.2075 61.3,19.09375 C61.255,18.99125 61.21,18.89 61.16375,18.78875 C61.1275,18.7075 61.09,18.6275 61.0525,18.54625 C61.04,18.51625 61.025,18.4875 61.01125,18.4575 C60.97125,18.3725 60.93125,18.28625 60.89,18.20125 C60.7975,18.005 60.70125,17.81125 60.60375,17.61875 C60.5475,17.505 60.48875,17.3925 60.43,17.27875 C60.29625,17.02 60.1575,16.7625 60.015,16.5075 C59.97875,16.44 59.9425,16.37375 59.90375,16.3075 C59.87375,16.2525 59.8425,16.19875 59.81125,16.145 L59.81,16.145 C59.76625,16.0675 59.72375,15.99 59.67875,15.91375 C59.61,15.7975 59.5425,15.6825 59.47375,15.56875 C59.2325,15.16625 58.98125,14.76875 58.72125,14.37625 C58.5875,14.175 58.45375,13.97625 58.315,13.7775 C58.22375,13.645 58.13125,13.515 58.0375,13.385 C57.96,13.27625 57.88125,13.1675 57.80125,13.06 C57.7675,13.0125 57.7325,12.96625 57.6975,12.92 C57.56875,12.74625 57.4375,12.575 57.305,12.405 C57.14375,12.1975 56.97875,11.99125 56.81125,11.78625 C56.76875,11.735 56.72625,11.6825 56.6825,11.63 C56.295,11.16125 55.89375,10.70375 55.4775,10.255 C55.41875,10.1925 55.36,10.12875 55.3,10.065 L55.28875,10.05375 C55.205,9.965 55.12125,9.87625 55.035,9.78875 C54.90125,9.64875 54.765,9.51 54.6275,9.3725 C54.52875,9.27375 54.43,9.17625 54.33,9.08 C54.27125,9.02125 54.21125,8.96375 54.15125,8.90625 C54.06125,8.81875 53.97,8.7325 53.8775,8.64625 C53.7675,8.5425 53.65625,8.44 53.545,8.33875 C53.4225,8.22625 53.29875,8.11625 53.175,8.00625 C53.0425,7.88875 52.91,7.7725 52.775,7.65875 C52.68875,7.5825 52.6,7.50875 52.51125,7.435 C52.4075,7.3475 52.3025,7.26125 52.1975,7.175 C52.0925,7.08875 51.9875,7.00375 51.88125,6.92 C51.795,6.85125 51.7075,6.7825 51.62,6.71375 C51.5275,6.6425 51.435,6.57 51.34125,6.5 C51.28125,6.45375 51.22125,6.40875 51.16125,6.36375 C51.08875,6.30875 51.01625,6.25375 50.9425,6.2 C50.90625,6.17375 50.87,6.1475 50.83375,6.12 C50.76125,6.06875 50.69,6.01625 50.61625,5.96375 C50.4975,5.8775 50.37875,5.79375 50.2575,5.71 C50.0375,5.555 49.815,5.405 49.59,5.25625 C49.46125,5.17125 49.3325,5.0875 49.2025,5.005 C49.085,4.93 48.9675,4.855 48.85,4.7825 C48.82,4.7625 48.7875,4.7425 48.75625,4.72375 C48.66,4.66375 48.5625,4.60625 48.46625,4.5475 C48.4275,4.52375 48.38875,4.50125 48.35,4.4775 C48.23125,4.40625 48.1125,4.33625 47.9925,4.2675 C47.86,4.19 47.7275,4.115 47.5925,4.04 C47.53125,4.005 47.47,3.97125 47.4075,3.9375 C47.0575,3.74375 46.70375,3.5575 46.345,3.37875 C46.26,3.335 46.175,3.2925 46.08875,3.25125 C46.00375,3.20875 45.91875,3.1675 45.8325,3.12625 C45.74625,3.085 45.66125,3.04375 45.575,3.00375 C45.48875,2.9625 45.4025,2.9225 45.31625,2.88375 C44.84625,2.66875 44.37125,2.465 43.8925,2.27375 C43.7725,2.225 43.65125,2.1775 43.53,2.13125 C43.40875,2.085 43.2875,2.03875 43.16625,1.99375 C43.07375,1.95875 42.98125,1.925 42.8875,1.89125 C42.7225,1.83125 42.5575,1.77375 42.39125,1.7175 C42.2825,1.68 42.17375,1.64375 42.065,1.6075 C41.36375,1.375 40.65375,1.16875 39.93625,0.98625 C39.84125,0.9625 39.745,0.93875 39.64875,0.915 C39.54,0.88875 39.4325,0.8625 39.3225,0.8375 C39.23125,0.815 39.14,0.795 39.0475,0.77375 C38.92375,0.74625 38.8,0.72 38.675,0.69375 C38.58875,0.675 38.5025,0.6575 38.415,0.64 C38.34875,0.62625 38.28375,0.61375 38.2175,0.60125 C37.5425,0.4675 36.8625,0.3575 36.17625,0.26875 C36.08375,0.25625 35.99,0.245 35.89625,0.23375 C35.59875,0.1975 35.30125,0.16625 35.0025,0.13875 C35,0.1375 34.99875,0.1375 34.9975,0.13875 C34.89375,0.1275 34.78875,0.11875 34.68375,0.11125 C34.415,0.0875 34.145,0.06875 33.875,0.055 C33.81125,0.05 33.74625,0.04625 33.6825,0.04375 C33.61875,0.04 33.555,0.0375 33.49,0.035 C33.46625,0.03375 33.44375,0.0325 33.42,0.0325 C33.2725,0.025 33.125,0.02 32.9775,0.015 C32.9575,0.01375 32.93625,0.01375 32.915,0.01375 C32.765,0.00875 32.615,0.005 32.46375,0.00375 C32.31,0.00125 32.155,0 32,0 C31.3725,0 30.7475,0.0175 30.125,0.055 C25.6775,0.30875 21.40125,1.47125 17.51125,3.45125 C17.40125,3.5075 17.2925,3.56375 17.18375,3.62125 C16.85625,3.79125 16.53,3.96875 16.20875,4.1525 C15.55125,4.52625 14.90625,4.92375 14.275,5.345 C13.9675,5.55125 13.66375,5.7625 13.3625,5.97875 C11.95625,6.99 10.62125,8.12375 9.3725,9.3725 C8.0725,10.6725 6.8975,12.06625 5.855,13.53625 C5.62625,13.8575 5.405,14.1825 5.18875,14.51125 C4.50125,15.56125 3.87875,16.64625 3.32375,17.76375 C1.40375,21.62125 0.2825,25.85125 0.0475,30.24625 C0.01625,30.82875 0,31.4125 0,32 C0,32.66875 0.02,33.33375 0.06125,33.99625 C0.08125,34.33625 0.1075,34.675 0.14,35.01375 C0.47375,38.62125 1.40875,42.10125 2.89375,45.33875 C3.06625,45.71375 3.245,46.085 3.4325,46.4525 C3.99625,47.565 4.6275,48.64625 5.3225,49.69125 C6.4925,51.4475 7.84625,53.10125 9.3725,54.6275 C10.9475,56.2025 12.65875,57.59375 14.4775,58.7875 C15.52625,59.4775 16.61125,60.1025 17.72875,60.65875 C18.04375,60.81625 18.36125,60.96875 18.68125,61.115 C21.93375,62.605 25.4325,63.53875 29.0575,63.86625 C29.43875,63.9025 29.82125,63.93 30.205,63.95 C30.8,63.98375 31.39875,64 32,64 C32.19875,64 32.39625,63.99875 32.59375,63.99375 C32.6975,63.9925 32.80125,63.99 32.90375,63.98625 C32.91375,63.9875 32.92375,63.9875 32.93375,63.98625 C32.9725,63.985 33.01125,63.985 33.05,63.9825 C33.05625,63.9825 33.06375,63.9825 33.07,63.98125 C33.2025,63.9775 33.335,63.9725 33.4675,63.96625 C33.61125,63.96 33.755,63.9525 33.8975,63.94375 C33.91625,63.94375 33.935,63.9425 33.955,63.94125 C34.1,63.9325 34.245,63.92375 34.38875,63.9125 C34.6525,63.8925 34.91625,63.87 35.17875,63.845 C35.31625,63.83125 35.455,63.8175 35.5925,63.80125 C35.72875,63.78625 35.865,63.77 36,63.75375 C36.11875,63.74 36.23625,63.72375 36.355,63.7075 C36.43625,63.6975 36.51625,63.68625 36.5975,63.67375 C36.65375,63.66625 36.71,63.6575 36.76625,63.64875 C36.88875,63.63125 37.01125,63.6125 37.1325,63.5925 C37.225,63.57875 37.31625,63.56375 37.4075,63.5475 C37.47625,63.53625 37.54625,63.52375 37.615,63.51125 C37.6275,63.51 37.64,63.5075 37.6525,63.505 C37.72375,63.4925 37.795,63.48 37.865,63.46625 C37.89125,63.4625 37.9175,63.4575 37.94375,63.45125 C38.01375,63.43875 38.0825,63.42625 38.15125,63.41125 C38.16625,63.41 38.18125,63.4075 38.19625,63.4025 C38.25125,63.3925 38.30625,63.3825 38.36,63.37125 C38.46625,63.35 38.57,63.32875 38.675,63.30625 C39.00625,63.2375 39.335,63.1625 39.6625,63.08125 C39.775,63.055 39.88625,63.02625 39.9975,62.9975 C40.06375,62.98125 40.13,62.96375 40.19625,62.94625 C40.28375,62.92375 40.37,62.9 40.4575,62.87625 C40.46,62.87625 40.46125,62.875 40.46375,62.875 C40.56875,62.84625 40.675,62.8175 40.78,62.78625 C40.8725,62.76 40.96625,62.73375 41.05875,62.70625 C41.23625,62.65375 41.415,62.6 41.59125,62.545 C41.70875,62.50875 41.825,62.47125 41.94125,62.4325 C42.06875,62.39125 42.19625,62.34875 42.32375,62.305 C42.3875,62.28375 42.45125,62.2625 42.515,62.24 C42.57875,62.21875 42.6425,62.19625 42.70625,62.1725 C42.8325,62.1275 42.96,62.0825 43.08625,62.035 C43.2125,61.98875 43.3375,61.9425 43.46375,61.89375 C43.58875,61.845 43.715,61.79625 43.84,61.74625 C43.965,61.69625 44.09,61.64625 44.21375,61.595 C44.33875,61.54375 44.4625,61.49125 44.58625,61.43875 C44.59375,61.43625 44.6025,61.4325 44.61125,61.42875 C44.76125,61.36375 44.91125,61.29875 45.06125,61.23125 C45.06625,61.23 45.07125,61.2275 45.07625,61.225 C45.225,61.1575 45.3725,61.09 45.52,61.02125 C45.82125,60.88 46.12,60.735 46.41625,60.585 C46.555,60.515 46.69375,60.44375 46.8325,60.37125 C46.94,60.315 47.0475,60.2575 47.15375,60.2 C47.46875,60.0325 47.77875,59.8575 48.08625,59.67875 C48.21375,59.60375 48.34,59.52875 48.46625,59.4525 C48.755,59.28 49.04,59.10125 49.3225,58.91875 C49.435,58.84625 49.54625,58.7725 49.6575,58.69875 C49.9525,58.50375 50.245,58.3025 50.53375,58.095 C50.715,57.96625 50.89375,57.835 51.0725,57.7025 C51.25125,57.57 51.4275,57.43625 51.6025,57.29875 L51.8125,57.13375 C51.9175,57.05125 52.0225,56.9675 52.12625,56.8825 C52.21375,56.8125 52.3,56.74125 52.385,56.67 C52.48625,56.58625 52.58625,56.5025 52.68625,56.4175 C53.35375,55.85125 54.00125,55.25375 54.6275,54.6275 C54.77375,54.48125 54.91875,54.33375 55.06125,54.185 C55.1475,54.09625 55.2325,54.00625 55.31625,53.91625 C55.48125,53.7425 55.64125,53.5675 55.80125,53.39125 C55.9525,53.2225 56.1025,53.05375 56.25,52.8825 C56.265,52.865 56.28,52.8475 56.295,52.83 C56.38375,52.7275 56.47125,52.62375 56.5575,52.52 C56.69,52.3625 56.82125,52.20375 56.95,52.04375 C57.00375,51.97625 57.0575,51.90875 57.11125,51.84125 C57.1875,51.745 57.2625,51.65 57.3375,51.5525 C57.4125,51.45625 57.4875,51.35875 57.56125,51.26 C57.685,51.0975 57.80625,50.93375 57.925,50.77 C57.98625,50.685 58.0475,50.60125 58.1075,50.51625 C58.1125,50.51125 58.11625,50.505 58.12125,50.4975 C58.2525,50.31375 58.3825,50.12625 58.51,49.93875 C58.59375,49.8175 58.675,49.695 58.755,49.5725 C58.75875,49.5675 58.7625,49.5625 58.76625,49.55625 C58.77,49.55 58.775,49.54375 58.7775,49.5375 C58.82875,49.46125 58.87875,49.38625 58.9275,49.30875 C58.945,49.28125 58.96375,49.25375 58.98125,49.225 C59.08,49.07 59.17875,48.91375 59.27625,48.75625 C59.3575,48.62375 59.4375,48.49125 59.5175,48.3575 C59.54875,48.305 59.58,48.25125 59.61125,48.1975 C59.65875,48.1175 59.70625,48.0375 59.7525,47.9575 C59.98875,47.55 60.21375,47.1375 60.43,46.72125 C60.50125,46.58375 60.57125,46.44625 60.64,46.3075 C60.7475,46.09375 60.8525,45.88 60.95375,45.66375 C61.03625,45.4875 61.11875,45.31125 61.19875,45.13375 C61.2425,45.0375 61.28375,44.9425 61.32625,44.84625 C61.3775,44.73125 61.42625,44.615 61.475,44.5 C61.695,43.98625 61.89875,43.465 62.08875,42.94 C62.1225,42.85 62.155,42.75875 62.18625,42.6675 C62.30875,42.32375 62.42375,41.97625 62.5325,41.6275 C62.57,41.51125 62.605,41.395 62.64,41.27875 C62.67375,41.16875 62.70625,41.05875 62.73875,40.94875 C62.7825,40.79875 62.825,40.6475 62.86625,40.49625 C62.8725,40.47375 62.87875,40.45125 62.88375,40.42875 C62.9175,40.30625 62.95,40.18375 62.98125,40.06 C62.99,40.02875 62.99875,39.9975 63.005,39.96625 C63.03125,39.86625 63.0575,39.765 63.08125,39.66375 C63.0975,39.5975 63.11375,39.53 63.13,39.46375 C63.2725,38.86375 63.39875,38.2575 63.505,37.6475 C63.52125,37.555 63.53875,37.46125 63.55375,37.3675 C63.5675,37.28875 63.58,37.21125 63.5925,37.1325 C63.61375,37.00375 63.63375,36.87375 63.6525,36.74375 C63.6725,36.615 63.69,36.485 63.7075,36.355 C63.73375,36.165 63.7575,35.97625 63.77875,35.78625 C63.79125,35.6825 63.8025,35.5775 63.81375,35.4725 C63.82875,35.3375 63.8425,35.20125 63.855,35.065 C63.8625,34.99625 63.86875,34.9275 63.87375,34.86 C63.88,34.7925 63.885,34.72375 63.89125,34.655 C63.90125,34.53375 63.91,34.4125 63.91875,34.29125 C63.92375,34.23875 63.9275,34.185 63.93,34.1325 C63.93625,34.0325 63.9425,33.93375 63.9475,33.83375 C63.95625,33.68125 63.96375,33.52875 63.97,33.37625 C63.98375,33.07125 63.9925,32.76625 63.99625,32.46 C63.99875,32.30625 64,32.15375 64,32 L64,31.96625 C64,31.465 63.9875,30.96625 63.96375,30.46875 Z" id="Path" fill="#F1F1F1"></path>
                <path d="M63.96375,30.46875 C63.96,30.38875 63.95625,30.3075 63.95125,30.2275 C63.95,30.18 63.94625,30.1325 63.94375,30.08375 C63.925,29.765 63.90125,29.44625 63.87375,29.1275 C63.84125,28.7625 63.8025,28.39875 63.75875,28.03625 C63.7425,27.90625 63.72625,27.775 63.7075,27.645 C63.69,27.515 63.6725,27.385 63.6525,27.25625 C63.6125,26.985 63.57,26.71375 63.5225,26.445 C63.5025,26.3275 63.48125,26.21 63.45875,26.09375 C63.435,25.965 63.41125,25.83625 63.385,25.70875 C63.36,25.58 63.33375,25.4525 63.30625,25.325 C63.25625,25.08625 63.20375,24.84875 63.1475,24.6125 C63.115,24.4775 63.0825,24.3425 63.05,24.2075 C62.825,23.305 62.56125,22.415 62.25875,21.53875 C62.21625,21.41375 62.1725,21.29 62.1275,21.16625 C62.00125,20.81125 61.8675,20.4575 61.72625,20.1075 C61.67875,19.9875 61.63,19.8675 61.58,19.7475 C61.5375,19.64375 61.49375,19.54125 61.45,19.4375 C61.40125,19.3225 61.35125,19.2075 61.3,19.09375 C61.255,18.99125 61.21,18.89 61.16375,18.78875 C61.1275,18.7075 61.09,18.6275 61.0525,18.54625 C61.04,18.51625 61.025,18.4875 61.01125,18.4575 C60.97125,18.3725 60.93125,18.28625 60.89,18.20125 C60.7975,18.005 60.70125,17.81125 60.60375,17.61875 C60.5475,17.505 60.48875,17.3925 60.43,17.27875 C60.29625,17.02 60.1575,16.7625 60.015,16.5075 C59.97875,16.44 59.9425,16.37375 59.90375,16.3075 C59.83,16.175 59.755,16.04375 59.67875,15.91375 C59.61,15.7975 59.5425,15.6825 59.47375,15.56875 C59.2325,15.16625 58.98125,14.76875 58.72125,14.37625 L50.445,19.16375 C48.91625,16.9725 47.00625,15.065 44.8125,13.53875 L49.59,5.25625 C49.46125,5.17125 49.3325,5.0875 49.2025,5.005 C49.085,4.93 48.9675,4.855 48.85,4.7825 C48.82,4.7625 48.7875,4.7425 48.75625,4.72375 C48.62125,4.64 48.48625,4.55875 48.35,4.4775 C48.23125,4.40625 48.1125,4.33625 47.9925,4.2675 C47.86,4.19 47.7275,4.115 47.5925,4.04 C47.53125,4.005 47.47,3.97125 47.4075,3.9375 C47.0575,3.74375 46.70375,3.5575 46.345,3.37875 C46.26,3.335 46.175,3.2925 46.08875,3.25125 C46.00375,3.20875 45.91875,3.1675 45.8325,3.12625 C45.74625,3.085 45.66125,3.04375 45.575,3.00375 C45.48875,2.9625 45.4025,2.9225 45.31625,2.88375 C44.84625,2.66875 44.37125,2.465 43.8925,2.27375 C43.7725,2.225 43.65125,2.1775 43.53,2.13125 C43.40875,2.085 43.2875,2.03875 43.16625,1.99375 C43.07375,1.95875 42.98125,1.925 42.8875,1.89125 C42.7225,1.83125 42.5575,1.77375 42.39125,1.7175 C42.2825,1.68 42.17375,1.64375 42.065,1.6075 C41.36375,1.375 40.65375,1.16875 39.93625,0.98625 C39.84125,0.9625 39.745,0.93875 39.64875,0.915 C39.54,0.88875 39.4325,0.8625 39.3225,0.8375 C39.23125,0.815 39.14,0.795 39.0475,0.77375 C38.92375,0.74625 38.8,0.72 38.675,0.69375 C38.58875,0.675 38.5025,0.6575 38.415,0.64 C38.34875,0.62625 38.28375,0.61375 38.2175,0.60125 C37.5425,0.4675 36.8625,0.3575 36.17625,0.26875 C36.08375,0.25625 35.99,0.245 35.89625,0.23375 C35.59875,0.1975 35.30125,0.16625 35.0025,0.13875 C35,0.1375 34.99875,0.1375 34.9975,0.13875 C34.89375,0.1275 34.78875,0.11875 34.68375,0.11125 C34.415,0.0875 34.145,0.06875 33.875,0.055 C33.81125,0.05 33.74625,0.04625 33.6825,0.04375 C33.61875,0.04 33.555,0.0375 33.49,0.035 C33.29875,0.02625 33.1075,0.01875 32.915,0.01375 C32.84,0.01125 32.765,0.00875 32.69,0.0075 C32.615,0.00625 32.53875,0.005 32.46375,0.00375 C32.31,0.00125 32.155,0 32,0 C31.3725,0 30.7475,0.0175 30.125,0.055 L30.125,9.5975 C27.355,9.8275 24.725,10.56125 22.32875,11.7075 L17.51125,3.45125 C17.40125,3.5075 17.2925,3.56375 17.18375,3.62125 C16.85625,3.7925 16.5325,3.9725 16.21,4.155 L16.20875,4.1525 C15.55125,4.52625 14.90625,4.92375 14.275,5.345 C13.9675,5.55125 13.66375,5.7625 13.3625,5.97875 C11.95625,6.99 10.62125,8.12375 9.3725,9.3725 C8.0725,10.6725 6.8975,12.06625 5.855,13.53625 C5.62625,13.8575 5.405,14.1825 5.18875,14.51125 C4.50125,15.56125 3.87875,16.64625 3.32375,17.76375 L11.62375,22.51 C10.51375,24.8825 9.80625,27.4775 9.59,30.21 L0.0475,30.24625 C0.01625,30.82875 0,31.4125 0,32 C0,32.66875 0.02,33.33375 0.06125,33.99625 C0.08125,34.33625 0.1075,34.675 0.14,35.01375 C0.47375,38.62125 1.40875,42.10125 2.89375,45.33875 C3.06625,45.71375 3.245,46.085 3.4325,46.4525 C3.99625,47.565 4.6275,48.64625 5.3225,49.69125 L13.5875,44.8825 C15.1225,47.07 17.03625,48.9725 19.23375,50.49375 L14.4775,58.7875 C15.52625,59.4775 16.61125,60.1025 17.72875,60.65875 C18.04375,60.81625 18.36125,60.96875 18.68125,61.115 C21.93375,62.605 25.4325,63.53875 29.0575,63.86625 C29.43875,63.9025 29.82125,63.93 30.205,63.95 C30.8,63.98375 31.39875,64 32,64 C32.19875,64 32.39625,63.99875 32.59375,63.99375 C32.6975,63.9925 32.80125,63.99 32.90375,63.98625 C32.91375,63.9875 32.92375,63.9875 32.93375,63.98625 C32.9725,63.985 33.01125,63.985 33.05,63.9825 C33.05625,63.9825 33.06375,63.9825 33.07,63.98125 C33.2025,63.9775 33.335,63.9725 33.4675,63.96625 C33.61125,63.96 33.755,63.9525 33.8975,63.94375 C33.91625,63.94375 33.935,63.9425 33.955,63.94125 L33.93125,54.3975 C36.66125,54.16375 39.25375,53.44125 41.61875,52.31625 L46.41625,60.585 C46.555,60.515 46.69375,60.44375 46.8325,60.37125 C46.94,60.315 47.0475,60.2575 47.15375,60.2 C47.46875,60.0325 47.77875,59.8575 48.08625,59.67875 C48.21375,59.60375 48.34,59.52875 48.46625,59.4525 C48.755,59.28 49.04,59.10125 49.3225,58.91875 C49.435,58.84625 49.54625,58.7725 49.6575,58.69875 C49.9525,58.50375 50.245,58.3025 50.53375,58.095 C50.715,57.96625 50.89375,57.835 51.0725,57.7025 C51.25125,57.57 51.4275,57.43625 51.6025,57.29875 L51.8125,57.13375 C51.9175,57.05125 52.0225,56.9675 52.12625,56.8825 C52.21375,56.8125 52.3,56.74125 52.385,56.67 C52.48625,56.58625 52.58625,56.5025 52.68625,56.4175 C53.35375,55.85125 54.00125,55.25375 54.6275,54.6275 C54.77375,54.48125 54.91875,54.33375 55.06125,54.185 C55.1475,54.09625 55.2325,54.00625 55.31625,53.91625 C55.48125,53.7425 55.64125,53.5675 55.80125,53.39125 C55.9525,53.2225 56.1025,53.05375 56.25,52.8825 C56.265,52.865 56.28,52.8475 56.295,52.83 C56.38375,52.7275 56.47125,52.62375 56.5575,52.52 C56.69,52.3625 56.82125,52.20375 56.95,52.04375 C57.00375,51.97625 57.0575,51.90875 57.11125,51.84125 C57.1875,51.745 57.2625,51.65 57.3375,51.5525 C57.4125,51.45625 57.4875,51.35875 57.56125,51.26 C57.685,51.0975 57.80625,50.93375 57.925,50.77 C57.98625,50.685 58.0475,50.60125 58.1075,50.51625 C58.1125,50.51125 58.11625,50.505 58.12125,50.4975 C58.2525,50.31375 58.3825,50.12625 58.51,49.93875 C58.59375,49.8175 58.675,49.695 58.755,49.5725 C58.75875,49.5675 58.7625,49.5625 58.76625,49.55625 C58.77,49.55 58.775,49.54375 58.7775,49.5375 C58.82875,49.46125 58.87875,49.38625 58.9275,49.30875 C58.945,49.28125 58.96375,49.25375 58.98125,49.225 C59.08,49.07 59.17875,48.91375 59.27625,48.75625 C59.3575,48.62375 59.4375,48.49125 59.5175,48.3575 C59.59625,48.225 59.675,48.09125 59.7525,47.9575 C59.98875,47.55 60.21375,47.1375 60.43,46.72125 C60.50125,46.58375 60.57125,46.44625 60.64,46.3075 L52.3525,41.54125 C53.4675,39.1725 54.18125,36.5775 54.405,33.84625 L63.9475,33.83375 C63.95625,33.68125 63.96375,33.52875 63.97,33.37625 C63.98375,33.07125 63.9925,32.76625 63.99625,32.46 C63.99875,32.30625 64,32.15375 64,32 C64,31.4875 63.9875,30.9775 63.96375,30.46875 Z M32,50.73125 C21.67125,50.73125 13.26875,42.32875 13.26875,32 C13.26875,21.67125 21.67125,13.26875 32,13.26875 C42.32875,13.26875 50.73125,21.67125 50.73125,32 C50.73125,42.32875 42.32875,50.73125 32,50.73125 Z" id="Shape" fill="#990013"></path>
                <path d="M40.965375,35.616875 C39.55825,37.914875 37.59675,38.409875 36.19925,38.420375 C35.472875,38.426 34.74575,38.299 34.053625,38.049875 C34.205625,38.677875 34.400625,39.01975 34.56475,39.135 L34.8215,39.315625 L34.8215,41 L29.178375,41 L29.178375,39.3155 L29.435125,39.134875 C29.59925,39.019625 29.79425,38.67775 29.94625,38.04975 C29.254125,38.298875 28.527375,38.425875 27.800625,38.42025 C26.403125,38.40975 24.44175,37.91475 23.0345,35.61675 C21.90025,33.764125 21.870375,31.567 22.95225,29.589 C23.787,28.062125 25.0805,26.84525 26.33125,25.66825 C26.551375,25.4615 26.758875,25.266 26.96575,25.067625 C27.740875,24.323125 28.52575,23.605625 29.28425,22.912 C30.037625,22.223125 30.81675,21.510875 31.581,20.776875 L32,20.375 L32.41875,20.776875 C33.183,21.510875 33.962125,22.223125 34.7155,22.912 C35.474125,23.60575 36.258875,24.323125 37.034,25.067625 C37.24075,25.266 37.448375,25.461375 37.6685,25.66825 C38.91925,26.84525 40.21275,28.062125 41.0475,29.589 C42.1295,31.567 42.099625,33.76425 40.965375,35.616875 Z" id="Path" fill="#3C3A41"></path>
            </g>
            <g id="Icons-/-Main-/-Checkmark-Copy" transform="translate(40.000000, 40.000000)">
                <path d="M12,0 C5.38279688,0 0,5.38279688 0,12 C0,18.6172031 5.38279688,24 12,24 C18.6172031,24 24,18.6162656 24,12 C24,5.38373438 18.6172031,0 12,0 Z" id="Path" fill="#00B16A"></path>
                <path d="M18.1620452,8.48026913 C18.4651352,8.78561883 18.4629121,9.27883739 18.1570174,9.58320947 L11.470138,16.2134804 C11.3178713,16.3646788 11.1107399,16.4460537 10.8951352,16.4394497 L10.8807947,16.4377239 C10.6719104,16.4267767 10.4772047,16.3329266 10.3379312,16.1757973 L7.09614242,12.515489 C6.81031414,12.1931035 6.84046416,11.700706 7.16314385,11.4153659 C7.48485158,11.1294021 7.97641961,11.1595035 8.26361236,11.4825823 L10.853209,14.4067165 L10.9656976,14.5192052 L11.0711174,14.4137854 L17.0601565,8.47552682 C17.3659082,8.1728161 17.859938,8.17527324 18.1620452,8.48026913 Z" id="Path" fill="#FFFFFF"></path>
            </g>
        </g>
    </g>
</svg>